<svg xmlns="http://www.w3.org/2000/svg" viewBox="0 0 864 552" font-family="sans-serif">
<rect width="100%" height="100%" fill="#fafafa"/>
<rect x="12" y="232" width="840" height="88" fill="#e2e8f0" stroke="#94a3b8" stroke-width="0.5"/>
<rect x="684.0" y="452.0" width="140.0" height="44.0" rx="4" fill="hsl(0,65%,42%)" fill-opacity="0.18" stroke="hsl(0,65%,42%)" stroke-width="1.5"/>
<text x="754.0" y="474.0" font-size="13" font-weight="bold" fill="hsl(0,65%,42%)" text-anchor="middle" dominant-baseline="central">D1</text>
<rect x="544.0" y="452.0" width="140.0" height="44.0" rx="4" fill="hsl(47,65%,42%)" fill-opacity="0.18" stroke="hsl(47,65%,42%)" stroke-width="1.5"/>
<text x="614.0" y="474.0" font-size="13" font-weight="bold" fill="hsl(47,65%,42%)" text-anchor="middle" dominant-baseline="central">D2</text>
<rect x="292.0" y="408.0" width="140.0" height="44.0" rx="4" fill="hsl(94,65%,42%)" fill-opacity="0.18" stroke="hsl(94,65%,42%)" stroke-width="1.5"/>
<text x="362.0" y="430.0" font-size="13" font-weight="bold" fill="hsl(94,65%,42%)" text-anchor="middle" dominant-baseline="central">D3</text>
<rect x="404.0" y="320.0" width="140.0" height="44.0" rx="4" fill="hsl(141,65%,42%)" fill-opacity="0.18" stroke="hsl(141,65%,42%)" stroke-width="1.5"/>
<text x="474.0" y="342.0" font-size="13" font-weight="bold" fill="hsl(141,65%,42%)" text-anchor="middle" dominant-baseline="central">D4</text>
<rect x="600.0" y="408.0" width="84.0" height="44.0" rx="4" fill="hsl(188,65%,42%)" fill-opacity="0.18" stroke="hsl(188,65%,42%)" stroke-width="1.5"/>
<text x="642.0" y="430.0" font-size="13" font-weight="bold" fill="hsl(188,65%,42%)" text-anchor="middle" dominant-baseline="central">Q1</text>
<rect x="152.0" y="452.0" width="84.0" height="44.0" rx="4" fill="hsl(235,65%,42%)" fill-opacity="0.18" stroke="hsl(235,65%,42%)" stroke-width="1.5"/>
<text x="194.0" y="474.0" font-size="13" font-weight="bold" fill="hsl(235,65%,42%)" text-anchor="middle" dominant-baseline="central">Q2</text>
<rect x="712.0" y="408.0" width="84.0" height="44.0" rx="4" fill="hsl(282,65%,42%)" fill-opacity="0.18" stroke="hsl(282,65%,42%)" stroke-width="1.5"/>
<text x="754.0" y="430.0" font-size="13" font-weight="bold" fill="hsl(282,65%,42%)" text-anchor="middle" dominant-baseline="central">Q3</text>
<rect x="544.0" y="144.0" width="84.0" height="44.0" rx="4" fill="hsl(329,65%,42%)" fill-opacity="0.18" stroke="hsl(329,65%,42%)" stroke-width="1.5"/>
<text x="586.0" y="166.0" font-size="13" font-weight="bold" fill="hsl(329,65%,42%)" text-anchor="middle" dominant-baseline="central">Q4</text>
<rect x="432.0" y="364.0" width="84.0" height="44.0" rx="4" fill="hsl(16,65%,42%)" fill-opacity="0.18" stroke="hsl(16,65%,42%)" stroke-width="1.5"/>
<text x="474.0" y="386.0" font-size="13" font-weight="bold" fill="hsl(16,65%,42%)" text-anchor="middle" dominant-baseline="central">Q5</text>
<rect x="348.0" y="144.0" width="84.0" height="44.0" rx="4" fill="hsl(63,65%,42%)" fill-opacity="0.18" stroke="hsl(63,65%,42%)" stroke-width="1.5"/>
<text x="390.0" y="166.0" font-size="13" font-weight="bold" fill="hsl(63,65%,42%)" text-anchor="middle" dominant-baseline="central">Q6</text>
<rect x="96.0" y="364.0" width="56.0" height="44.0" rx="4" fill="hsl(110,65%,42%)" fill-opacity="0.18" stroke="hsl(110,65%,42%)" stroke-width="1.5"/>
<text x="124.0" y="386.0" font-size="13" font-weight="bold" fill="hsl(110,65%,42%)" text-anchor="middle" dominant-baseline="central">R2</text>
<rect x="236.0" y="452.0" width="56.0" height="44.0" rx="4" fill="hsl(157,65%,42%)" fill-opacity="0.18" stroke="hsl(157,65%,42%)" stroke-width="1.5"/>
<text x="264.0" y="474.0" font-size="13" font-weight="bold" fill="hsl(157,65%,42%)" text-anchor="middle" dominant-baseline="central">R3</text>
<rect x="348.0" y="452.0" width="56.0" height="44.0" rx="4" fill="hsl(204,65%,42%)" fill-opacity="0.18" stroke="hsl(204,65%,42%)" stroke-width="1.5"/>
<text x="376.0" y="474.0" font-size="13" font-weight="bold" fill="hsl(204,65%,42%)" text-anchor="middle" dominant-baseline="central">R4</text>
<rect x="712.0" y="144.0" width="56.0" height="44.0" rx="4" fill="hsl(251,65%,42%)" fill-opacity="0.18" stroke="hsl(251,65%,42%)" stroke-width="1.5"/>
<text x="740.0" y="166.0" font-size="13" font-weight="bold" fill="hsl(251,65%,42%)" text-anchor="middle" dominant-baseline="central">R5</text>
<rect x="432.0" y="100.0" width="56.0" height="44.0" rx="4" fill="hsl(298,65%,42%)" fill-opacity="0.18" stroke="hsl(298,65%,42%)" stroke-width="1.5"/>
<text x="460.0" y="122.0" font-size="13" font-weight="bold" fill="hsl(298,65%,42%)" text-anchor="middle" dominant-baseline="central">R6</text>
<rect x="628.0" y="100.0" width="56.0" height="44.0" rx="4" fill="hsl(345,65%,42%)" fill-opacity="0.18" stroke="hsl(345,65%,42%)" stroke-width="1.5"/>
<text x="656.0" y="122.0" font-size="13" font-weight="bold" fill="hsl(345,65%,42%)" text-anchor="middle" dominant-baseline="central">R7</text>
<rect x="292.0" y="144.0" width="56.0" height="44.0" rx="4" fill="hsl(32,65%,42%)" fill-opacity="0.18" stroke="hsl(32,65%,42%)" stroke-width="1.5"/>
<text x="320.0" y="166.0" font-size="13" font-weight="bold" fill="hsl(32,65%,42%)" text-anchor="middle" dominant-baseline="central">R8</text>
<rect x="488.0" y="144.0" width="56.0" height="44.0" rx="4" fill="hsl(79,65%,42%)" fill-opacity="0.18" stroke="hsl(79,65%,42%)" stroke-width="1.5"/>
<text x="516.0" y="166.0" font-size="13" font-weight="bold" fill="hsl(79,65%,42%)" text-anchor="middle" dominant-baseline="central">R9</text>
<path d="M 670.0 342.0 L 670.0 362.7 L 726.0 362.7 L 726.0 342.0" fill="none" stroke="hsl(0,65%,48%)" stroke-width="2" stroke-linecap="round" stroke-linejoin="round" opacity="0.9"/>
<text x="698.0" y="362.7" font-size="9" fill="hsl(0,65%,48%)" stroke="#fafafa" stroke-width="3" paint-order="stroke" stroke-linejoin="round" text-anchor="middle" dominant-baseline="central">Net-(D1-A)</text>
<path d="M 726.0 386.0 L 726.0 401.7 L 810.0 401.7 L 810.0 386.0" fill="none" stroke="hsl(0,65%,48%)" stroke-width="2" stroke-linecap="round" stroke-linejoin="round" opacity="0.9"/>
<text x="768.0" y="401.7" font-size="9" fill="hsl(0,65%,48%)" stroke="#fafafa" stroke-width="3" paint-order="stroke" stroke-linejoin="round" text-anchor="middle" dominant-baseline="central">Net-(D1-A)</text>
<path d="M 418.0 474.0 L 418.0 487.2 L 446.0 487.2 L 446.0 474.0" fill="none" stroke="hsl(73,65%,48%)" stroke-width="2" stroke-linecap="round" stroke-linejoin="round" opacity="0.9"/>
<text x="432.0" y="487.2" font-size="9" fill="hsl(73,65%,48%)" stroke="#fafafa" stroke-width="3" paint-order="stroke" stroke-linejoin="round" text-anchor="middle" dominant-baseline="central">Net-(D3-A)</text>
<line x1="418.0" y1="210.0" x2="418.0" y2="386.0" stroke="hsl(73,65%,48%)" stroke-width="2" stroke-linecap="round" opacity="0.9"/>
<text x="418.0" y="298.0" font-size="9" fill="hsl(73,65%,48%)" stroke="#fafafa" stroke-width="3" paint-order="stroke" stroke-linejoin="round" text-anchor="middle" dominant-baseline="central">Net-(D3-A)</text>
<path d="M 390.0 342.0 L 390.0 357.7 L 642.0 357.7 L 642.0 342.0" fill="none" stroke="hsl(146,65%,48%)" stroke-width="2" stroke-linecap="round" stroke-linejoin="round" opacity="0.9"/>
<text x="516.0" y="357.7" font-size="9" fill="hsl(146,65%,48%)" stroke="#fafafa" stroke-width="3" paint-order="stroke" stroke-linejoin="round" text-anchor="middle" dominant-baseline="central">Net-(Q1-B)</text>
<path d="M 110.0 342.0 L 110.0 347.7 L 194.0 347.7 L 194.0 342.0" fill="none" stroke="hsl(219,65%,48%)" stroke-width="2" stroke-linecap="round" stroke-linejoin="round" opacity="0.9"/>
<text x="152.0" y="347.7" font-size="9" fill="hsl(219,65%,48%)" stroke="#fafafa" stroke-width="3" paint-order="stroke" stroke-linejoin="round" text-anchor="middle" dominant-baseline="central">Net-(Q2-B)</text>
<path d="M 166.0 342.0 L 166.0 352.7 L 250.0 352.7 L 250.0 342.0" fill="none" stroke="hsl(292,65%,48%)" stroke-width="2" stroke-linecap="round" stroke-linejoin="round" opacity="0.9"/>
<text x="208.0" y="352.7" font-size="9" fill="hsl(292,65%,48%)" stroke="#fafafa" stroke-width="3" paint-order="stroke" stroke-linejoin="round" text-anchor="middle" dominant-baseline="central">Net-(Q2-C)</text>
<path d="M 250.0 386.0 L 250.0 396.7 L 362.0 396.7 L 362.0 386.0" fill="none" stroke="hsl(292,65%,48%)" stroke-width="2" stroke-linecap="round" stroke-linejoin="round" opacity="0.9"/>
<text x="306.0" y="396.7" font-size="9" fill="hsl(292,65%,48%)" stroke="#fafafa" stroke-width="3" paint-order="stroke" stroke-linejoin="round" text-anchor="middle" dominant-baseline="central">Net-(Q2-C)</text>
<line x1="754.0" y1="210.0" x2="754.0" y2="342.0" stroke="hsl(5,65%,48%)" stroke-width="2" stroke-linecap="round" opacity="0.9"/>
<text x="754.0" y="276.0" font-size="9" fill="hsl(5,65%,48%)" stroke="#fafafa" stroke-width="3" paint-order="stroke" stroke-linejoin="round" text-anchor="middle" dominant-baseline="central">Net-(Q3-B)</text>
<path d="M 446.0 34.0 L 446.0 47.2 L 586.0 47.2 L 586.0 34.0" fill="none" stroke="hsl(78,65%,48%)" stroke-width="2" stroke-linecap="round" stroke-linejoin="round" opacity="0.9"/>
<text x="516.0" y="47.2" font-size="9" fill="hsl(78,65%,48%)" stroke="#fafafa" stroke-width="3" paint-order="stroke" stroke-linejoin="round" text-anchor="middle" dominant-baseline="central">Net-(Q4-B)</text>
<path d="M 502.0 34.0 L 502.0 52.2 L 558.0 52.2 L 558.0 34.0" fill="none" stroke="hsl(151,65%,48%)" stroke-width="2" stroke-linecap="round" stroke-linejoin="round" opacity="0.9"/>
<text x="530.0" y="52.2" font-size="9" fill="hsl(151,65%,48%)" stroke="#fafafa" stroke-width="3" paint-order="stroke" stroke-linejoin="round" text-anchor="middle" dominant-baseline="central">Net-(Q4-C)</text>
<path d="M 558.0 78.0 L 558.0 91.2 L 642.0 91.2 L 642.0 78.0" fill="none" stroke="hsl(151,65%,48%)" stroke-width="2" stroke-linecap="round" stroke-linejoin="round" opacity="0.9"/>
<text x="600.0" y="91.2" font-size="9" fill="hsl(151,65%,48%)" stroke="#fafafa" stroke-width="3" paint-order="stroke" stroke-linejoin="round" text-anchor="middle" dominant-baseline="central">Net-(Q4-C)</text>
<line x1="474.0" y1="430.0" x2="530.0" y2="210.0" stroke="hsl(224,65%,48%)" stroke-width="2" stroke-linecap="round" opacity="0.9"/>
<text x="502.0" y="320.0" font-size="9" fill="hsl(224,65%,48%)" stroke="#fafafa" stroke-width="3" paint-order="stroke" stroke-linejoin="round" text-anchor="middle" dominant-baseline="central">Net-(Q5-B)</text>
<path d="M 334.0 34.0 L 334.0 42.2 L 390.0 42.2 L 390.0 34.0" fill="none" stroke="hsl(297,65%,48%)" stroke-width="2" stroke-linecap="round" stroke-linejoin="round" opacity="0.9"/>
<text x="362.0" y="42.2" font-size="9" fill="hsl(297,65%,48%)" stroke="#fafafa" stroke-width="3" paint-order="stroke" stroke-linejoin="round" text-anchor="middle" dominant-baseline="central">Net-(Q6-B)</text>
<circle cx="26.0" cy="34.0" r="5" fill="#ffffff" stroke="#cbd5e1" stroke-width="1"/>
<circle cx="54.0" cy="34.0" r="5" fill="#ffffff" stroke="#cbd5e1" stroke-width="1"/>
<circle cx="82.0" cy="34.0" r="5" fill="#ffffff" stroke="#cbd5e1" stroke-width="1"/>
<circle cx="110.0" cy="34.0" r="5" fill="#ffffff" stroke="#cbd5e1" stroke-width="1"/>
<circle cx="138.0" cy="34.0" r="5" fill="#ffffff" stroke="#cbd5e1" stroke-width="1"/>
<circle cx="166.0" cy="34.0" r="5" fill="#ffffff" stroke="#cbd5e1" stroke-width="1"/>
<circle cx="194.0" cy="34.0" r="5" fill="#ffffff" stroke="#cbd5e1" stroke-width="1"/>
<circle cx="222.0" cy="34.0" r="5" fill="#ffffff" stroke="#cbd5e1" stroke-width="1"/>
<circle cx="250.0" cy="34.0" r="5" fill="#ffffff" stroke="#cbd5e1" stroke-width="1"/>
<circle cx="278.0" cy="34.0" r="5" fill="#ffffff" stroke="#cbd5e1" stroke-width="1"/>
<circle cx="306.0" cy="34.0" r="5" fill="#ffffff" stroke="#cbd5e1" stroke-width="1"/>
<circle cx="334.0" cy="34.0" r="5" fill="#16a34a" stroke="#14532d" stroke-width="1"/>
<circle cx="362.0" cy="34.0" r="5" fill="#ffffff" stroke="#cbd5e1" stroke-width="1"/>
<circle cx="390.0" cy="34.0" r="5" fill="#16a34a" stroke="#14532d" stroke-width="1"/>
<circle cx="418.0" cy="34.0" r="5" fill="#ffffff" stroke="#cbd5e1" stroke-width="1"/>
<circle cx="446.0" cy="34.0" r="5" fill="#16a34a" stroke="#14532d" stroke-width="1"/>
<circle cx="474.0" cy="34.0" r="5" fill="#ffffff" stroke="#cbd5e1" stroke-width="1"/>
<circle cx="502.0" cy="34.0" r="5" fill="#16a34a" stroke="#14532d" stroke-width="1"/>
<circle cx="530.0" cy="34.0" r="5" fill="#ffffff" stroke="#cbd5e1" stroke-width="1"/>
<circle cx="558.0" cy="34.0" r="5" fill="#16a34a" stroke="#14532d" stroke-width="1"/>
<circle cx="586.0" cy="34.0" r="5" fill="#16a34a" stroke="#14532d" stroke-width="1"/>
<circle cx="614.0" cy="34.0" r="5" fill="#ffffff" stroke="#cbd5e1" stroke-width="1"/>
<circle cx="642.0" cy="34.0" r="5" fill="#ffffff" stroke="#cbd5e1" stroke-width="1"/>
<circle cx="670.0" cy="34.0" r="5" fill="#ffffff" stroke="#cbd5e1" stroke-width="1"/>
<circle cx="698.0" cy="34.0" r="5" fill="#ffffff" stroke="#cbd5e1" stroke-width="1"/>
<circle cx="726.0" cy="34.0" r="5" fill="#ffffff" stroke="#cbd5e1" stroke-width="1"/>
<circle cx="754.0" cy="34.0" r="5" fill="#ffffff" stroke="#cbd5e1" stroke-width="1"/>
<circle cx="782.0" cy="34.0" r="5" fill="#ffffff" stroke="#cbd5e1" stroke-width="1"/>
<circle cx="810.0" cy="34.0" r="5" fill="#ffffff" stroke="#cbd5e1" stroke-width="1"/>
<circle cx="838.0" cy="34.0" r="5" fill="#ffffff" stroke="#cbd5e1" stroke-width="1"/>
<circle cx="26.0" cy="78.0" r="5" fill="#ffffff" stroke="#cbd5e1" stroke-width="1"/>
<circle cx="54.0" cy="78.0" r="5" fill="#ffffff" stroke="#cbd5e1" stroke-width="1"/>
<circle cx="82.0" cy="78.0" r="5" fill="#ffffff" stroke="#cbd5e1" stroke-width="1"/>
<circle cx="110.0" cy="78.0" r="5" fill="#ffffff" stroke="#cbd5e1" stroke-width="1"/>
<circle cx="138.0" cy="78.0" r="5" fill="#ffffff" stroke="#cbd5e1" stroke-width="1"/>
<circle cx="166.0" cy="78.0" r="5" fill="#ffffff" stroke="#cbd5e1" stroke-width="1"/>
<circle cx="194.0" cy="78.0" r="5" fill="#ffffff" stroke="#cbd5e1" stroke-width="1"/>
<circle cx="222.0" cy="78.0" r="5" fill="#ffffff" stroke="#cbd5e1" stroke-width="1"/>
<circle cx="250.0" cy="78.0" r="5" fill="#ffffff" stroke="#cbd5e1" stroke-width="1"/>
<circle cx="278.0" cy="78.0" r="5" fill="#ffffff" stroke="#cbd5e1" stroke-width="1"/>
<circle cx="306.0" cy="78.0" r="5" fill="#ffffff" stroke="#cbd5e1" stroke-width="1"/>
<circle cx="334.0" cy="78.0" r="5" fill="#ffffff" stroke="#cbd5e1" stroke-width="1"/>
<circle cx="362.0" cy="78.0" r="5" fill="#ffffff" stroke="#cbd5e1" stroke-width="1"/>
<circle cx="390.0" cy="78.0" r="5" fill="#ffffff" stroke="#cbd5e1" stroke-width="1"/>
<circle cx="418.0" cy="78.0" r="5" fill="#ffffff" stroke="#cbd5e1" stroke-width="1"/>
<circle cx="446.0" cy="78.0" r="5" fill="#ffffff" stroke="#cbd5e1" stroke-width="1"/>
<circle cx="474.0" cy="78.0" r="5" fill="#ffffff" stroke="#cbd5e1" stroke-width="1"/>
<circle cx="502.0" cy="78.0" r="5" fill="#ffffff" stroke="#cbd5e1" stroke-width="1"/>
<circle cx="530.0" cy="78.0" r="5" fill="#ffffff" stroke="#cbd5e1" stroke-width="1"/>
<circle cx="558.0" cy="78.0" r="5" fill="#16a34a" stroke="#14532d" stroke-width="1"/>
<circle cx="586.0" cy="78.0" r="5" fill="#ffffff" stroke="#cbd5e1" stroke-width="1"/>
<circle cx="614.0" cy="78.0" r="5" fill="#ffffff" stroke="#cbd5e1" stroke-width="1"/>
<circle cx="642.0" cy="78.0" r="5" fill="#16a34a" stroke="#14532d" stroke-width="1"/>
<circle cx="670.0" cy="78.0" r="5" fill="#ffffff" stroke="#cbd5e1" stroke-width="1"/>
<circle cx="698.0" cy="78.0" r="5" fill="#ffffff" stroke="#cbd5e1" stroke-width="1"/>
<circle cx="726.0" cy="78.0" r="5" fill="#ffffff" stroke="#cbd5e1" stroke-width="1"/>
<circle cx="754.0" cy="78.0" r="5" fill="#ffffff" stroke="#cbd5e1" stroke-width="1"/>
<circle cx="782.0" cy="78.0" r="5" fill="#ffffff" stroke="#cbd5e1" stroke-width="1"/>
<circle cx="810.0" cy="78.0" r="5" fill="#ffffff" stroke="#cbd5e1" stroke-width="1"/>
<circle cx="838.0" cy="78.0" r="5" fill="#ffffff" stroke="#cbd5e1" stroke-width="1"/>
<circle cx="26.0" cy="122.0" r="5" fill="#ffffff" stroke="#cbd5e1" stroke-width="1"/>
<circle cx="54.0" cy="122.0" r="5" fill="#ffffff" stroke="#cbd5e1" stroke-width="1"/>
<circle cx="82.0" cy="122.0" r="5" fill="#ffffff" stroke="#cbd5e1" stroke-width="1"/>
<circle cx="110.0" cy="122.0" r="5" fill="#ffffff" stroke="#cbd5e1" stroke-width="1"/>
<circle cx="138.0" cy="122.0" r="5" fill="#ffffff" stroke="#cbd5e1" stroke-width="1"/>
<circle cx="166.0" cy="122.0" r="5" fill="#ffffff" stroke="#cbd5e1" stroke-width="1"/>
<circle cx="194.0" cy="122.0" r="5" fill="#ffffff" stroke="#cbd5e1" stroke-width="1"/>
<circle cx="222.0" cy="122.0" r="5" fill="#ffffff" stroke="#cbd5e1" stroke-width="1"/>
<circle cx="250.0" cy="122.0" r="5" fill="#ffffff" stroke="#cbd5e1" stroke-width="1"/>
<circle cx="278.0" cy="122.0" r="5" fill="#ffffff" stroke="#cbd5e1" stroke-width="1"/>
<circle cx="306.0" cy="122.0" r="5" fill="#ffffff" stroke="#cbd5e1" stroke-width="1"/>
<circle cx="334.0" cy="122.0" r="5" fill="#ffffff" stroke="#cbd5e1" stroke-width="1"/>
<circle cx="362.0" cy="122.0" r="5" fill="#ffffff" stroke="#cbd5e1" stroke-width="1"/>
<circle cx="390.0" cy="122.0" r="5" fill="#ffffff" stroke="#cbd5e1" stroke-width="1"/>
<circle cx="418.0" cy="122.0" r="5" fill="#ffffff" stroke="#cbd5e1" stroke-width="1"/>
<circle cx="446.0" cy="122.0" r="5" fill="#2563eb" stroke="#1e3a8a" stroke-width="1"/>
<circle cx="474.0" cy="122.0" r="5" fill="#2563eb" stroke="#1e3a8a" stroke-width="1"/>
<circle cx="502.0" cy="122.0" r="5" fill="#ffffff" stroke="#cbd5e1" stroke-width="1"/>
<circle cx="530.0" cy="122.0" r="5" fill="#ffffff" stroke="#cbd5e1" stroke-width="1"/>
<circle cx="558.0" cy="122.0" r="5" fill="#ffffff" stroke="#cbd5e1" stroke-width="1"/>
<circle cx="586.0" cy="122.0" r="5" fill="#ffffff" stroke="#cbd5e1" stroke-width="1"/>
<circle cx="614.0" cy="122.0" r="5" fill="#ffffff" stroke="#cbd5e1" stroke-width="1"/>
<circle cx="642.0" cy="122.0" r="5" fill="#2563eb" stroke="#1e3a8a" stroke-width="1"/>
<circle cx="670.0" cy="122.0" r="5" fill="#2563eb" stroke="#1e3a8a" stroke-width="1"/>
<circle cx="698.0" cy="122.0" r="5" fill="#ffffff" stroke="#cbd5e1" stroke-width="1"/>
<circle cx="726.0" cy="122.0" r="5" fill="#ffffff" stroke="#cbd5e1" stroke-width="1"/>
<circle cx="754.0" cy="122.0" r="5" fill="#ffffff" stroke="#cbd5e1" stroke-width="1"/>
<circle cx="782.0" cy="122.0" r="5" fill="#ffffff" stroke="#cbd5e1" stroke-width="1"/>
<circle cx="810.0" cy="122.0" r="5" fill="#ffffff" stroke="#cbd5e1" stroke-width="1"/>
<circle cx="838.0" cy="122.0" r="5" fill="#ffffff" stroke="#cbd5e1" stroke-width="1"/>
<circle cx="26.0" cy="166.0" r="5" fill="#ffffff" stroke="#cbd5e1" stroke-width="1"/>
<circle cx="54.0" cy="166.0" r="5" fill="#ffffff" stroke="#cbd5e1" stroke-width="1"/>
<circle cx="82.0" cy="166.0" r="5" fill="#ffffff" stroke="#cbd5e1" stroke-width="1"/>
<circle cx="110.0" cy="166.0" r="5" fill="#ffffff" stroke="#cbd5e1" stroke-width="1"/>
<circle cx="138.0" cy="166.0" r="5" fill="#ffffff" stroke="#cbd5e1" stroke-width="1"/>
<circle cx="166.0" cy="166.0" r="5" fill="#ffffff" stroke="#cbd5e1" stroke-width="1"/>
<circle cx="194.0" cy="166.0" r="5" fill="#ffffff" stroke="#cbd5e1" stroke-width="1"/>
<circle cx="222.0" cy="166.0" r="5" fill="#ffffff" stroke="#cbd5e1" stroke-width="1"/>
<circle cx="250.0" cy="166.0" r="5" fill="#ffffff" stroke="#cbd5e1" stroke-width="1"/>
<circle cx="278.0" cy="166.0" r="5" fill="#ffffff" stroke="#cbd5e1" stroke-width="1"/>
<circle cx="306.0" cy="166.0" r="5" fill="#2563eb" stroke="#1e3a8a" stroke-width="1"/>
<circle cx="334.0" cy="166.0" r="5" fill="#2563eb" stroke="#1e3a8a" stroke-width="1"/>
<circle cx="362.0" cy="166.0" r="5" fill="#2563eb" stroke="#1e3a8a" stroke-width="1"/>
<circle cx="390.0" cy="166.0" r="5" fill="#2563eb" stroke="#1e3a8a" stroke-width="1"/>
<circle cx="418.0" cy="166.0" r="5" fill="#2563eb" stroke="#1e3a8a" stroke-width="1"/>
<circle cx="446.0" cy="166.0" r="5" fill="#ffffff" stroke="#cbd5e1" stroke-width="1"/>
<circle cx="474.0" cy="166.0" r="5" fill="#ffffff" stroke="#cbd5e1" stroke-width="1"/>
<circle cx="502.0" cy="166.0" r="5" fill="#2563eb" stroke="#1e3a8a" stroke-width="1"/>
<circle cx="530.0" cy="166.0" r="5" fill="#2563eb" stroke="#1e3a8a" stroke-width="1"/>
<circle cx="558.0" cy="166.0" r="5" fill="#2563eb" stroke="#1e3a8a" stroke-width="1"/>
<circle cx="586.0" cy="166.0" r="5" fill="#2563eb" stroke="#1e3a8a" stroke-width="1"/>
<circle cx="614.0" cy="166.0" r="5" fill="#2563eb" stroke="#1e3a8a" stroke-width="1"/>
<circle cx="642.0" cy="166.0" r="5" fill="#ffffff" stroke="#cbd5e1" stroke-width="1"/>
<circle cx="670.0" cy="166.0" r="5" fill="#ffffff" stroke="#cbd5e1" stroke-width="1"/>
<circle cx="698.0" cy="166.0" r="5" fill="#ffffff" stroke="#cbd5e1" stroke-width="1"/>
<circle cx="726.0" cy="166.0" r="5" fill="#2563eb" stroke="#1e3a8a" stroke-width="1"/>
<circle cx="754.0" cy="166.0" r="5" fill="#2563eb" stroke="#1e3a8a" stroke-width="1"/>
<circle cx="782.0" cy="166.0" r="5" fill="#ffffff" stroke="#cbd5e1" stroke-width="1"/>
<circle cx="810.0" cy="166.0" r="5" fill="#ffffff" stroke="#cbd5e1" stroke-width="1"/>
<circle cx="838.0" cy="166.0" r="5" fill="#ffffff" stroke="#cbd5e1" stroke-width="1"/>
<circle cx="26.0" cy="210.0" r="5" fill="#ffffff" stroke="#cbd5e1" stroke-width="1"/>
<circle cx="54.0" cy="210.0" r="5" fill="#ffffff" stroke="#cbd5e1" stroke-width="1"/>
<circle cx="82.0" cy="210.0" r="5" fill="#ffffff" stroke="#cbd5e1" stroke-width="1"/>
<circle cx="110.0" cy="210.0" r="5" fill="#ffffff" stroke="#cbd5e1" stroke-width="1"/>
<circle cx="138.0" cy="210.0" r="5" fill="#ffffff" stroke="#cbd5e1" stroke-width="1"/>
<circle cx="166.0" cy="210.0" r="5" fill="#ffffff" stroke="#cbd5e1" stroke-width="1"/>
<circle cx="194.0" cy="210.0" r="5" fill="#ffffff" stroke="#cbd5e1" stroke-width="1"/>
<circle cx="222.0" cy="210.0" r="5" fill="#ffffff" stroke="#cbd5e1" stroke-width="1"/>
<circle cx="250.0" cy="210.0" r="5" fill="#ffffff" stroke="#cbd5e1" stroke-width="1"/>
<circle cx="278.0" cy="210.0" r="5" fill="#ffffff" stroke="#cbd5e1" stroke-width="1"/>
<circle cx="306.0" cy="210.0" r="5" fill="#ffffff" stroke="#cbd5e1" stroke-width="1"/>
<circle cx="334.0" cy="210.0" r="5" fill="#ffffff" stroke="#cbd5e1" stroke-width="1"/>
<circle cx="362.0" cy="210.0" r="5" fill="#ffffff" stroke="#cbd5e1" stroke-width="1"/>
<circle cx="390.0" cy="210.0" r="5" fill="#ffffff" stroke="#cbd5e1" stroke-width="1"/>
<circle cx="418.0" cy="210.0" r="5" fill="#16a34a" stroke="#14532d" stroke-width="1"/>
<circle cx="446.0" cy="210.0" r="5" fill="#ffffff" stroke="#cbd5e1" stroke-width="1"/>
<circle cx="474.0" cy="210.0" r="5" fill="#ffffff" stroke="#cbd5e1" stroke-width="1"/>
<circle cx="502.0" cy="210.0" r="5" fill="#ffffff" stroke="#cbd5e1" stroke-width="1"/>
<circle cx="530.0" cy="210.0" r="5" fill="#16a34a" stroke="#14532d" stroke-width="1"/>
<circle cx="558.0" cy="210.0" r="5" fill="#ffffff" stroke="#cbd5e1" stroke-width="1"/>
<circle cx="586.0" cy="210.0" r="5" fill="#ffffff" stroke="#cbd5e1" stroke-width="1"/>
<circle cx="614.0" cy="210.0" r="5" fill="#ffffff" stroke="#cbd5e1" stroke-width="1"/>
<circle cx="642.0" cy="210.0" r="5" fill="#ffffff" stroke="#cbd5e1" stroke-width="1"/>
<circle cx="670.0" cy="210.0" r="5" fill="#ffffff" stroke="#cbd5e1" stroke-width="1"/>
<circle cx="698.0" cy="210.0" r="5" fill="#ffffff" stroke="#cbd5e1" stroke-width="1"/>
<circle cx="726.0" cy="210.0" r="5" fill="#ffffff" stroke="#cbd5e1" stroke-width="1"/>
<circle cx="754.0" cy="210.0" r="5" fill="#16a34a" stroke="#14532d" stroke-width="1"/>
<circle cx="782.0" cy="210.0" r="5" fill="#ffffff" stroke="#cbd5e1" stroke-width="1"/>
<circle cx="810.0" cy="210.0" r="5" fill="#ffffff" stroke="#cbd5e1" stroke-width="1"/>
<circle cx="838.0" cy="210.0" r="5" fill="#ffffff" stroke="#cbd5e1" stroke-width="1"/>
<circle cx="26.0" cy="342.0" r="5" fill="#ffffff" stroke="#cbd5e1" stroke-width="1"/>
<circle cx="54.0" cy="342.0" r="5" fill="#ffffff" stroke="#cbd5e1" stroke-width="1"/>
<circle cx="82.0" cy="342.0" r="5" fill="#ffffff" stroke="#cbd5e1" stroke-width="1"/>
<circle cx="110.0" cy="342.0" r="5" fill="#16a34a" stroke="#14532d" stroke-width="1"/>
<circle cx="138.0" cy="342.0" r="5" fill="#ffffff" stroke="#cbd5e1" stroke-width="1"/>
<circle cx="166.0" cy="342.0" r="5" fill="#16a34a" stroke="#14532d" stroke-width="1"/>
<circle cx="194.0" cy="342.0" r="5" fill="#16a34a" stroke="#14532d" stroke-width="1"/>
<circle cx="222.0" cy="342.0" r="5" fill="#ffffff" stroke="#cbd5e1" stroke-width="1"/>
<circle cx="250.0" cy="342.0" r="5" fill="#16a34a" stroke="#14532d" stroke-width="1"/>
<circle cx="278.0" cy="342.0" r="5" fill="#ffffff" stroke="#cbd5e1" stroke-width="1"/>
<circle cx="306.0" cy="342.0" r="5" fill="#ffffff" stroke="#cbd5e1" stroke-width="1"/>
<circle cx="334.0" cy="342.0" r="5" fill="#ffffff" stroke="#cbd5e1" stroke-width="1"/>
<circle cx="362.0" cy="342.0" r="5" fill="#ffffff" stroke="#cbd5e1" stroke-width="1"/>
<circle cx="390.0" cy="342.0" r="5" fill="#16a34a" stroke="#14532d" stroke-width="1"/>
<circle cx="418.0" cy="342.0" r="5" fill="#2563eb" stroke="#1e3a8a" stroke-width="1"/>
<circle cx="446.0" cy="342.0" r="5" fill="hsl(141,65%,42%)" stroke="#374151" stroke-width="1"/>
<circle cx="474.0" cy="342.0" r="5" fill="hsl(141,65%,42%)" stroke="#374151" stroke-width="1"/>
<circle cx="502.0" cy="342.0" r="5" fill="hsl(141,65%,42%)" stroke="#374151" stroke-width="1"/>
<circle cx="530.0" cy="342.0" r="5" fill="#2563eb" stroke="#1e3a8a" stroke-width="1"/>
<circle cx="558.0" cy="342.0" r="5" fill="#ffffff" stroke="#cbd5e1" stroke-width="1"/>
<circle cx="586.0" cy="342.0" r="5" fill="#ffffff" stroke="#cbd5e1" stroke-width="1"/>
<circle cx="614.0" cy="342.0" r="5" fill="#ffffff" stroke="#cbd5e1" stroke-width="1"/>
<circle cx="642.0" cy="342.0" r="5" fill="#16a34a" stroke="#14532d" stroke-width="1"/>
<circle cx="670.0" cy="342.0" r="5" fill="#16a34a" stroke="#14532d" stroke-width="1"/>
<circle cx="698.0" cy="342.0" r="5" fill="#ffffff" stroke="#cbd5e1" stroke-width="1"/>
<circle cx="726.0" cy="342.0" r="5" fill="#16a34a" stroke="#14532d" stroke-width="1"/>
<circle cx="754.0" cy="342.0" r="5" fill="#16a34a" stroke="#14532d" stroke-width="1"/>
<circle cx="782.0" cy="342.0" r="5" fill="#ffffff" stroke="#cbd5e1" stroke-width="1"/>
<circle cx="810.0" cy="342.0" r="5" fill="#ffffff" stroke="#cbd5e1" stroke-width="1"/>
<circle cx="838.0" cy="342.0" r="5" fill="#ffffff" stroke="#cbd5e1" stroke-width="1"/>
<circle cx="26.0" cy="386.0" r="5" fill="#ffffff" stroke="#cbd5e1" stroke-width="1"/>
<circle cx="54.0" cy="386.0" r="5" fill="#ffffff" stroke="#cbd5e1" stroke-width="1"/>
<circle cx="82.0" cy="386.0" r="5" fill="#ffffff" stroke="#cbd5e1" stroke-width="1"/>
<circle cx="110.0" cy="386.0" r="5" fill="#2563eb" stroke="#1e3a8a" stroke-width="1"/>
<circle cx="138.0" cy="386.0" r="5" fill="#2563eb" stroke="#1e3a8a" stroke-width="1"/>
<circle cx="166.0" cy="386.0" r="5" fill="#ffffff" stroke="#cbd5e1" stroke-width="1"/>
<circle cx="194.0" cy="386.0" r="5" fill="#ffffff" stroke="#cbd5e1" stroke-width="1"/>
<circle cx="222.0" cy="386.0" r="5" fill="#ffffff" stroke="#cbd5e1" stroke-width="1"/>
<circle cx="250.0" cy="386.0" r="5" fill="#16a34a" stroke="#14532d" stroke-width="1"/>
<circle cx="278.0" cy="386.0" r="5" fill="#ffffff" stroke="#cbd5e1" stroke-width="1"/>
<circle cx="306.0" cy="386.0" r="5" fill="#ffffff" stroke="#cbd5e1" stroke-width="1"/>
<circle cx="334.0" cy="386.0" r="5" fill="#ffffff" stroke="#cbd5e1" stroke-width="1"/>
<circle cx="362.0" cy="386.0" r="5" fill="#16a34a" stroke="#14532d" stroke-width="1"/>
<circle cx="390.0" cy="386.0" r="5" fill="#ffffff" stroke="#cbd5e1" stroke-width="1"/>
<circle cx="418.0" cy="386.0" r="5" fill="#16a34a" stroke="#14532d" stroke-width="1"/>
<circle cx="446.0" cy="386.0" r="5" fill="#2563eb" stroke="#1e3a8a" stroke-width="1"/>
<circle cx="474.0" cy="386.0" r="5" fill="#2563eb" stroke="#1e3a8a" stroke-width="1"/>
<circle cx="502.0" cy="386.0" r="5" fill="#2563eb" stroke="#1e3a8a" stroke-width="1"/>
<circle cx="530.0" cy="386.0" r="5" fill="#ffffff" stroke="#cbd5e1" stroke-width="1"/>
<circle cx="558.0" cy="386.0" r="5" fill="#ffffff" stroke="#cbd5e1" stroke-width="1"/>
<circle cx="586.0" cy="386.0" r="5" fill="#ffffff" stroke="#cbd5e1" stroke-width="1"/>
<circle cx="614.0" cy="386.0" r="5" fill="#ffffff" stroke="#cbd5e1" stroke-width="1"/>
<circle cx="642.0" cy="386.0" r="5" fill="#ffffff" stroke="#cbd5e1" stroke-width="1"/>
<circle cx="670.0" cy="386.0" r="5" fill="#ffffff" stroke="#cbd5e1" stroke-width="1"/>
<circle cx="698.0" cy="386.0" r="5" fill="#ffffff" stroke="#cbd5e1" stroke-width="1"/>
<circle cx="726.0" cy="386.0" r="5" fill="#16a34a" stroke="#14532d" stroke-width="1"/>
<circle cx="754.0" cy="386.0" r="5" fill="#ffffff" stroke="#cbd5e1" stroke-width="1"/>
<circle cx="782.0" cy="386.0" r="5" fill="#ffffff" stroke="#cbd5e1" stroke-width="1"/>
<circle cx="810.0" cy="386.0" r="5" fill="#16a34a" stroke="#14532d" stroke-width="1"/>
<circle cx="838.0" cy="386.0" r="5" fill="#ffffff" stroke="#cbd5e1" stroke-width="1"/>
<circle cx="26.0" cy="430.0" r="5" fill="#ffffff" stroke="#cbd5e1" stroke-width="1"/>
<circle cx="54.0" cy="430.0" r="5" fill="#ffffff" stroke="#cbd5e1" stroke-width="1"/>
<circle cx="82.0" cy="430.0" r="5" fill="#ffffff" stroke="#cbd5e1" stroke-width="1"/>
<circle cx="110.0" cy="430.0" r="5" fill="#ffffff" stroke="#cbd5e1" stroke-width="1"/>
<circle cx="138.0" cy="430.0" r="5" fill="#ffffff" stroke="#cbd5e1" stroke-width="1"/>
<circle cx="166.0" cy="430.0" r="5" fill="#ffffff" stroke="#cbd5e1" stroke-width="1"/>
<circle cx="194.0" cy="430.0" r="5" fill="#ffffff" stroke="#cbd5e1" stroke-width="1"/>
<circle cx="222.0" cy="430.0" r="5" fill="#ffffff" stroke="#cbd5e1" stroke-width="1"/>
<circle cx="250.0" cy="430.0" r="5" fill="#ffffff" stroke="#cbd5e1" stroke-width="1"/>
<circle cx="278.0" cy="430.0" r="5" fill="#ffffff" stroke="#cbd5e1" stroke-width="1"/>
<circle cx="306.0" cy="430.0" r="5" fill="#2563eb" stroke="#1e3a8a" stroke-width="1"/>
<circle cx="334.0" cy="430.0" r="5" fill="hsl(94,65%,42%)" stroke="#374151" stroke-width="1"/>
<circle cx="362.0" cy="430.0" r="5" fill="hsl(94,65%,42%)" stroke="#374151" stroke-width="1"/>
<circle cx="390.0" cy="430.0" r="5" fill="hsl(94,65%,42%)" stroke="#374151" stroke-width="1"/>
<circle cx="418.0" cy="430.0" r="5" fill="#2563eb" stroke="#1e3a8a" stroke-width="1"/>
<circle cx="446.0" cy="430.0" r="5" fill="#ffffff" stroke="#cbd5e1" stroke-width="1"/>
<circle cx="474.0" cy="430.0" r="5" fill="#16a34a" stroke="#14532d" stroke-width="1"/>
<circle cx="502.0" cy="430.0" r="5" fill="#ffffff" stroke="#cbd5e1" stroke-width="1"/>
<circle cx="530.0" cy="430.0" r="5" fill="#ffffff" stroke="#cbd5e1" stroke-width="1"/>
<circle cx="558.0" cy="430.0" r="5" fill="#ffffff" stroke="#cbd5e1" stroke-width="1"/>
<circle cx="586.0" cy="430.0" r="5" fill="#ffffff" stroke="#cbd5e1" stroke-width="1"/>
<circle cx="614.0" cy="430.0" r="5" fill="#2563eb" stroke="#1e3a8a" stroke-width="1"/>
<circle cx="642.0" cy="430.0" r="5" fill="#2563eb" stroke="#1e3a8a" stroke-width="1"/>
<circle cx="670.0" cy="430.0" r="5" fill="#2563eb" stroke="#1e3a8a" stroke-width="1"/>
<circle cx="698.0" cy="430.0" r="5" fill="#ffffff" stroke="#cbd5e1" stroke-width="1"/>
<circle cx="726.0" cy="430.0" r="5" fill="#2563eb" stroke="#1e3a8a" stroke-width="1"/>
<circle cx="754.0" cy="430.0" r="5" fill="#2563eb" stroke="#1e3a8a" stroke-width="1"/>
<circle cx="782.0" cy="430.0" r="5" fill="#2563eb" stroke="#1e3a8a" stroke-width="1"/>
<circle cx="810.0" cy="430.0" r="5" fill="#ffffff" stroke="#cbd5e1" stroke-width="1"/>
<circle cx="838.0" cy="430.0" r="5" fill="#ffffff" stroke="#cbd5e1" stroke-width="1"/>
<circle cx="26.0" cy="474.0" r="5" fill="#ffffff" stroke="#cbd5e1" stroke-width="1"/>
<circle cx="54.0" cy="474.0" r="5" fill="#ffffff" stroke="#cbd5e1" stroke-width="1"/>
<circle cx="82.0" cy="474.0" r="5" fill="#ffffff" stroke="#cbd5e1" stroke-width="1"/>
<circle cx="110.0" cy="474.0" r="5" fill="#ffffff" stroke="#cbd5e1" stroke-width="1"/>
<circle cx="138.0" cy="474.0" r="5" fill="#ffffff" stroke="#cbd5e1" stroke-width="1"/>
<circle cx="166.0" cy="474.0" r="5" fill="#2563eb" stroke="#1e3a8a" stroke-width="1"/>
<circle cx="194.0" cy="474.0" r="5" fill="#2563eb" stroke="#1e3a8a" stroke-width="1"/>
<circle cx="222.0" cy="474.0" r="5" fill="#2563eb" stroke="#1e3a8a" stroke-width="1"/>
<circle cx="250.0" cy="474.0" r="5" fill="#2563eb" stroke="#1e3a8a" stroke-width="1"/>
<circle cx="278.0" cy="474.0" r="5" fill="#2563eb" stroke="#1e3a8a" stroke-width="1"/>
<circle cx="306.0" cy="474.0" r="5" fill="#ffffff" stroke="#cbd5e1" stroke-width="1"/>
<circle cx="334.0" cy="474.0" r="5" fill="#ffffff" stroke="#cbd5e1" stroke-width="1"/>
<circle cx="362.0" cy="474.0" r="5" fill="#2563eb" stroke="#1e3a8a" stroke-width="1"/>
<circle cx="390.0" cy="474.0" r="5" fill="#2563eb" stroke="#1e3a8a" stroke-width="1"/>
<circle cx="418.0" cy="474.0" r="5" fill="#16a34a" stroke="#14532d" stroke-width="1"/>
<circle cx="446.0" cy="474.0" r="5" fill="#16a34a" stroke="#14532d" stroke-width="1"/>
<circle cx="474.0" cy="474.0" r="5" fill="#ffffff" stroke="#cbd5e1" stroke-width="1"/>
<circle cx="502.0" cy="474.0" r="5" fill="#ffffff" stroke="#cbd5e1" stroke-width="1"/>
<circle cx="530.0" cy="474.0" r="5" fill="#ffffff" stroke="#cbd5e1" stroke-width="1"/>
<circle cx="558.0" cy="474.0" r="5" fill="#2563eb" stroke="#1e3a8a" stroke-width="1"/>
<circle cx="586.0" cy="474.0" r="5" fill="hsl(47,65%,42%)" stroke="#374151" stroke-width="1"/>
<circle cx="614.0" cy="474.0" r="5" fill="hsl(47,65%,42%)" stroke="#374151" stroke-width="1"/>
<circle cx="642.0" cy="474.0" r="5" fill="hsl(47,65%,42%)" stroke="#374151" stroke-width="1"/>
<circle cx="670.0" cy="474.0" r="5" fill="#2563eb" stroke="#1e3a8a" stroke-width="1"/>
<circle cx="698.0" cy="474.0" r="5" fill="#2563eb" stroke="#1e3a8a" stroke-width="1"/>
<circle cx="726.0" cy="474.0" r="5" fill="hsl(0,65%,42%)" stroke="#374151" stroke-width="1"/>
<circle cx="754.0" cy="474.0" r="5" fill="hsl(0,65%,42%)" stroke="#374151" stroke-width="1"/>
<circle cx="782.0" cy="474.0" r="5" fill="hsl(0,65%,42%)" stroke="#374151" stroke-width="1"/>
<circle cx="810.0" cy="474.0" r="5" fill="#2563eb" stroke="#1e3a8a" stroke-width="1"/>
<circle cx="838.0" cy="474.0" r="5" fill="#ffffff" stroke="#cbd5e1" stroke-width="1"/>
<circle cx="26.0" cy="518.0" r="5" fill="#ffffff" stroke="#cbd5e1" stroke-width="1"/>
<circle cx="54.0" cy="518.0" r="5" fill="#ffffff" stroke="#cbd5e1" stroke-width="1"/>
<circle cx="82.0" cy="518.0" r="5" fill="#ffffff" stroke="#cbd5e1" stroke-width="1"/>
<circle cx="110.0" cy="518.0" r="5" fill="#ffffff" stroke="#cbd5e1" stroke-width="1"/>
<circle cx="138.0" cy="518.0" r="5" fill="#ffffff" stroke="#cbd5e1" stroke-width="1"/>
<circle cx="166.0" cy="518.0" r="5" fill="#ffffff" stroke="#cbd5e1" stroke-width="1"/>
<circle cx="194.0" cy="518.0" r="5" fill="#ffffff" stroke="#cbd5e1" stroke-width="1"/>
<circle cx="222.0" cy="518.0" r="5" fill="#ffffff" stroke="#cbd5e1" stroke-width="1"/>
<circle cx="250.0" cy="518.0" r="5" fill="#ffffff" stroke="#cbd5e1" stroke-width="1"/>
<circle cx="278.0" cy="518.0" r="5" fill="#ffffff" stroke="#cbd5e1" stroke-width="1"/>
<circle cx="306.0" cy="518.0" r="5" fill="#ffffff" stroke="#cbd5e1" stroke-width="1"/>
<circle cx="334.0" cy="518.0" r="5" fill="#ffffff" stroke="#cbd5e1" stroke-width="1"/>
<circle cx="362.0" cy="518.0" r="5" fill="#ffffff" stroke="#cbd5e1" stroke-width="1"/>
<circle cx="390.0" cy="518.0" r="5" fill="#ffffff" stroke="#cbd5e1" stroke-width="1"/>
<circle cx="418.0" cy="518.0" r="5" fill="#ffffff" stroke="#cbd5e1" stroke-width="1"/>
<circle cx="446.0" cy="518.0" r="5" fill="#ffffff" stroke="#cbd5e1" stroke-width="1"/>
<circle cx="474.0" cy="518.0" r="5" fill="#ffffff" stroke="#cbd5e1" stroke-width="1"/>
<circle cx="502.0" cy="518.0" r="5" fill="#ffffff" stroke="#cbd5e1" stroke-width="1"/>
<circle cx="530.0" cy="518.0" r="5" fill="#ffffff" stroke="#cbd5e1" stroke-width="1"/>
<circle cx="558.0" cy="518.0" r="5" fill="#ffffff" stroke="#cbd5e1" stroke-width="1"/>
<circle cx="586.0" cy="518.0" r="5" fill="#ffffff" stroke="#cbd5e1" stroke-width="1"/>
<circle cx="614.0" cy="518.0" r="5" fill="#ffffff" stroke="#cbd5e1" stroke-width="1"/>
<circle cx="642.0" cy="518.0" r="5" fill="#ffffff" stroke="#cbd5e1" stroke-width="1"/>
<circle cx="670.0" cy="518.0" r="5" fill="#ffffff" stroke="#cbd5e1" stroke-width="1"/>
<circle cx="698.0" cy="518.0" r="5" fill="#ffffff" stroke="#cbd5e1" stroke-width="1"/>
<circle cx="726.0" cy="518.0" r="5" fill="#ffffff" stroke="#cbd5e1" stroke-width="1"/>
<circle cx="754.0" cy="518.0" r="5" fill="#ffffff" stroke="#cbd5e1" stroke-width="1"/>
<circle cx="782.0" cy="518.0" r="5" fill="#ffffff" stroke="#cbd5e1" stroke-width="1"/>
<circle cx="810.0" cy="518.0" r="5" fill="#ffffff" stroke="#cbd5e1" stroke-width="1"/>
<circle cx="838.0" cy="518.0" r="5" fill="#ffffff" stroke="#cbd5e1" stroke-width="1"/>
</svg>
