<svg xmlns="http://www.w3.org/2000/svg" viewBox="0 0 864 552" font-family="sans-serif">
<rect width="100%" height="100%" fill="#fafafa"/>
<rect x="12" y="232" width="840" height="88" fill="#e2e8f0" stroke="#94a3b8" stroke-width="0.5"/>
<rect x="712.0" y="452.0" width="140.0" height="44.0" rx="4" fill="hsl(0,65%,42%)" fill-opacity="0.18" stroke="hsl(0,65%,42%)" stroke-width="1.5"/>
<text x="782.0" y="474.0" font-size="13" font-weight="bold" fill="hsl(0,65%,42%)" text-anchor="middle" dominant-baseline="central">D1</text>
<rect x="572.0" y="452.0" width="140.0" height="44.0" rx="4" fill="hsl(47,65%,42%)" fill-opacity="0.18" stroke="hsl(47,65%,42%)" stroke-width="1.5"/>
<text x="642.0" y="474.0" font-size="13" font-weight="bold" fill="hsl(47,65%,42%)" text-anchor="middle" dominant-baseline="central">D2</text>
<rect x="180.0" y="56.0" width="140.0" height="44.0" rx="4" fill="hsl(94,65%,42%)" fill-opacity="0.18" stroke="hsl(94,65%,42%)" stroke-width="1.5"/>
<text x="250.0" y="78.0" font-size="13" font-weight="bold" fill="hsl(94,65%,42%)" text-anchor="middle" dominant-baseline="central">D3</text>
<rect x="264.0" y="144.0" width="140.0" height="44.0" rx="4" fill="hsl(141,65%,42%)" fill-opacity="0.18" stroke="hsl(141,65%,42%)" stroke-width="1.5"/>
<text x="334.0" y="166.0" font-size="13" font-weight="bold" fill="hsl(141,65%,42%)" text-anchor="middle" dominant-baseline="central">D4</text>
<rect x="628.0" y="408.0" width="84.0" height="44.0" rx="4" fill="hsl(188,65%,42%)" fill-opacity="0.18" stroke="hsl(188,65%,42%)" stroke-width="1.5"/>
<text x="670.0" y="430.0" font-size="13" font-weight="bold" fill="hsl(188,65%,42%)" text-anchor="middle" dominant-baseline="central">Q1</text>
<rect x="124.0" y="452.0" width="84.0" height="44.0" rx="4" fill="hsl(235,65%,42%)" fill-opacity="0.18" stroke="hsl(235,65%,42%)" stroke-width="1.5"/>
<text x="166.0" y="474.0" font-size="13" font-weight="bold" fill="hsl(235,65%,42%)" text-anchor="middle" dominant-baseline="central">Q2</text>
<rect x="740.0" y="364.0" width="84.0" height="44.0" rx="4" fill="hsl(282,65%,42%)" fill-opacity="0.18" stroke="hsl(282,65%,42%)" stroke-width="1.5"/>
<text x="782.0" y="386.0" font-size="13" font-weight="bold" fill="hsl(282,65%,42%)" text-anchor="middle" dominant-baseline="central">Q3</text>
<rect x="544.0" y="56.0" width="84.0" height="44.0" rx="4" fill="hsl(329,65%,42%)" fill-opacity="0.18" stroke="hsl(329,65%,42%)" stroke-width="1.5"/>
<text x="586.0" y="78.0" font-size="13" font-weight="bold" fill="hsl(329,65%,42%)" text-anchor="middle" dominant-baseline="central">Q4</text>
<rect x="460.0" y="452.0" width="84.0" height="44.0" rx="4" fill="hsl(16,65%,42%)" fill-opacity="0.18" stroke="hsl(16,65%,42%)" stroke-width="1.5"/>
<text x="502.0" y="474.0" font-size="13" font-weight="bold" fill="hsl(16,65%,42%)" text-anchor="middle" dominant-baseline="central">Q5</text>
<rect x="236.0" y="364.0" width="84.0" height="44.0" rx="4" fill="hsl(63,65%,42%)" fill-opacity="0.18" stroke="hsl(63,65%,42%)" stroke-width="1.5"/>
<text x="278.0" y="386.0" font-size="13" font-weight="bold" fill="hsl(63,65%,42%)" text-anchor="middle" dominant-baseline="central">Q6</text>
<rect x="40.0" y="452.0" width="56.0" height="44.0" rx="4" fill="hsl(110,65%,42%)" fill-opacity="0.18" stroke="hsl(110,65%,42%)" stroke-width="1.5"/>
<text x="68.0" y="474.0" font-size="13" font-weight="bold" fill="hsl(110,65%,42%)" text-anchor="middle" dominant-baseline="central">R2</text>
<rect x="320.0" y="188.0" width="56.0" height="44.0" rx="4" fill="hsl(157,65%,42%)" fill-opacity="0.18" stroke="hsl(157,65%,42%)" stroke-width="1.5"/>
<text x="348.0" y="210.0" font-size="13" font-weight="bold" fill="hsl(157,65%,42%)" text-anchor="middle" dominant-baseline="central">R3</text>
<rect x="320.0" y="452.0" width="56.0" height="44.0" rx="4" fill="hsl(204,65%,42%)" fill-opacity="0.18" stroke="hsl(204,65%,42%)" stroke-width="1.5"/>
<text x="348.0" y="474.0" font-size="13" font-weight="bold" fill="hsl(204,65%,42%)" text-anchor="middle" dominant-baseline="central">R4</text>
<rect x="712.0" y="188.0" width="56.0" height="44.0" rx="4" fill="hsl(251,65%,42%)" fill-opacity="0.18" stroke="hsl(251,65%,42%)" stroke-width="1.5"/>
<text x="740.0" y="210.0" font-size="13" font-weight="bold" fill="hsl(251,65%,42%)" text-anchor="middle" dominant-baseline="central">R5</text>
<rect x="460.0" y="56.0" width="56.0" height="44.0" rx="4" fill="hsl(298,65%,42%)" fill-opacity="0.18" stroke="hsl(298,65%,42%)" stroke-width="1.5"/>
<text x="488.0" y="78.0" font-size="13" font-weight="bold" fill="hsl(298,65%,42%)" text-anchor="middle" dominant-baseline="central">R6</text>
<rect x="404.0" y="188.0" width="56.0" height="44.0" rx="4" fill="hsl(345,65%,42%)" fill-opacity="0.18" stroke="hsl(345,65%,42%)" stroke-width="1.5"/>
<text x="432.0" y="210.0" font-size="13" font-weight="bold" fill="hsl(345,65%,42%)" text-anchor="middle" dominant-baseline="central">R7</text>
<rect x="628.0" y="188.0" width="56.0" height="44.0" rx="4" fill="hsl(32,65%,42%)" fill-opacity="0.18" stroke="hsl(32,65%,42%)" stroke-width="1.5"/>
<text x="656.0" y="210.0" font-size="13" font-weight="bold" fill="hsl(32,65%,42%)" text-anchor="middle" dominant-baseline="central">R8</text>
<rect x="516.0" y="188.0" width="56.0" height="44.0" rx="4" fill="hsl(79,65%,42%)" fill-opacity="0.18" stroke="hsl(79,65%,42%)" stroke-width="1.5"/>
<text x="544.0" y="210.0" font-size="13" font-weight="bold" fill="hsl(79,65%,42%)" text-anchor="middle" dominant-baseline="central">R9</text>
<path d="M 698.0 342.0 L 698.0 360.2 L 754.0 360.2 L 754.0 342.0" fill="none" stroke="hsl(0,65%,48%)" stroke-width="2" stroke-linecap="round" stroke-linejoin="round" opacity="0.9"/>
<text x="726.0" y="360.2" font-size="9" fill="hsl(0,65%,48%)" stroke="#fafafa" stroke-width="3" paint-order="stroke" stroke-linejoin="round" text-anchor="middle" dominant-baseline="central">Net-(D1-A)</text>
<path d="M 754.0 430.0 L 754.0 445.7 L 838.0 445.7 L 838.0 430.0" fill="none" stroke="hsl(0,65%,48%)" stroke-width="2" stroke-linecap="round" stroke-linejoin="round" opacity="0.9"/>
<text x="796.0" y="445.7" font-size="9" fill="hsl(0,65%,48%)" stroke="#fafafa" stroke-width="3" paint-order="stroke" stroke-linejoin="round" text-anchor="middle" dominant-baseline="central">Net-(D1-A)</text>
<path d="M 278.0 34.0 L 278.0 42.2 L 306.0 42.2 L 306.0 34.0" fill="none" stroke="hsl(73,65%,48%)" stroke-width="2" stroke-linecap="round" stroke-linejoin="round" opacity="0.9"/>
<text x="292.0" y="42.2" font-size="9" fill="hsl(73,65%,48%)" stroke="#fafafa" stroke-width="3" paint-order="stroke" stroke-linejoin="round" text-anchor="middle" dominant-baseline="central">Net-(D3-A)</text>
<line x1="250.0" y1="342.0" x2="278.0" y2="210.0" stroke="hsl(73,65%,48%)" stroke-width="2" stroke-linecap="round" opacity="0.9"/>
<text x="264.0" y="276.0" font-size="9" fill="hsl(73,65%,48%)" stroke="#fafafa" stroke-width="3" paint-order="stroke" stroke-linejoin="round" text-anchor="middle" dominant-baseline="central">Net-(D3-A)</text>
<path d="M 250.0 430.0 L 250.0 440.7 L 474.0 440.7 L 474.0 430.0" fill="none" stroke="hsl(73,65%,48%)" stroke-width="2" stroke-linecap="round" stroke-linejoin="round" opacity="0.9"/>
<text x="362.0" y="440.7" font-size="9" fill="hsl(73,65%,48%)" stroke="#fafafa" stroke-width="3" paint-order="stroke" stroke-linejoin="round" text-anchor="middle" dominant-baseline="central">Net-(D3-A)</text>
<path d="M 362.0 342.0 L 362.0 355.2 L 670.0 355.2 L 670.0 342.0" fill="none" stroke="hsl(146,65%,48%)" stroke-width="2" stroke-linecap="round" stroke-linejoin="round" opacity="0.9"/>
<text x="516.0" y="355.2" font-size="9" fill="hsl(146,65%,48%)" stroke="#fafafa" stroke-width="3" paint-order="stroke" stroke-linejoin="round" text-anchor="middle" dominant-baseline="central">Net-(Q1-B)</text>
<path d="M 82.0 342.0 L 82.0 350.2 L 166.0 350.2 L 166.0 342.0" fill="none" stroke="hsl(219,65%,48%)" stroke-width="2" stroke-linecap="round" stroke-linejoin="round" opacity="0.9"/>
<text x="124.0" y="350.2" font-size="9" fill="hsl(219,65%,48%)" stroke="#fafafa" stroke-width="3" paint-order="stroke" stroke-linejoin="round" text-anchor="middle" dominant-baseline="central">Net-(Q2-B)</text>
<line x1="334.0" y1="122.0" x2="334.0" y2="342.0" stroke="hsl(292,65%,48%)" stroke-width="2" stroke-linecap="round" opacity="0.9"/>
<text x="334.0" y="232.0" font-size="9" fill="hsl(292,65%,48%)" stroke="#fafafa" stroke-width="3" paint-order="stroke" stroke-linejoin="round" text-anchor="middle" dominant-baseline="central">Net-(Q2-C)</text>
<path d="M 138.0 386.0 L 138.0 399.2 L 334.0 399.2 L 334.0 386.0" fill="none" stroke="hsl(292,65%,48%)" stroke-width="2" stroke-linecap="round" stroke-linejoin="round" opacity="0.9"/>
<text x="236.0" y="399.2" font-size="9" fill="hsl(292,65%,48%)" stroke="#fafafa" stroke-width="3" paint-order="stroke" stroke-linejoin="round" text-anchor="middle" dominant-baseline="central">Net-(Q2-C)</text>
<line x1="726.0" y1="166.0" x2="782.0" y2="342.0" stroke="hsl(5,65%,48%)" stroke-width="2" stroke-linecap="round" opacity="0.9"/>
<text x="754.0" y="254.0" font-size="9" fill="hsl(5,65%,48%)" stroke="#fafafa" stroke-width="3" paint-order="stroke" stroke-linejoin="round" text-anchor="middle" dominant-baseline="central">Net-(Q3-B)</text>
<path d="M 474.0 34.0 L 474.0 52.2 L 586.0 52.2 L 586.0 34.0" fill="none" stroke="hsl(78,65%,48%)" stroke-width="2" stroke-linecap="round" stroke-linejoin="round" opacity="0.9"/>
<text x="530.0" y="52.2" font-size="9" fill="hsl(78,65%,48%)" stroke="#fafafa" stroke-width="3" paint-order="stroke" stroke-linejoin="round" text-anchor="middle" dominant-baseline="central">Net-(Q4-B)</text>
<path d="M 446.0 34.0 L 446.0 47.2 L 558.0 47.2 L 558.0 34.0" fill="none" stroke="hsl(151,65%,48%)" stroke-width="2" stroke-linecap="round" stroke-linejoin="round" opacity="0.9"/>
<text x="502.0" y="47.2" font-size="9" fill="hsl(151,65%,48%)" stroke="#fafafa" stroke-width="3" paint-order="stroke" stroke-linejoin="round" text-anchor="middle" dominant-baseline="central">Net-(Q4-C)</text>
<line x1="502.0" y1="342.0" x2="530.0" y2="166.0" stroke="hsl(224,65%,48%)" stroke-width="2" stroke-linecap="round" opacity="0.9"/>
<text x="516.0" y="254.0" font-size="9" fill="hsl(224,65%,48%)" stroke="#fafafa" stroke-width="3" paint-order="stroke" stroke-linejoin="round" text-anchor="middle" dominant-baseline="central">Net-(Q5-B)</text>
<line x1="278.0" y1="342.0" x2="642.0" y2="166.0" stroke="hsl(297,65%,48%)" stroke-width="2" stroke-linecap="round" opacity="0.9"/>
<text x="460.0" y="254.0" font-size="9" fill="hsl(297,65%,48%)" stroke="#fafafa" stroke-width="3" paint-order="stroke" stroke-linejoin="round" text-anchor="middle" dominant-baseline="central">Net-(Q6-B)</text>
<circle cx="26.0" cy="34.0" r="5" fill="#ffffff" stroke="#cbd5e1" stroke-width="1"/>
<circle cx="54.0" cy="34.0" r="5" fill="#ffffff" stroke="#cbd5e1" stroke-width="1"/>
<circle cx="82.0" cy="34.0" r="5" fill="#ffffff" stroke="#cbd5e1" stroke-width="1"/>
<circle cx="110.0" cy="34.0" r="5" fill="#ffffff" stroke="#cbd5e1" stroke-width="1"/>
<circle cx="138.0" cy="34.0" r="5" fill="#ffffff" stroke="#cbd5e1" stroke-width="1"/>
<circle cx="166.0" cy="34.0" r="5" fill="#ffffff" stroke="#cbd5e1" stroke-width="1"/>
<circle cx="194.0" cy="34.0" r="5" fill="#ffffff" stroke="#cbd5e1" stroke-width="1"/>
<circle cx="222.0" cy="34.0" r="5" fill="#ffffff" stroke="#cbd5e1" stroke-width="1"/>
<circle cx="250.0" cy="34.0" r="5" fill="#ffffff" stroke="#cbd5e1" stroke-width="1"/>
<circle cx="278.0" cy="34.0" r="5" fill="#16a34a" stroke="#14532d" stroke-width="1"/>
<circle cx="306.0" cy="34.0" r="5" fill="#16a34a" stroke="#14532d" stroke-width="1"/>
<circle cx="334.0" cy="34.0" r="5" fill="#ffffff" stroke="#cbd5e1" stroke-width="1"/>
<circle cx="362.0" cy="34.0" r="5" fill="#ffffff" stroke="#cbd5e1" stroke-width="1"/>
<circle cx="390.0" cy="34.0" r="5" fill="#ffffff" stroke="#cbd5e1" stroke-width="1"/>
<circle cx="418.0" cy="34.0" r="5" fill="#ffffff" stroke="#cbd5e1" stroke-width="1"/>
<circle cx="446.0" cy="34.0" r="5" fill="#16a34a" stroke="#14532d" stroke-width="1"/>
<circle cx="474.0" cy="34.0" r="5" fill="#16a34a" stroke="#14532d" stroke-width="1"/>
<circle cx="502.0" cy="34.0" r="5" fill="#ffffff" stroke="#cbd5e1" stroke-width="1"/>
<circle cx="530.0" cy="34.0" r="5" fill="#ffffff" stroke="#cbd5e1" stroke-width="1"/>
<circle cx="558.0" cy="34.0" r="5" fill="#16a34a" stroke="#14532d" stroke-width="1"/>
<circle cx="586.0" cy="34.0" r="5" fill="#16a34a" stroke="#14532d" stroke-width="1"/>
<circle cx="614.0" cy="34.0" r="5" fill="#ffffff" stroke="#cbd5e1" stroke-width="1"/>
<circle cx="642.0" cy="34.0" r="5" fill="#ffffff" stroke="#cbd5e1" stroke-width="1"/>
<circle cx="670.0" cy="34.0" r="5" fill="#ffffff" stroke="#cbd5e1" stroke-width="1"/>
<circle cx="698.0" cy="34.0" r="5" fill="#ffffff" stroke="#cbd5e1" stroke-width="1"/>
<circle cx="726.0" cy="34.0" r="5" fill="#ffffff" stroke="#cbd5e1" stroke-width="1"/>
<circle cx="754.0" cy="34.0" r="5" fill="#ffffff" stroke="#cbd5e1" stroke-width="1"/>
<circle cx="782.0" cy="34.0" r="5" fill="#ffffff" stroke="#cbd5e1" stroke-width="1"/>
<circle cx="810.0" cy="34.0" r="5" fill="#ffffff" stroke="#cbd5e1" stroke-width="1"/>
<circle cx="838.0" cy="34.0" r="5" fill="#ffffff" stroke="#cbd5e1" stroke-width="1"/>
<circle cx="26.0" cy="78.0" r="5" fill="#ffffff" stroke="#cbd5e1" stroke-width="1"/>
<circle cx="54.0" cy="78.0" r="5" fill="#ffffff" stroke="#cbd5e1" stroke-width="1"/>
<circle cx="82.0" cy="78.0" r="5" fill="#ffffff" stroke="#cbd5e1" stroke-width="1"/>
<circle cx="110.0" cy="78.0" r="5" fill="#ffffff" stroke="#cbd5e1" stroke-width="1"/>
<circle cx="138.0" cy="78.0" r="5" fill="#ffffff" stroke="#cbd5e1" stroke-width="1"/>
<circle cx="166.0" cy="78.0" r="5" fill="#ffffff" stroke="#cbd5e1" stroke-width="1"/>
<circle cx="194.0" cy="78.0" r="5" fill="#2563eb" stroke="#1e3a8a" stroke-width="1"/>
<circle cx="222.0" cy="78.0" r="5" fill="hsl(94,65%,42%)" stroke="#374151" stroke-width="1"/>
<circle cx="250.0" cy="78.0" r="5" fill="hsl(94,65%,42%)" stroke="#374151" stroke-width="1"/>
<circle cx="278.0" cy="78.0" r="5" fill="hsl(94,65%,42%)" stroke="#374151" stroke-width="1"/>
<circle cx="306.0" cy="78.0" r="5" fill="#2563eb" stroke="#1e3a8a" stroke-width="1"/>
<circle cx="334.0" cy="78.0" r="5" fill="#ffffff" stroke="#cbd5e1" stroke-width="1"/>
<circle cx="362.0" cy="78.0" r="5" fill="#ffffff" stroke="#cbd5e1" stroke-width="1"/>
<circle cx="390.0" cy="78.0" r="5" fill="#ffffff" stroke="#cbd5e1" stroke-width="1"/>
<circle cx="418.0" cy="78.0" r="5" fill="#ffffff" stroke="#cbd5e1" stroke-width="1"/>
<circle cx="446.0" cy="78.0" r="5" fill="#ffffff" stroke="#cbd5e1" stroke-width="1"/>
<circle cx="474.0" cy="78.0" r="5" fill="#2563eb" stroke="#1e3a8a" stroke-width="1"/>
<circle cx="502.0" cy="78.0" r="5" fill="#2563eb" stroke="#1e3a8a" stroke-width="1"/>
<circle cx="530.0" cy="78.0" r="5" fill="#ffffff" stroke="#cbd5e1" stroke-width="1"/>
<circle cx="558.0" cy="78.0" r="5" fill="#2563eb" stroke="#1e3a8a" stroke-width="1"/>
<circle cx="586.0" cy="78.0" r="5" fill="#2563eb" stroke="#1e3a8a" stroke-width="1"/>
<circle cx="614.0" cy="78.0" r="5" fill="#2563eb" stroke="#1e3a8a" stroke-width="1"/>
<circle cx="642.0" cy="78.0" r="5" fill="#ffffff" stroke="#cbd5e1" stroke-width="1"/>
<circle cx="670.0" cy="78.0" r="5" fill="#ffffff" stroke="#cbd5e1" stroke-width="1"/>
<circle cx="698.0" cy="78.0" r="5" fill="#ffffff" stroke="#cbd5e1" stroke-width="1"/>
<circle cx="726.0" cy="78.0" r="5" fill="#ffffff" stroke="#cbd5e1" stroke-width="1"/>
<circle cx="754.0" cy="78.0" r="5" fill="#ffffff" stroke="#cbd5e1" stroke-width="1"/>
<circle cx="782.0" cy="78.0" r="5" fill="#ffffff" stroke="#cbd5e1" stroke-width="1"/>
<circle cx="810.0" cy="78.0" r="5" fill="#ffffff" stroke="#cbd5e1" stroke-width="1"/>
<circle cx="838.0" cy="78.0" r="5" fill="#ffffff" stroke="#cbd5e1" stroke-width="1"/>
<circle cx="26.0" cy="122.0" r="5" fill="#ffffff" stroke="#cbd5e1" stroke-width="1"/>
<circle cx="54.0" cy="122.0" r="5" fill="#ffffff" stroke="#cbd5e1" stroke-width="1"/>
<circle cx="82.0" cy="122.0" r="5" fill="#ffffff" stroke="#cbd5e1" stroke-width="1"/>
<circle cx="110.0" cy="122.0" r="5" fill="#ffffff" stroke="#cbd5e1" stroke-width="1"/>
<circle cx="138.0" cy="122.0" r="5" fill="#ffffff" stroke="#cbd5e1" stroke-width="1"/>
<circle cx="166.0" cy="122.0" r="5" fill="#ffffff" stroke="#cbd5e1" stroke-width="1"/>
<circle cx="194.0" cy="122.0" r="5" fill="#ffffff" stroke="#cbd5e1" stroke-width="1"/>
<circle cx="222.0" cy="122.0" r="5" fill="#ffffff" stroke="#cbd5e1" stroke-width="1"/>
<circle cx="250.0" cy="122.0" r="5" fill="#ffffff" stroke="#cbd5e1" stroke-width="1"/>
<circle cx="278.0" cy="122.0" r="5" fill="#ffffff" stroke="#cbd5e1" stroke-width="1"/>
<circle cx="306.0" cy="122.0" r="5" fill="#ffffff" stroke="#cbd5e1" stroke-width="1"/>
<circle cx="334.0" cy="122.0" r="5" fill="#16a34a" stroke="#14532d" stroke-width="1"/>
<circle cx="362.0" cy="122.0" r="5" fill="#ffffff" stroke="#cbd5e1" stroke-width="1"/>
<circle cx="390.0" cy="122.0" r="5" fill="#ffffff" stroke="#cbd5e1" stroke-width="1"/>
<circle cx="418.0" cy="122.0" r="5" fill="#ffffff" stroke="#cbd5e1" stroke-width="1"/>
<circle cx="446.0" cy="122.0" r="5" fill="#ffffff" stroke="#cbd5e1" stroke-width="1"/>
<circle cx="474.0" cy="122.0" r="5" fill="#ffffff" stroke="#cbd5e1" stroke-width="1"/>
<circle cx="502.0" cy="122.0" r="5" fill="#ffffff" stroke="#cbd5e1" stroke-width="1"/>
<circle cx="530.0" cy="122.0" r="5" fill="#ffffff" stroke="#cbd5e1" stroke-width="1"/>
<circle cx="558.0" cy="122.0" r="5" fill="#ffffff" stroke="#cbd5e1" stroke-width="1"/>
<circle cx="586.0" cy="122.0" r="5" fill="#ffffff" stroke="#cbd5e1" stroke-width="1"/>
<circle cx="614.0" cy="122.0" r="5" fill="#ffffff" stroke="#cbd5e1" stroke-width="1"/>
<circle cx="642.0" cy="122.0" r="5" fill="#ffffff" stroke="#cbd5e1" stroke-width="1"/>
<circle cx="670.0" cy="122.0" r="5" fill="#ffffff" stroke="#cbd5e1" stroke-width="1"/>
<circle cx="698.0" cy="122.0" r="5" fill="#ffffff" stroke="#cbd5e1" stroke-width="1"/>
<circle cx="726.0" cy="122.0" r="5" fill="#ffffff" stroke="#cbd5e1" stroke-width="1"/>
<circle cx="754.0" cy="122.0" r="5" fill="#ffffff" stroke="#cbd5e1" stroke-width="1"/>
<circle cx="782.0" cy="122.0" r="5" fill="#ffffff" stroke="#cbd5e1" stroke-width="1"/>
<circle cx="810.0" cy="122.0" r="5" fill="#ffffff" stroke="#cbd5e1" stroke-width="1"/>
<circle cx="838.0" cy="122.0" r="5" fill="#ffffff" stroke="#cbd5e1" stroke-width="1"/>
<circle cx="26.0" cy="166.0" r="5" fill="#ffffff" stroke="#cbd5e1" stroke-width="1"/>
<circle cx="54.0" cy="166.0" r="5" fill="#ffffff" stroke="#cbd5e1" stroke-width="1"/>
<circle cx="82.0" cy="166.0" r="5" fill="#ffffff" stroke="#cbd5e1" stroke-width="1"/>
<circle cx="110.0" cy="166.0" r="5" fill="#ffffff" stroke="#cbd5e1" stroke-width="1"/>
<circle cx="138.0" cy="166.0" r="5" fill="#ffffff" stroke="#cbd5e1" stroke-width="1"/>
<circle cx="166.0" cy="166.0" r="5" fill="#ffffff" stroke="#cbd5e1" stroke-width="1"/>
<circle cx="194.0" cy="166.0" r="5" fill="#ffffff" stroke="#cbd5e1" stroke-width="1"/>
<circle cx="222.0" cy="166.0" r="5" fill="#ffffff" stroke="#cbd5e1" stroke-width="1"/>
<circle cx="250.0" cy="166.0" r="5" fill="#ffffff" stroke="#cbd5e1" stroke-width="1"/>
<circle cx="278.0" cy="166.0" r="5" fill="#2563eb" stroke="#1e3a8a" stroke-width="1"/>
<circle cx="306.0" cy="166.0" r="5" fill="hsl(141,65%,42%)" stroke="#374151" stroke-width="1"/>
<circle cx="334.0" cy="166.0" r="5" fill="hsl(141,65%,42%)" stroke="#374151" stroke-width="1"/>
<circle cx="362.0" cy="166.0" r="5" fill="hsl(141,65%,42%)" stroke="#374151" stroke-width="1"/>
<circle cx="390.0" cy="166.0" r="5" fill="#2563eb" stroke="#1e3a8a" stroke-width="1"/>
<circle cx="418.0" cy="166.0" r="5" fill="#ffffff" stroke="#cbd5e1" stroke-width="1"/>
<circle cx="446.0" cy="166.0" r="5" fill="#ffffff" stroke="#cbd5e1" stroke-width="1"/>
<circle cx="474.0" cy="166.0" r="5" fill="#ffffff" stroke="#cbd5e1" stroke-width="1"/>
<circle cx="502.0" cy="166.0" r="5" fill="#ffffff" stroke="#cbd5e1" stroke-width="1"/>
<circle cx="530.0" cy="166.0" r="5" fill="#16a34a" stroke="#14532d" stroke-width="1"/>
<circle cx="558.0" cy="166.0" r="5" fill="#ffffff" stroke="#cbd5e1" stroke-width="1"/>
<circle cx="586.0" cy="166.0" r="5" fill="#ffffff" stroke="#cbd5e1" stroke-width="1"/>
<circle cx="614.0" cy="166.0" r="5" fill="#ffffff" stroke="#cbd5e1" stroke-width="1"/>
<circle cx="642.0" cy="166.0" r="5" fill="#16a34a" stroke="#14532d" stroke-width="1"/>
<circle cx="670.0" cy="166.0" r="5" fill="#ffffff" stroke="#cbd5e1" stroke-width="1"/>
<circle cx="698.0" cy="166.0" r="5" fill="#ffffff" stroke="#cbd5e1" stroke-width="1"/>
<circle cx="726.0" cy="166.0" r="5" fill="#16a34a" stroke="#14532d" stroke-width="1"/>
<circle cx="754.0" cy="166.0" r="5" fill="#ffffff" stroke="#cbd5e1" stroke-width="1"/>
<circle cx="782.0" cy="166.0" r="5" fill="#ffffff" stroke="#cbd5e1" stroke-width="1"/>
<circle cx="810.0" cy="166.0" r="5" fill="#ffffff" stroke="#cbd5e1" stroke-width="1"/>
<circle cx="838.0" cy="166.0" r="5" fill="#ffffff" stroke="#cbd5e1" stroke-width="1"/>
<circle cx="26.0" cy="210.0" r="5" fill="#ffffff" stroke="#cbd5e1" stroke-width="1"/>
<circle cx="54.0" cy="210.0" r="5" fill="#ffffff" stroke="#cbd5e1" stroke-width="1"/>
<circle cx="82.0" cy="210.0" r="5" fill="#ffffff" stroke="#cbd5e1" stroke-width="1"/>
<circle cx="110.0" cy="210.0" r="5" fill="#ffffff" stroke="#cbd5e1" stroke-width="1"/>
<circle cx="138.0" cy="210.0" r="5" fill="#ffffff" stroke="#cbd5e1" stroke-width="1"/>
<circle cx="166.0" cy="210.0" r="5" fill="#ffffff" stroke="#cbd5e1" stroke-width="1"/>
<circle cx="194.0" cy="210.0" r="5" fill="#ffffff" stroke="#cbd5e1" stroke-width="1"/>
<circle cx="222.0" cy="210.0" r="5" fill="#ffffff" stroke="#cbd5e1" stroke-width="1"/>
<circle cx="250.0" cy="210.0" r="5" fill="#ffffff" stroke="#cbd5e1" stroke-width="1"/>
<circle cx="278.0" cy="210.0" r="5" fill="#16a34a" stroke="#14532d" stroke-width="1"/>
<circle cx="306.0" cy="210.0" r="5" fill="#ffffff" stroke="#cbd5e1" stroke-width="1"/>
<circle cx="334.0" cy="210.0" r="5" fill="#2563eb" stroke="#1e3a8a" stroke-width="1"/>
<circle cx="362.0" cy="210.0" r="5" fill="#2563eb" stroke="#1e3a8a" stroke-width="1"/>
<circle cx="390.0" cy="210.0" r="5" fill="#ffffff" stroke="#cbd5e1" stroke-width="1"/>
<circle cx="418.0" cy="210.0" r="5" fill="#2563eb" stroke="#1e3a8a" stroke-width="1"/>
<circle cx="446.0" cy="210.0" r="5" fill="#2563eb" stroke="#1e3a8a" stroke-width="1"/>
<circle cx="474.0" cy="210.0" r="5" fill="#ffffff" stroke="#cbd5e1" stroke-width="1"/>
<circle cx="502.0" cy="210.0" r="5" fill="#ffffff" stroke="#cbd5e1" stroke-width="1"/>
<circle cx="530.0" cy="210.0" r="5" fill="#2563eb" stroke="#1e3a8a" stroke-width="1"/>
<circle cx="558.0" cy="210.0" r="5" fill="#2563eb" stroke="#1e3a8a" stroke-width="1"/>
<circle cx="586.0" cy="210.0" r="5" fill="#ffffff" stroke="#cbd5e1" stroke-width="1"/>
<circle cx="614.0" cy="210.0" r="5" fill="#ffffff" stroke="#cbd5e1" stroke-width="1"/>
<circle cx="642.0" cy="210.0" r="5" fill="#2563eb" stroke="#1e3a8a" stroke-width="1"/>
<circle cx="670.0" cy="210.0" r="5" fill="#2563eb" stroke="#1e3a8a" stroke-width="1"/>
<circle cx="698.0" cy="210.0" r="5" fill="#ffffff" stroke="#cbd5e1" stroke-width="1"/>
<circle cx="726.0" cy="210.0" r="5" fill="#2563eb" stroke="#1e3a8a" stroke-width="1"/>
<circle cx="754.0" cy="210.0" r="5" fill="#2563eb" stroke="#1e3a8a" stroke-width="1"/>
<circle cx="782.0" cy="210.0" r="5" fill="#ffffff" stroke="#cbd5e1" stroke-width="1"/>
<circle cx="810.0" cy="210.0" r="5" fill="#ffffff" stroke="#cbd5e1" stroke-width="1"/>
<circle cx="838.0" cy="210.0" r="5" fill="#ffffff" stroke="#cbd5e1" stroke-width="1"/>
<circle cx="26.0" cy="342.0" r="5" fill="#ffffff" stroke="#cbd5e1" stroke-width="1"/>
<circle cx="54.0" cy="342.0" r="5" fill="#ffffff" stroke="#cbd5e1" stroke-width="1"/>
<circle cx="82.0" cy="342.0" r="5" fill="#16a34a" stroke="#14532d" stroke-width="1"/>
<circle cx="110.0" cy="342.0" r="5" fill="#ffffff" stroke="#cbd5e1" stroke-width="1"/>
<circle cx="138.0" cy="342.0" r="5" fill="#ffffff" stroke="#cbd5e1" stroke-width="1"/>
<circle cx="166.0" cy="342.0" r="5" fill="#16a34a" stroke="#14532d" stroke-width="1"/>
<circle cx="194.0" cy="342.0" r="5" fill="#ffffff" stroke="#cbd5e1" stroke-width="1"/>
<circle cx="222.0" cy="342.0" r="5" fill="#ffffff" stroke="#cbd5e1" stroke-width="1"/>
<circle cx="250.0" cy="342.0" r="5" fill="#16a34a" stroke="#14532d" stroke-width="1"/>
<circle cx="278.0" cy="342.0" r="5" fill="#16a34a" stroke="#14532d" stroke-width="1"/>
<circle cx="306.0" cy="342.0" r="5" fill="#ffffff" stroke="#cbd5e1" stroke-width="1"/>
<circle cx="334.0" cy="342.0" r="5" fill="#16a34a" stroke="#14532d" stroke-width="1"/>
<circle cx="362.0" cy="342.0" r="5" fill="#16a34a" stroke="#14532d" stroke-width="1"/>
<circle cx="390.0" cy="342.0" r="5" fill="#ffffff" stroke="#cbd5e1" stroke-width="1"/>
<circle cx="418.0" cy="342.0" r="5" fill="#ffffff" stroke="#cbd5e1" stroke-width="1"/>
<circle cx="446.0" cy="342.0" r="5" fill="#ffffff" stroke="#cbd5e1" stroke-width="1"/>
<circle cx="474.0" cy="342.0" r="5" fill="#ffffff" stroke="#cbd5e1" stroke-width="1"/>
<circle cx="502.0" cy="342.0" r="5" fill="#16a34a" stroke="#14532d" stroke-width="1"/>
<circle cx="530.0" cy="342.0" r="5" fill="#ffffff" stroke="#cbd5e1" stroke-width="1"/>
<circle cx="558.0" cy="342.0" r="5" fill="#ffffff" stroke="#cbd5e1" stroke-width="1"/>
<circle cx="586.0" cy="342.0" r="5" fill="#ffffff" stroke="#cbd5e1" stroke-width="1"/>
<circle cx="614.0" cy="342.0" r="5" fill="#ffffff" stroke="#cbd5e1" stroke-width="1"/>
<circle cx="642.0" cy="342.0" r="5" fill="#ffffff" stroke="#cbd5e1" stroke-width="1"/>
<circle cx="670.0" cy="342.0" r="5" fill="#16a34a" stroke="#14532d" stroke-width="1"/>
<circle cx="698.0" cy="342.0" r="5" fill="#16a34a" stroke="#14532d" stroke-width="1"/>
<circle cx="726.0" cy="342.0" r="5" fill="#ffffff" stroke="#cbd5e1" stroke-width="1"/>
<circle cx="754.0" cy="342.0" r="5" fill="#16a34a" stroke="#14532d" stroke-width="1"/>
<circle cx="782.0" cy="342.0" r="5" fill="#16a34a" stroke="#14532d" stroke-width="1"/>
<circle cx="810.0" cy="342.0" r="5" fill="#ffffff" stroke="#cbd5e1" stroke-width="1"/>
<circle cx="838.0" cy="342.0" r="5" fill="#ffffff" stroke="#cbd5e1" stroke-width="1"/>
<circle cx="26.0" cy="386.0" r="5" fill="#ffffff" stroke="#cbd5e1" stroke-width="1"/>
<circle cx="54.0" cy="386.0" r="5" fill="#ffffff" stroke="#cbd5e1" stroke-width="1"/>
<circle cx="82.0" cy="386.0" r="5" fill="#ffffff" stroke="#cbd5e1" stroke-width="1"/>
<circle cx="110.0" cy="386.0" r="5" fill="#ffffff" stroke="#cbd5e1" stroke-width="1"/>
<circle cx="138.0" cy="386.0" r="5" fill="#16a34a" stroke="#14532d" stroke-width="1"/>
<circle cx="166.0" cy="386.0" r="5" fill="#ffffff" stroke="#cbd5e1" stroke-width="1"/>
<circle cx="194.0" cy="386.0" r="5" fill="#ffffff" stroke="#cbd5e1" stroke-width="1"/>
<circle cx="222.0" cy="386.0" r="5" fill="#ffffff" stroke="#cbd5e1" stroke-width="1"/>
<circle cx="250.0" cy="386.0" r="5" fill="#2563eb" stroke="#1e3a8a" stroke-width="1"/>
<circle cx="278.0" cy="386.0" r="5" fill="#2563eb" stroke="#1e3a8a" stroke-width="1"/>
<circle cx="306.0" cy="386.0" r="5" fill="#2563eb" stroke="#1e3a8a" stroke-width="1"/>
<circle cx="334.0" cy="386.0" r="5" fill="#16a34a" stroke="#14532d" stroke-width="1"/>
<circle cx="362.0" cy="386.0" r="5" fill="#ffffff" stroke="#cbd5e1" stroke-width="1"/>
<circle cx="390.0" cy="386.0" r="5" fill="#ffffff" stroke="#cbd5e1" stroke-width="1"/>
<circle cx="418.0" cy="386.0" r="5" fill="#ffffff" stroke="#cbd5e1" stroke-width="1"/>
<circle cx="446.0" cy="386.0" r="5" fill="#ffffff" stroke="#cbd5e1" stroke-width="1"/>
<circle cx="474.0" cy="386.0" r="5" fill="#ffffff" stroke="#cbd5e1" stroke-width="1"/>
<circle cx="502.0" cy="386.0" r="5" fill="#ffffff" stroke="#cbd5e1" stroke-width="1"/>
<circle cx="530.0" cy="386.0" r="5" fill="#ffffff" stroke="#cbd5e1" stroke-width="1"/>
<circle cx="558.0" cy="386.0" r="5" fill="#ffffff" stroke="#cbd5e1" stroke-width="1"/>
<circle cx="586.0" cy="386.0" r="5" fill="#ffffff" stroke="#cbd5e1" stroke-width="1"/>
<circle cx="614.0" cy="386.0" r="5" fill="#ffffff" stroke="#cbd5e1" stroke-width="1"/>
<circle cx="642.0" cy="386.0" r="5" fill="#ffffff" stroke="#cbd5e1" stroke-width="1"/>
<circle cx="670.0" cy="386.0" r="5" fill="#ffffff" stroke="#cbd5e1" stroke-width="1"/>
<circle cx="698.0" cy="386.0" r="5" fill="#ffffff" stroke="#cbd5e1" stroke-width="1"/>
<circle cx="726.0" cy="386.0" r="5" fill="#ffffff" stroke="#cbd5e1" stroke-width="1"/>
<circle cx="754.0" cy="386.0" r="5" fill="#2563eb" stroke="#1e3a8a" stroke-width="1"/>
<circle cx="782.0" cy="386.0" r="5" fill="#2563eb" stroke="#1e3a8a" stroke-width="1"/>
<circle cx="810.0" cy="386.0" r="5" fill="#2563eb" stroke="#1e3a8a" stroke-width="1"/>
<circle cx="838.0" cy="386.0" r="5" fill="#ffffff" stroke="#cbd5e1" stroke-width="1"/>
<circle cx="26.0" cy="430.0" r="5" fill="#ffffff" stroke="#cbd5e1" stroke-width="1"/>
<circle cx="54.0" cy="430.0" r="5" fill="#ffffff" stroke="#cbd5e1" stroke-width="1"/>
<circle cx="82.0" cy="430.0" r="5" fill="#ffffff" stroke="#cbd5e1" stroke-width="1"/>
<circle cx="110.0" cy="430.0" r="5" fill="#ffffff" stroke="#cbd5e1" stroke-width="1"/>
<circle cx="138.0" cy="430.0" r="5" fill="#ffffff" stroke="#cbd5e1" stroke-width="1"/>
<circle cx="166.0" cy="430.0" r="5" fill="#ffffff" stroke="#cbd5e1" stroke-width="1"/>
<circle cx="194.0" cy="430.0" r="5" fill="#ffffff" stroke="#cbd5e1" stroke-width="1"/>
<circle cx="222.0" cy="430.0" r="5" fill="#ffffff" stroke="#cbd5e1" stroke-width="1"/>
<circle cx="250.0" cy="430.0" r="5" fill="#16a34a" stroke="#14532d" stroke-width="1"/>
<circle cx="278.0" cy="430.0" r="5" fill="#ffffff" stroke="#cbd5e1" stroke-width="1"/>
<circle cx="306.0" cy="430.0" r="5" fill="#ffffff" stroke="#cbd5e1" stroke-width="1"/>
<circle cx="334.0" cy="430.0" r="5" fill="#ffffff" stroke="#cbd5e1" stroke-width="1"/>
<circle cx="362.0" cy="430.0" r="5" fill="#ffffff" stroke="#cbd5e1" stroke-width="1"/>
<circle cx="390.0" cy="430.0" r="5" fill="#ffffff" stroke="#cbd5e1" stroke-width="1"/>
<circle cx="418.0" cy="430.0" r="5" fill="#ffffff" stroke="#cbd5e1" stroke-width="1"/>
<circle cx="446.0" cy="430.0" r="5" fill="#ffffff" stroke="#cbd5e1" stroke-width="1"/>
<circle cx="474.0" cy="430.0" r="5" fill="#16a34a" stroke="#14532d" stroke-width="1"/>
<circle cx="502.0" cy="430.0" r="5" fill="#ffffff" stroke="#cbd5e1" stroke-width="1"/>
<circle cx="530.0" cy="430.0" r="5" fill="#ffffff" stroke="#cbd5e1" stroke-width="1"/>
<circle cx="558.0" cy="430.0" r="5" fill="#ffffff" stroke="#cbd5e1" stroke-width="1"/>
<circle cx="586.0" cy="430.0" r="5" fill="#ffffff" stroke="#cbd5e1" stroke-width="1"/>
<circle cx="614.0" cy="430.0" r="5" fill="#ffffff" stroke="#cbd5e1" stroke-width="1"/>
<circle cx="642.0" cy="430.0" r="5" fill="#2563eb" stroke="#1e3a8a" stroke-width="1"/>
<circle cx="670.0" cy="430.0" r="5" fill="#2563eb" stroke="#1e3a8a" stroke-width="1"/>
<circle cx="698.0" cy="430.0" r="5" fill="#2563eb" stroke="#1e3a8a" stroke-width="1"/>
<circle cx="726.0" cy="430.0" r="5" fill="#ffffff" stroke="#cbd5e1" stroke-width="1"/>
<circle cx="754.0" cy="430.0" r="5" fill="#16a34a" stroke="#14532d" stroke-width="1"/>
<circle cx="782.0" cy="430.0" r="5" fill="#ffffff" stroke="#cbd5e1" stroke-width="1"/>
<circle cx="810.0" cy="430.0" r="5" fill="#ffffff" stroke="#cbd5e1" stroke-width="1"/>
<circle cx="838.0" cy="430.0" r="5" fill="#16a34a" stroke="#14532d" stroke-width="1"/>
<circle cx="26.0" cy="474.0" r="5" fill="#ffffff" stroke="#cbd5e1" stroke-width="1"/>
<circle cx="54.0" cy="474.0" r="5" fill="#2563eb" stroke="#1e3a8a" stroke-width="1"/>
<circle cx="82.0" cy="474.0" r="5" fill="#2563eb" stroke="#1e3a8a" stroke-width="1"/>
<circle cx="110.0" cy="474.0" r="5" fill="#ffffff" stroke="#cbd5e1" stroke-width="1"/>
<circle cx="138.0" cy="474.0" r="5" fill="#2563eb" stroke="#1e3a8a" stroke-width="1"/>
<circle cx="166.0" cy="474.0" r="5" fill="#2563eb" stroke="#1e3a8a" stroke-width="1"/>
<circle cx="194.0" cy="474.0" r="5" fill="#2563eb" stroke="#1e3a8a" stroke-width="1"/>
<circle cx="222.0" cy="474.0" r="5" fill="#ffffff" stroke="#cbd5e1" stroke-width="1"/>
<circle cx="250.0" cy="474.0" r="5" fill="#ffffff" stroke="#cbd5e1" stroke-width="1"/>
<circle cx="278.0" cy="474.0" r="5" fill="#ffffff" stroke="#cbd5e1" stroke-width="1"/>
<circle cx="306.0" cy="474.0" r="5" fill="#ffffff" stroke="#cbd5e1" stroke-width="1"/>
<circle cx="334.0" cy="474.0" r="5" fill="#2563eb" stroke="#1e3a8a" stroke-width="1"/>
<circle cx="362.0" cy="474.0" r="5" fill="#2563eb" stroke="#1e3a8a" stroke-width="1"/>
<circle cx="390.0" cy="474.0" r="5" fill="#ffffff" stroke="#cbd5e1" stroke-width="1"/>
<circle cx="418.0" cy="474.0" r="5" fill="#ffffff" stroke="#cbd5e1" stroke-width="1"/>
<circle cx="446.0" cy="474.0" r="5" fill="#ffffff" stroke="#cbd5e1" stroke-width="1"/>
<circle cx="474.0" cy="474.0" r="5" fill="#2563eb" stroke="#1e3a8a" stroke-width="1"/>
<circle cx="502.0" cy="474.0" r="5" fill="#2563eb" stroke="#1e3a8a" stroke-width="1"/>
<circle cx="530.0" cy="474.0" r="5" fill="#2563eb" stroke="#1e3a8a" stroke-width="1"/>
<circle cx="558.0" cy="474.0" r="5" fill="#ffffff" stroke="#cbd5e1" stroke-width="1"/>
<circle cx="586.0" cy="474.0" r="5" fill="#2563eb" stroke="#1e3a8a" stroke-width="1"/>
<circle cx="614.0" cy="474.0" r="5" fill="hsl(47,65%,42%)" stroke="#374151" stroke-width="1"/>
<circle cx="642.0" cy="474.0" r="5" fill="hsl(47,65%,42%)" stroke="#374151" stroke-width="1"/>
<circle cx="670.0" cy="474.0" r="5" fill="hsl(47,65%,42%)" stroke="#374151" stroke-width="1"/>
<circle cx="698.0" cy="474.0" r="5" fill="#2563eb" stroke="#1e3a8a" stroke-width="1"/>
<circle cx="726.0" cy="474.0" r="5" fill="#2563eb" stroke="#1e3a8a" stroke-width="1"/>
<circle cx="754.0" cy="474.0" r="5" fill="hsl(0,65%,42%)" stroke="#374151" stroke-width="1"/>
<circle cx="782.0" cy="474.0" r="5" fill="hsl(0,65%,42%)" stroke="#374151" stroke-width="1"/>
<circle cx="810.0" cy="474.0" r="5" fill="hsl(0,65%,42%)" stroke="#374151" stroke-width="1"/>
<circle cx="838.0" cy="474.0" r="5" fill="#2563eb" stroke="#1e3a8a" stroke-width="1"/>
<circle cx="26.0" cy="518.0" r="5" fill="#ffffff" stroke="#cbd5e1" stroke-width="1"/>
<circle cx="54.0" cy="518.0" r="5" fill="#ffffff" stroke="#cbd5e1" stroke-width="1"/>
<circle cx="82.0" cy="518.0" r="5" fill="#ffffff" stroke="#cbd5e1" stroke-width="1"/>
<circle cx="110.0" cy="518.0" r="5" fill="#ffffff" stroke="#cbd5e1" stroke-width="1"/>
<circle cx="138.0" cy="518.0" r="5" fill="#ffffff" stroke="#cbd5e1" stroke-width="1"/>
<circle cx="166.0" cy="518.0" r="5" fill="#ffffff" stroke="#cbd5e1" stroke-width="1"/>
<circle cx="194.0" cy="518.0" r="5" fill="#ffffff" stroke="#cbd5e1" stroke-width="1"/>
<circle cx="222.0" cy="518.0" r="5" fill="#ffffff" stroke="#cbd5e1" stroke-width="1"/>
<circle cx="250.0" cy="518.0" r="5" fill="#ffffff" stroke="#cbd5e1" stroke-width="1"/>
<circle cx="278.0" cy="518.0" r="5" fill="#ffffff" stroke="#cbd5e1" stroke-width="1"/>
<circle cx="306.0" cy="518.0" r="5" fill="#ffffff" stroke="#cbd5e1" stroke-width="1"/>
<circle cx="334.0" cy="518.0" r="5" fill="#ffffff" stroke="#cbd5e1" stroke-width="1"/>
<circle cx="362.0" cy="518.0" r="5" fill="#ffffff" stroke="#cbd5e1" stroke-width="1"/>
<circle cx="390.0" cy="518.0" r="5" fill="#ffffff" stroke="#cbd5e1" stroke-width="1"/>
<circle cx="418.0" cy="518.0" r="5" fill="#ffffff" stroke="#cbd5e1" stroke-width="1"/>
<circle cx="446.0" cy="518.0" r="5" fill="#ffffff" stroke="#cbd5e1" stroke-width="1"/>
<circle cx="474.0" cy="518.0" r="5" fill="#ffffff" stroke="#cbd5e1" stroke-width="1"/>
<circle cx="502.0" cy="518.0" r="5" fill="#ffffff" stroke="#cbd5e1" stroke-width="1"/>
<circle cx="530.0" cy="518.0" r="5" fill="#ffffff" stroke="#cbd5e1" stroke-width="1"/>
<circle cx="558.0" cy="518.0" r="5" fill="#ffffff" stroke="#cbd5e1" stroke-width="1"/>
<circle cx="586.0" cy="518.0" r="5" fill="#ffffff" stroke="#cbd5e1" stroke-width="1"/>
<circle cx="614.0" cy="518.0" r="5" fill="#ffffff" stroke="#cbd5e1" stroke-width="1"/>
<circle cx="642.0" cy="518.0" r="5" fill="#ffffff" stroke="#cbd5e1" stroke-width="1"/>
<circle cx="670.0" cy="518.0" r="5" fill="#ffffff" stroke="#cbd5e1" stroke-width="1"/>
<circle cx="698.0" cy="518.0" r="5" fill="#ffffff" stroke="#cbd5e1" stroke-width="1"/>
<circle cx="726.0" cy="518.0" r="5" fill="#ffffff" stroke="#cbd5e1" stroke-width="1"/>
<circle cx="754.0" cy="518.0" r="5" fill="#ffffff" stroke="#cbd5e1" stroke-width="1"/>
<circle cx="782.0" cy="518.0" r="5" fill="#ffffff" stroke="#cbd5e1" stroke-width="1"/>
<circle cx="810.0" cy="518.0" r="5" fill="#ffffff" stroke="#cbd5e1" stroke-width="1"/>
<circle cx="838.0" cy="518.0" r="5" fill="#ffffff" stroke="#cbd5e1" stroke-width="1"/>
</svg>
