<svg xmlns="http://www.w3.org/2000/svg" viewBox="0 0 1424 904" font-family="sans-serif">
<rect width="100%" height="100%" fill="#fafafa"/>
<rect x="12" y="408.0" width="1400" height="308.0" fill="#e2e8f0" stroke="#94a3b8" stroke-width="0.5"/>
<rect x="12" y="100.0" width="1400" height="88.0" fill="#e2e8f0" stroke="#94a3b8" stroke-width="0.5"/>
<rect x="12" y="716.0" width="1400" height="88.0" fill="#e2e8f0" stroke="#94a3b8" stroke-width="0.5"/>
<rect x="12.0" y="12.0" width="140.0" height="44" fill="#2563eb" fill-opacity="0.10" stroke="#2563eb" stroke-width="0.6" stroke-dasharray="3,2"/>
<rect x="180.0" y="12.0" width="140.0" height="44" fill="#2563eb" fill-opacity="0.10" stroke="#2563eb" stroke-width="0.6" stroke-dasharray="3,2"/>
<rect x="348.0" y="12.0" width="140.0" height="44" fill="#2563eb" fill-opacity="0.10" stroke="#2563eb" stroke-width="0.6" stroke-dasharray="3,2"/>
<rect x="516.0" y="12.0" width="140.0" height="44" fill="#2563eb" fill-opacity="0.10" stroke="#2563eb" stroke-width="0.6" stroke-dasharray="3,2"/>
<rect x="684.0" y="12.0" width="140.0" height="44" fill="#2563eb" fill-opacity="0.10" stroke="#2563eb" stroke-width="0.6" stroke-dasharray="3,2"/>
<rect x="852.0" y="12.0" width="140.0" height="44" fill="#2563eb" fill-opacity="0.10" stroke="#2563eb" stroke-width="0.6" stroke-dasharray="3,2"/>
<rect x="1020.0" y="12.0" width="140.0" height="44" fill="#2563eb" fill-opacity="0.10" stroke="#2563eb" stroke-width="0.6" stroke-dasharray="3,2"/>
<rect x="1188.0" y="12.0" width="140.0" height="44" fill="#2563eb" fill-opacity="0.10" stroke="#2563eb" stroke-width="0.6" stroke-dasharray="3,2"/>
<rect x="1356.0" y="12.0" width="56.0" height="44" fill="#2563eb" fill-opacity="0.10" stroke="#2563eb" stroke-width="0.6" stroke-dasharray="3,2"/>
<text x="9" y="34.0" font-size="11" font-weight="bold" fill="#2563eb" text-anchor="end" dominant-baseline="central">−</text>
<rect x="12.0" y="56.0" width="140.0" height="44" fill="#dc2626" fill-opacity="0.10" stroke="#dc2626" stroke-width="0.6" stroke-dasharray="3,2"/>
<rect x="180.0" y="56.0" width="140.0" height="44" fill="#dc2626" fill-opacity="0.10" stroke="#dc2626" stroke-width="0.6" stroke-dasharray="3,2"/>
<rect x="348.0" y="56.0" width="140.0" height="44" fill="#dc2626" fill-opacity="0.10" stroke="#dc2626" stroke-width="0.6" stroke-dasharray="3,2"/>
<rect x="516.0" y="56.0" width="140.0" height="44" fill="#dc2626" fill-opacity="0.10" stroke="#dc2626" stroke-width="0.6" stroke-dasharray="3,2"/>
<rect x="684.0" y="56.0" width="140.0" height="44" fill="#dc2626" fill-opacity="0.10" stroke="#dc2626" stroke-width="0.6" stroke-dasharray="3,2"/>
<rect x="852.0" y="56.0" width="140.0" height="44" fill="#dc2626" fill-opacity="0.10" stroke="#dc2626" stroke-width="0.6" stroke-dasharray="3,2"/>
<rect x="1020.0" y="56.0" width="140.0" height="44" fill="#dc2626" fill-opacity="0.10" stroke="#dc2626" stroke-width="0.6" stroke-dasharray="3,2"/>
<rect x="1188.0" y="56.0" width="140.0" height="44" fill="#dc2626" fill-opacity="0.10" stroke="#dc2626" stroke-width="0.6" stroke-dasharray="3,2"/>
<rect x="1356.0" y="56.0" width="56.0" height="44" fill="#dc2626" fill-opacity="0.10" stroke="#dc2626" stroke-width="0.6" stroke-dasharray="3,2"/>
<text x="9" y="78.0" font-size="11" font-weight="bold" fill="#dc2626" text-anchor="end" dominant-baseline="central">+</text>
<rect x="12.0" y="804.0" width="140.0" height="44" fill="#2563eb" fill-opacity="0.10" stroke="#2563eb" stroke-width="0.6" stroke-dasharray="3,2"/>
<rect x="180.0" y="804.0" width="140.0" height="44" fill="#2563eb" fill-opacity="0.10" stroke="#2563eb" stroke-width="0.6" stroke-dasharray="3,2"/>
<rect x="348.0" y="804.0" width="140.0" height="44" fill="#2563eb" fill-opacity="0.10" stroke="#2563eb" stroke-width="0.6" stroke-dasharray="3,2"/>
<rect x="516.0" y="804.0" width="140.0" height="44" fill="#2563eb" fill-opacity="0.10" stroke="#2563eb" stroke-width="0.6" stroke-dasharray="3,2"/>
<rect x="684.0" y="804.0" width="140.0" height="44" fill="#2563eb" fill-opacity="0.10" stroke="#2563eb" stroke-width="0.6" stroke-dasharray="3,2"/>
<rect x="852.0" y="804.0" width="140.0" height="44" fill="#2563eb" fill-opacity="0.10" stroke="#2563eb" stroke-width="0.6" stroke-dasharray="3,2"/>
<rect x="1020.0" y="804.0" width="140.0" height="44" fill="#2563eb" fill-opacity="0.10" stroke="#2563eb" stroke-width="0.6" stroke-dasharray="3,2"/>
<rect x="1188.0" y="804.0" width="140.0" height="44" fill="#2563eb" fill-opacity="0.10" stroke="#2563eb" stroke-width="0.6" stroke-dasharray="3,2"/>
<rect x="1356.0" y="804.0" width="56.0" height="44" fill="#2563eb" fill-opacity="0.10" stroke="#2563eb" stroke-width="0.6" stroke-dasharray="3,2"/>
<text x="9" y="826.0" font-size="11" font-weight="bold" fill="#2563eb" text-anchor="end" dominant-baseline="central">−</text>
<rect x="12.0" y="848.0" width="140.0" height="44" fill="#dc2626" fill-opacity="0.10" stroke="#dc2626" stroke-width="0.6" stroke-dasharray="3,2"/>
<rect x="180.0" y="848.0" width="140.0" height="44" fill="#dc2626" fill-opacity="0.10" stroke="#dc2626" stroke-width="0.6" stroke-dasharray="3,2"/>
<rect x="348.0" y="848.0" width="140.0" height="44" fill="#dc2626" fill-opacity="0.10" stroke="#dc2626" stroke-width="0.6" stroke-dasharray="3,2"/>
<rect x="516.0" y="848.0" width="140.0" height="44" fill="#dc2626" fill-opacity="0.10" stroke="#dc2626" stroke-width="0.6" stroke-dasharray="3,2"/>
<rect x="684.0" y="848.0" width="140.0" height="44" fill="#dc2626" fill-opacity="0.10" stroke="#dc2626" stroke-width="0.6" stroke-dasharray="3,2"/>
<rect x="852.0" y="848.0" width="140.0" height="44" fill="#dc2626" fill-opacity="0.10" stroke="#dc2626" stroke-width="0.6" stroke-dasharray="3,2"/>
<rect x="1020.0" y="848.0" width="140.0" height="44" fill="#dc2626" fill-opacity="0.10" stroke="#dc2626" stroke-width="0.6" stroke-dasharray="3,2"/>
<rect x="1188.0" y="848.0" width="140.0" height="44" fill="#dc2626" fill-opacity="0.10" stroke="#dc2626" stroke-width="0.6" stroke-dasharray="3,2"/>
<rect x="1356.0" y="848.0" width="56.0" height="44" fill="#dc2626" fill-opacity="0.10" stroke="#dc2626" stroke-width="0.6" stroke-dasharray="3,2"/>
<text x="9" y="870.0" font-size="11" font-weight="bold" fill="#dc2626" text-anchor="end" dominant-baseline="central">+</text>
<rect x="796.0" y="320.0" width="140.0" height="44.0" rx="4" fill="hsl(0,65%,42%)" fill-opacity="0.18" stroke="hsl(0,65%,42%)" stroke-width="1.5"/>
<text x="866.0" y="342.0" font-size="13" font-weight="bold" fill="hsl(0,65%,42%)" text-anchor="middle" dominant-baseline="central">D1</text>
<rect x="656.0" y="276.0" width="140.0" height="44.0" rx="4" fill="hsl(47,65%,42%)" fill-opacity="0.18" stroke="hsl(47,65%,42%)" stroke-width="1.5"/>
<text x="726.0" y="298.0" font-size="13" font-weight="bold" fill="hsl(47,65%,42%)" text-anchor="middle" dominant-baseline="central">D2</text>
<rect x="404.0" y="364.0" width="140.0" height="44.0" rx="4" fill="hsl(94,65%,42%)" fill-opacity="0.18" stroke="hsl(94,65%,42%)" stroke-width="1.5"/>
<text x="474.0" y="386.0" font-size="13" font-weight="bold" fill="hsl(94,65%,42%)" text-anchor="middle" dominant-baseline="central">D3</text>
<rect x="460.0" y="188.0" width="140.0" height="44.0" rx="4" fill="hsl(141,65%,42%)" fill-opacity="0.18" stroke="hsl(141,65%,42%)" stroke-width="1.5"/>
<text x="530.0" y="210.0" font-size="13" font-weight="bold" fill="hsl(141,65%,42%)" text-anchor="middle" dominant-baseline="central">D4</text>
<rect x="852.0" y="364.0" width="84.0" height="44.0" rx="4" fill="hsl(188,65%,42%)" fill-opacity="0.18" stroke="hsl(188,65%,42%)" stroke-width="1.5"/>
<text x="894.0" y="386.0" font-size="13" font-weight="bold" fill="hsl(188,65%,42%)" text-anchor="middle" dominant-baseline="central">Q1</text>
<rect x="1188.0" y="320.0" width="84.0" height="44.0" rx="4" fill="hsl(235,65%,42%)" fill-opacity="0.18" stroke="hsl(235,65%,42%)" stroke-width="1.5"/>
<text x="1230.0" y="342.0" font-size="13" font-weight="bold" fill="hsl(235,65%,42%)" text-anchor="middle" dominant-baseline="central">Q2</text>
<rect x="656.0" y="232.0" width="84.0" height="44.0" rx="4" fill="hsl(282,65%,42%)" fill-opacity="0.18" stroke="hsl(282,65%,42%)" stroke-width="1.5"/>
<text x="698.0" y="254.0" font-size="13" font-weight="bold" fill="hsl(282,65%,42%)" text-anchor="middle" dominant-baseline="central">Q3</text>
<rect x="180.0" y="364.0" width="84.0" height="44.0" rx="4" fill="hsl(329,65%,42%)" fill-opacity="0.18" stroke="hsl(329,65%,42%)" stroke-width="1.5"/>
<text x="222.0" y="386.0" font-size="13" font-weight="bold" fill="hsl(329,65%,42%)" text-anchor="middle" dominant-baseline="central">Q4</text>
<rect x="404.0" y="232.0" width="84.0" height="44.0" rx="4" fill="hsl(16,65%,42%)" fill-opacity="0.18" stroke="hsl(16,65%,42%)" stroke-width="1.5"/>
<text x="446.0" y="254.0" font-size="13" font-weight="bold" fill="hsl(16,65%,42%)" text-anchor="middle" dominant-baseline="central">Q5</text>
<rect x="516.0" y="276.0" width="84.0" height="44.0" rx="4" fill="hsl(63,65%,42%)" fill-opacity="0.18" stroke="hsl(63,65%,42%)" stroke-width="1.5"/>
<text x="558.0" y="298.0" font-size="13" font-weight="bold" fill="hsl(63,65%,42%)" text-anchor="middle" dominant-baseline="central">Q6</text>
<rect x="1272.0" y="276.0" width="140.0" height="44.0" rx="4" fill="hsl(110,65%,42%)" fill-opacity="0.18" stroke="hsl(110,65%,42%)" stroke-width="1.5"/>
<text x="1342.0" y="298.0" font-size="13" font-weight="bold" fill="hsl(110,65%,42%)" text-anchor="middle" dominant-baseline="central">R2</text>
<rect x="1020.0" y="188.0" width="140.0" height="44.0" rx="4" fill="hsl(157,65%,42%)" fill-opacity="0.18" stroke="hsl(157,65%,42%)" stroke-width="1.5"/>
<text x="1090.0" y="210.0" font-size="13" font-weight="bold" fill="hsl(157,65%,42%)" text-anchor="middle" dominant-baseline="central">R3</text>
<rect x="1048.0" y="232.0" width="140.0" height="44.0" rx="4" fill="hsl(204,65%,42%)" fill-opacity="0.18" stroke="hsl(204,65%,42%)" stroke-width="1.5"/>
<text x="1118.0" y="254.0" font-size="13" font-weight="bold" fill="hsl(204,65%,42%)" text-anchor="middle" dominant-baseline="central">R4</text>
<rect x="628.0" y="188.0" width="140.0" height="44.0" rx="4" fill="hsl(251,65%,42%)" fill-opacity="0.18" stroke="hsl(251,65%,42%)" stroke-width="1.5"/>
<text x="698.0" y="210.0" font-size="13" font-weight="bold" fill="hsl(251,65%,42%)" text-anchor="middle" dominant-baseline="central">R5</text>
<rect x="40.0" y="232.0" width="140.0" height="44.0" rx="4" fill="hsl(298,65%,42%)" fill-opacity="0.18" stroke="hsl(298,65%,42%)" stroke-width="1.5"/>
<text x="110.0" y="254.0" font-size="13" font-weight="bold" fill="hsl(298,65%,42%)" text-anchor="middle" dominant-baseline="central">R6</text>
<rect x="292.0" y="276.0" width="140.0" height="44.0" rx="4" fill="hsl(345,65%,42%)" fill-opacity="0.18" stroke="hsl(345,65%,42%)" stroke-width="1.5"/>
<text x="362.0" y="298.0" font-size="13" font-weight="bold" fill="hsl(345,65%,42%)" text-anchor="middle" dominant-baseline="central">R7</text>
<rect x="488.0" y="320.0" width="140.0" height="44.0" rx="4" fill="hsl(32,65%,42%)" fill-opacity="0.18" stroke="hsl(32,65%,42%)" stroke-width="1.5"/>
<text x="558.0" y="342.0" font-size="13" font-weight="bold" fill="hsl(32,65%,42%)" text-anchor="middle" dominant-baseline="central">R8</text>
<rect x="264.0" y="188.0" width="140.0" height="44.0" rx="4" fill="hsl(79,65%,42%)" fill-opacity="0.18" stroke="hsl(79,65%,42%)" stroke-width="1.5"/>
<text x="334.0" y="210.0" font-size="13" font-weight="bold" fill="hsl(79,65%,42%)" text-anchor="middle" dominant-baseline="central">R9</text>
<circle cx="26.0" cy="34.0" r="5" fill="#f3f4f6" stroke="#9ca3af" stroke-width="1"/>
<circle cx="54.0" cy="34.0" r="5" fill="#f3f4f6" stroke="#9ca3af" stroke-width="1"/>
<circle cx="82.0" cy="34.0" r="5" fill="#f3f4f6" stroke="#9ca3af" stroke-width="1"/>
<circle cx="110.0" cy="34.0" r="5" fill="#f3f4f6" stroke="#9ca3af" stroke-width="1"/>
<circle cx="138.0" cy="34.0" r="5" fill="#f3f4f6" stroke="#9ca3af" stroke-width="1"/>
<circle cx="194.0" cy="34.0" r="5" fill="#f3f4f6" stroke="#9ca3af" stroke-width="1"/>
<circle cx="222.0" cy="34.0" r="5" fill="#f3f4f6" stroke="#9ca3af" stroke-width="1"/>
<circle cx="250.0" cy="34.0" r="5" fill="#f3f4f6" stroke="#9ca3af" stroke-width="1"/>
<circle cx="278.0" cy="34.0" r="5" fill="#f3f4f6" stroke="#9ca3af" stroke-width="1"/>
<circle cx="306.0" cy="34.0" r="5" fill="#f3f4f6" stroke="#9ca3af" stroke-width="1"/>
<circle cx="362.0" cy="34.0" r="5" fill="#f3f4f6" stroke="#9ca3af" stroke-width="1"/>
<circle cx="390.0" cy="34.0" r="5" fill="#f3f4f6" stroke="#9ca3af" stroke-width="1"/>
<circle cx="418.0" cy="34.0" r="5" fill="#f3f4f6" stroke="#9ca3af" stroke-width="1"/>
<circle cx="446.0" cy="34.0" r="5" fill="#f3f4f6" stroke="#9ca3af" stroke-width="1"/>
<circle cx="474.0" cy="34.0" r="5" fill="#f3f4f6" stroke="#9ca3af" stroke-width="1"/>
<circle cx="530.0" cy="34.0" r="5" fill="#f3f4f6" stroke="#9ca3af" stroke-width="1"/>
<circle cx="558.0" cy="34.0" r="5" fill="#f3f4f6" stroke="#9ca3af" stroke-width="1"/>
<circle cx="586.0" cy="34.0" r="5" fill="#f3f4f6" stroke="#9ca3af" stroke-width="1"/>
<circle cx="614.0" cy="34.0" r="5" fill="#f3f4f6" stroke="#9ca3af" stroke-width="1"/>
<circle cx="642.0" cy="34.0" r="5" fill="#f3f4f6" stroke="#9ca3af" stroke-width="1"/>
<circle cx="698.0" cy="34.0" r="5" fill="#f3f4f6" stroke="#9ca3af" stroke-width="1"/>
<circle cx="726.0" cy="34.0" r="5" fill="#f3f4f6" stroke="#9ca3af" stroke-width="1"/>
<circle cx="754.0" cy="34.0" r="5" fill="#f3f4f6" stroke="#9ca3af" stroke-width="1"/>
<circle cx="782.0" cy="34.0" r="5" fill="#f3f4f6" stroke="#9ca3af" stroke-width="1"/>
<circle cx="810.0" cy="34.0" r="5" fill="#f3f4f6" stroke="#9ca3af" stroke-width="1"/>
<circle cx="866.0" cy="34.0" r="5" fill="#f3f4f6" stroke="#9ca3af" stroke-width="1"/>
<circle cx="894.0" cy="34.0" r="5" fill="#f3f4f6" stroke="#9ca3af" stroke-width="1"/>
<circle cx="922.0" cy="34.0" r="5" fill="#f3f4f6" stroke="#9ca3af" stroke-width="1"/>
<circle cx="950.0" cy="34.0" r="5" fill="#f3f4f6" stroke="#9ca3af" stroke-width="1"/>
<circle cx="978.0" cy="34.0" r="5" fill="#f3f4f6" stroke="#9ca3af" stroke-width="1"/>
<circle cx="1034.0" cy="34.0" r="5" fill="#f3f4f6" stroke="#9ca3af" stroke-width="1"/>
<circle cx="1062.0" cy="34.0" r="5" fill="#f3f4f6" stroke="#9ca3af" stroke-width="1"/>
<circle cx="1090.0" cy="34.0" r="5" fill="#f3f4f6" stroke="#9ca3af" stroke-width="1"/>
<circle cx="1118.0" cy="34.0" r="5" fill="#f3f4f6" stroke="#9ca3af" stroke-width="1"/>
<circle cx="1146.0" cy="34.0" r="5" fill="#f3f4f6" stroke="#9ca3af" stroke-width="1"/>
<circle cx="1202.0" cy="34.0" r="5" fill="#f3f4f6" stroke="#9ca3af" stroke-width="1"/>
<circle cx="1230.0" cy="34.0" r="5" fill="#f3f4f6" stroke="#9ca3af" stroke-width="1"/>
<circle cx="1258.0" cy="34.0" r="5" fill="#f3f4f6" stroke="#9ca3af" stroke-width="1"/>
<circle cx="1286.0" cy="34.0" r="5" fill="#f3f4f6" stroke="#9ca3af" stroke-width="1"/>
<circle cx="1314.0" cy="34.0" r="5" fill="#f3f4f6" stroke="#9ca3af" stroke-width="1"/>
<circle cx="1370.0" cy="34.0" r="5" fill="#f3f4f6" stroke="#9ca3af" stroke-width="1"/>
<circle cx="1398.0" cy="34.0" r="5" fill="#f3f4f6" stroke="#9ca3af" stroke-width="1"/>
<circle cx="26.0" cy="826.0" r="5" fill="#f3f4f6" stroke="#9ca3af" stroke-width="1"/>
<circle cx="54.0" cy="826.0" r="5" fill="#f3f4f6" stroke="#9ca3af" stroke-width="1"/>
<circle cx="82.0" cy="826.0" r="5" fill="#f3f4f6" stroke="#9ca3af" stroke-width="1"/>
<circle cx="110.0" cy="826.0" r="5" fill="#f3f4f6" stroke="#9ca3af" stroke-width="1"/>
<circle cx="138.0" cy="826.0" r="5" fill="#f3f4f6" stroke="#9ca3af" stroke-width="1"/>
<circle cx="194.0" cy="826.0" r="5" fill="#f3f4f6" stroke="#9ca3af" stroke-width="1"/>
<circle cx="222.0" cy="826.0" r="5" fill="#f3f4f6" stroke="#9ca3af" stroke-width="1"/>
<circle cx="250.0" cy="826.0" r="5" fill="#f3f4f6" stroke="#9ca3af" stroke-width="1"/>
<circle cx="278.0" cy="826.0" r="5" fill="#f3f4f6" stroke="#9ca3af" stroke-width="1"/>
<circle cx="306.0" cy="826.0" r="5" fill="#f3f4f6" stroke="#9ca3af" stroke-width="1"/>
<circle cx="362.0" cy="826.0" r="5" fill="#f3f4f6" stroke="#9ca3af" stroke-width="1"/>
<circle cx="390.0" cy="826.0" r="5" fill="#f3f4f6" stroke="#9ca3af" stroke-width="1"/>
<circle cx="418.0" cy="826.0" r="5" fill="#f3f4f6" stroke="#9ca3af" stroke-width="1"/>
<circle cx="446.0" cy="826.0" r="5" fill="#f3f4f6" stroke="#9ca3af" stroke-width="1"/>
<circle cx="474.0" cy="826.0" r="5" fill="#f3f4f6" stroke="#9ca3af" stroke-width="1"/>
<circle cx="530.0" cy="826.0" r="5" fill="#f3f4f6" stroke="#9ca3af" stroke-width="1"/>
<circle cx="558.0" cy="826.0" r="5" fill="#f3f4f6" stroke="#9ca3af" stroke-width="1"/>
<circle cx="586.0" cy="826.0" r="5" fill="#f3f4f6" stroke="#9ca3af" stroke-width="1"/>
<circle cx="614.0" cy="826.0" r="5" fill="#f3f4f6" stroke="#9ca3af" stroke-width="1"/>
<circle cx="642.0" cy="826.0" r="5" fill="#f3f4f6" stroke="#9ca3af" stroke-width="1"/>
<circle cx="698.0" cy="826.0" r="5" fill="#f3f4f6" stroke="#9ca3af" stroke-width="1"/>
<circle cx="726.0" cy="826.0" r="5" fill="#f3f4f6" stroke="#9ca3af" stroke-width="1"/>
<circle cx="754.0" cy="826.0" r="5" fill="#f3f4f6" stroke="#9ca3af" stroke-width="1"/>
<circle cx="782.0" cy="826.0" r="5" fill="#f3f4f6" stroke="#9ca3af" stroke-width="1"/>
<circle cx="810.0" cy="826.0" r="5" fill="#f3f4f6" stroke="#9ca3af" stroke-width="1"/>
<circle cx="866.0" cy="826.0" r="5" fill="#f3f4f6" stroke="#9ca3af" stroke-width="1"/>
<circle cx="894.0" cy="826.0" r="5" fill="#f3f4f6" stroke="#9ca3af" stroke-width="1"/>
<circle cx="922.0" cy="826.0" r="5" fill="#f3f4f6" stroke="#9ca3af" stroke-width="1"/>
<circle cx="950.0" cy="826.0" r="5" fill="#f3f4f6" stroke="#9ca3af" stroke-width="1"/>
<circle cx="978.0" cy="826.0" r="5" fill="#f3f4f6" stroke="#9ca3af" stroke-width="1"/>
<circle cx="1034.0" cy="826.0" r="5" fill="#f3f4f6" stroke="#9ca3af" stroke-width="1"/>
<circle cx="1062.0" cy="826.0" r="5" fill="#f3f4f6" stroke="#9ca3af" stroke-width="1"/>
<circle cx="1090.0" cy="826.0" r="5" fill="#f3f4f6" stroke="#9ca3af" stroke-width="1"/>
<circle cx="1118.0" cy="826.0" r="5" fill="#f3f4f6" stroke="#9ca3af" stroke-width="1"/>
<circle cx="1146.0" cy="826.0" r="5" fill="#f3f4f6" stroke="#9ca3af" stroke-width="1"/>
<circle cx="1202.0" cy="826.0" r="5" fill="#f3f4f6" stroke="#9ca3af" stroke-width="1"/>
<circle cx="1230.0" cy="826.0" r="5" fill="#f3f4f6" stroke="#9ca3af" stroke-width="1"/>
<circle cx="1258.0" cy="826.0" r="5" fill="#f3f4f6" stroke="#9ca3af" stroke-width="1"/>
<circle cx="1286.0" cy="826.0" r="5" fill="#f3f4f6" stroke="#9ca3af" stroke-width="1"/>
<circle cx="1314.0" cy="826.0" r="5" fill="#f3f4f6" stroke="#9ca3af" stroke-width="1"/>
<circle cx="1370.0" cy="826.0" r="5" fill="#f3f4f6" stroke="#9ca3af" stroke-width="1"/>
<circle cx="1398.0" cy="826.0" r="5" fill="#f3f4f6" stroke="#9ca3af" stroke-width="1"/>
<circle cx="26.0" cy="78.0" r="5" fill="#f3f4f6" stroke="#9ca3af" stroke-width="1"/>
<circle cx="54.0" cy="78.0" r="5" fill="#f3f4f6" stroke="#9ca3af" stroke-width="1"/>
<circle cx="82.0" cy="78.0" r="5" fill="#f3f4f6" stroke="#9ca3af" stroke-width="1"/>
<circle cx="110.0" cy="78.0" r="5" fill="#f3f4f6" stroke="#9ca3af" stroke-width="1"/>
<circle cx="138.0" cy="78.0" r="5" fill="#f3f4f6" stroke="#9ca3af" stroke-width="1"/>
<circle cx="194.0" cy="78.0" r="5" fill="#f3f4f6" stroke="#9ca3af" stroke-width="1"/>
<circle cx="222.0" cy="78.0" r="5" fill="#f3f4f6" stroke="#9ca3af" stroke-width="1"/>
<circle cx="250.0" cy="78.0" r="5" fill="#f3f4f6" stroke="#9ca3af" stroke-width="1"/>
<circle cx="278.0" cy="78.0" r="5" fill="#f3f4f6" stroke="#9ca3af" stroke-width="1"/>
<circle cx="306.0" cy="78.0" r="5" fill="#f3f4f6" stroke="#9ca3af" stroke-width="1"/>
<circle cx="362.0" cy="78.0" r="5" fill="#f3f4f6" stroke="#9ca3af" stroke-width="1"/>
<circle cx="390.0" cy="78.0" r="5" fill="#f3f4f6" stroke="#9ca3af" stroke-width="1"/>
<circle cx="418.0" cy="78.0" r="5" fill="#f3f4f6" stroke="#9ca3af" stroke-width="1"/>
<circle cx="446.0" cy="78.0" r="5" fill="#f3f4f6" stroke="#9ca3af" stroke-width="1"/>
<circle cx="474.0" cy="78.0" r="5" fill="#f3f4f6" stroke="#9ca3af" stroke-width="1"/>
<circle cx="530.0" cy="78.0" r="5" fill="#f3f4f6" stroke="#9ca3af" stroke-width="1"/>
<circle cx="558.0" cy="78.0" r="5" fill="#f3f4f6" stroke="#9ca3af" stroke-width="1"/>
<circle cx="586.0" cy="78.0" r="5" fill="#f3f4f6" stroke="#9ca3af" stroke-width="1"/>
<circle cx="614.0" cy="78.0" r="5" fill="#f3f4f6" stroke="#9ca3af" stroke-width="1"/>
<circle cx="642.0" cy="78.0" r="5" fill="#f3f4f6" stroke="#9ca3af" stroke-width="1"/>
<circle cx="698.0" cy="78.0" r="5" fill="#f3f4f6" stroke="#9ca3af" stroke-width="1"/>
<circle cx="726.0" cy="78.0" r="5" fill="#f3f4f6" stroke="#9ca3af" stroke-width="1"/>
<circle cx="754.0" cy="78.0" r="5" fill="#f3f4f6" stroke="#9ca3af" stroke-width="1"/>
<circle cx="782.0" cy="78.0" r="5" fill="#f3f4f6" stroke="#9ca3af" stroke-width="1"/>
<circle cx="810.0" cy="78.0" r="5" fill="#f3f4f6" stroke="#9ca3af" stroke-width="1"/>
<circle cx="866.0" cy="78.0" r="5" fill="#f3f4f6" stroke="#9ca3af" stroke-width="1"/>
<circle cx="894.0" cy="78.0" r="5" fill="#f3f4f6" stroke="#9ca3af" stroke-width="1"/>
<circle cx="922.0" cy="78.0" r="5" fill="#f3f4f6" stroke="#9ca3af" stroke-width="1"/>
<circle cx="950.0" cy="78.0" r="5" fill="#f3f4f6" stroke="#9ca3af" stroke-width="1"/>
<circle cx="978.0" cy="78.0" r="5" fill="#f3f4f6" stroke="#9ca3af" stroke-width="1"/>
<circle cx="1034.0" cy="78.0" r="5" fill="#f3f4f6" stroke="#9ca3af" stroke-width="1"/>
<circle cx="1062.0" cy="78.0" r="5" fill="#f3f4f6" stroke="#9ca3af" stroke-width="1"/>
<circle cx="1090.0" cy="78.0" r="5" fill="#f3f4f6" stroke="#9ca3af" stroke-width="1"/>
<circle cx="1118.0" cy="78.0" r="5" fill="#f3f4f6" stroke="#9ca3af" stroke-width="1"/>
<circle cx="1146.0" cy="78.0" r="5" fill="#f3f4f6" stroke="#9ca3af" stroke-width="1"/>
<circle cx="1202.0" cy="78.0" r="5" fill="#f3f4f6" stroke="#9ca3af" stroke-width="1"/>
<circle cx="1230.0" cy="78.0" r="5" fill="#f3f4f6" stroke="#9ca3af" stroke-width="1"/>
<circle cx="1258.0" cy="78.0" r="5" fill="#f3f4f6" stroke="#9ca3af" stroke-width="1"/>
<circle cx="1286.0" cy="78.0" r="5" fill="#f3f4f6" stroke="#9ca3af" stroke-width="1"/>
<circle cx="1314.0" cy="78.0" r="5" fill="#f3f4f6" stroke="#9ca3af" stroke-width="1"/>
<circle cx="1370.0" cy="78.0" r="5" fill="#f3f4f6" stroke="#9ca3af" stroke-width="1"/>
<circle cx="1398.0" cy="78.0" r="5" fill="#f3f4f6" stroke="#9ca3af" stroke-width="1"/>
<circle cx="26.0" cy="870.0" r="5" fill="#f3f4f6" stroke="#9ca3af" stroke-width="1"/>
<circle cx="54.0" cy="870.0" r="5" fill="#f3f4f6" stroke="#9ca3af" stroke-width="1"/>
<circle cx="82.0" cy="870.0" r="5" fill="#f3f4f6" stroke="#9ca3af" stroke-width="1"/>
<circle cx="110.0" cy="870.0" r="5" fill="#f3f4f6" stroke="#9ca3af" stroke-width="1"/>
<circle cx="138.0" cy="870.0" r="5" fill="#f3f4f6" stroke="#9ca3af" stroke-width="1"/>
<circle cx="194.0" cy="870.0" r="5" fill="#f3f4f6" stroke="#9ca3af" stroke-width="1"/>
<circle cx="222.0" cy="870.0" r="5" fill="#f3f4f6" stroke="#9ca3af" stroke-width="1"/>
<circle cx="250.0" cy="870.0" r="5" fill="#f3f4f6" stroke="#9ca3af" stroke-width="1"/>
<circle cx="278.0" cy="870.0" r="5" fill="#f3f4f6" stroke="#9ca3af" stroke-width="1"/>
<circle cx="306.0" cy="870.0" r="5" fill="#f3f4f6" stroke="#9ca3af" stroke-width="1"/>
<circle cx="362.0" cy="870.0" r="5" fill="#f3f4f6" stroke="#9ca3af" stroke-width="1"/>
<circle cx="390.0" cy="870.0" r="5" fill="#f3f4f6" stroke="#9ca3af" stroke-width="1"/>
<circle cx="418.0" cy="870.0" r="5" fill="#f3f4f6" stroke="#9ca3af" stroke-width="1"/>
<circle cx="446.0" cy="870.0" r="5" fill="#f3f4f6" stroke="#9ca3af" stroke-width="1"/>
<circle cx="474.0" cy="870.0" r="5" fill="#f3f4f6" stroke="#9ca3af" stroke-width="1"/>
<circle cx="530.0" cy="870.0" r="5" fill="#f3f4f6" stroke="#9ca3af" stroke-width="1"/>
<circle cx="558.0" cy="870.0" r="5" fill="#f3f4f6" stroke="#9ca3af" stroke-width="1"/>
<circle cx="586.0" cy="870.0" r="5" fill="#f3f4f6" stroke="#9ca3af" stroke-width="1"/>
<circle cx="614.0" cy="870.0" r="5" fill="#f3f4f6" stroke="#9ca3af" stroke-width="1"/>
<circle cx="642.0" cy="870.0" r="5" fill="#f3f4f6" stroke="#9ca3af" stroke-width="1"/>
<circle cx="698.0" cy="870.0" r="5" fill="#f3f4f6" stroke="#9ca3af" stroke-width="1"/>
<circle cx="726.0" cy="870.0" r="5" fill="#f3f4f6" stroke="#9ca3af" stroke-width="1"/>
<circle cx="754.0" cy="870.0" r="5" fill="#f3f4f6" stroke="#9ca3af" stroke-width="1"/>
<circle cx="782.0" cy="870.0" r="5" fill="#f3f4f6" stroke="#9ca3af" stroke-width="1"/>
<circle cx="810.0" cy="870.0" r="5" fill="#f3f4f6" stroke="#9ca3af" stroke-width="1"/>
<circle cx="866.0" cy="870.0" r="5" fill="#f3f4f6" stroke="#9ca3af" stroke-width="1"/>
<circle cx="894.0" cy="870.0" r="5" fill="#f3f4f6" stroke="#9ca3af" stroke-width="1"/>
<circle cx="922.0" cy="870.0" r="5" fill="#f3f4f6" stroke="#9ca3af" stroke-width="1"/>
<circle cx="950.0" cy="870.0" r="5" fill="#f3f4f6" stroke="#9ca3af" stroke-width="1"/>
<circle cx="978.0" cy="870.0" r="5" fill="#f3f4f6" stroke="#9ca3af" stroke-width="1"/>
<circle cx="1034.0" cy="870.0" r="5" fill="#f3f4f6" stroke="#9ca3af" stroke-width="1"/>
<circle cx="1062.0" cy="870.0" r="5" fill="#f3f4f6" stroke="#9ca3af" stroke-width="1"/>
<circle cx="1090.0" cy="870.0" r="5" fill="#f3f4f6" stroke="#9ca3af" stroke-width="1"/>
<circle cx="1118.0" cy="870.0" r="5" fill="#f3f4f6" stroke="#9ca3af" stroke-width="1"/>
<circle cx="1146.0" cy="870.0" r="5" fill="#f3f4f6" stroke="#9ca3af" stroke-width="1"/>
<circle cx="1202.0" cy="870.0" r="5" fill="#f3f4f6" stroke="#9ca3af" stroke-width="1"/>
<circle cx="1230.0" cy="870.0" r="5" fill="#f3f4f6" stroke="#9ca3af" stroke-width="1"/>
<circle cx="1258.0" cy="870.0" r="5" fill="#f3f4f6" stroke="#9ca3af" stroke-width="1"/>
<circle cx="1286.0" cy="870.0" r="5" fill="#f3f4f6" stroke="#9ca3af" stroke-width="1"/>
<circle cx="1314.0" cy="870.0" r="5" fill="#f3f4f6" stroke="#9ca3af" stroke-width="1"/>
<circle cx="1370.0" cy="870.0" r="5" fill="#f3f4f6" stroke="#9ca3af" stroke-width="1"/>
<circle cx="1398.0" cy="870.0" r="5" fill="#f3f4f6" stroke="#9ca3af" stroke-width="1"/>
<circle cx="26.0" cy="210.0" r="5" fill="#ffffff" stroke="#cbd5e1" stroke-width="1"/>
<circle cx="54.0" cy="210.0" r="5" fill="#ffffff" stroke="#cbd5e1" stroke-width="1"/>
<circle cx="82.0" cy="210.0" r="5" fill="#ffffff" stroke="#cbd5e1" stroke-width="1"/>
<circle cx="110.0" cy="210.0" r="5" fill="#ffffff" stroke="#cbd5e1" stroke-width="1"/>
<circle cx="138.0" cy="210.0" r="5" fill="#ffffff" stroke="#cbd5e1" stroke-width="1"/>
<circle cx="166.0" cy="210.0" r="5" fill="#ffffff" stroke="#cbd5e1" stroke-width="1"/>
<circle cx="194.0" cy="210.0" r="5" fill="#ffffff" stroke="#cbd5e1" stroke-width="1"/>
<circle cx="222.0" cy="210.0" r="5" fill="#ffffff" stroke="#cbd5e1" stroke-width="1"/>
<circle cx="250.0" cy="210.0" r="5" fill="#ffffff" stroke="#cbd5e1" stroke-width="1"/>
<circle cx="278.0" cy="210.0" r="5" fill="#2563eb" stroke="#1e3a8a" stroke-width="1"/>
<circle cx="306.0" cy="210.0" r="5" fill="hsl(79,65%,42%)" stroke="#374151" stroke-width="1"/>
<circle cx="334.0" cy="210.0" r="5" fill="hsl(79,65%,42%)" stroke="#374151" stroke-width="1"/>
<circle cx="362.0" cy="210.0" r="5" fill="hsl(79,65%,42%)" stroke="#374151" stroke-width="1"/>
<circle cx="390.0" cy="210.0" r="5" fill="#2563eb" stroke="#1e3a8a" stroke-width="1"/>
<circle cx="418.0" cy="210.0" r="5" fill="#ffffff" stroke="#cbd5e1" stroke-width="1"/>
<circle cx="446.0" cy="210.0" r="5" fill="#ffffff" stroke="#cbd5e1" stroke-width="1"/>
<circle cx="474.0" cy="210.0" r="5" fill="#2563eb" stroke="#1e3a8a" stroke-width="1"/>
<circle cx="502.0" cy="210.0" r="5" fill="hsl(141,65%,42%)" stroke="#374151" stroke-width="1"/>
<circle cx="530.0" cy="210.0" r="5" fill="hsl(141,65%,42%)" stroke="#374151" stroke-width="1"/>
<circle cx="558.0" cy="210.0" r="5" fill="hsl(141,65%,42%)" stroke="#374151" stroke-width="1"/>
<circle cx="586.0" cy="210.0" r="5" fill="#2563eb" stroke="#1e3a8a" stroke-width="1"/>
<circle cx="614.0" cy="210.0" r="5" fill="#ffffff" stroke="#cbd5e1" stroke-width="1"/>
<circle cx="642.0" cy="210.0" r="5" fill="#2563eb" stroke="#1e3a8a" stroke-width="1"/>
<circle cx="670.0" cy="210.0" r="5" fill="hsl(251,65%,42%)" stroke="#374151" stroke-width="1"/>
<circle cx="698.0" cy="210.0" r="5" fill="hsl(251,65%,42%)" stroke="#374151" stroke-width="1"/>
<circle cx="726.0" cy="210.0" r="5" fill="hsl(251,65%,42%)" stroke="#374151" stroke-width="1"/>
<circle cx="754.0" cy="210.0" r="5" fill="#2563eb" stroke="#1e3a8a" stroke-width="1"/>
<circle cx="782.0" cy="210.0" r="5" fill="#ffffff" stroke="#cbd5e1" stroke-width="1"/>
<circle cx="810.0" cy="210.0" r="5" fill="#ffffff" stroke="#cbd5e1" stroke-width="1"/>
<circle cx="838.0" cy="210.0" r="5" fill="#ffffff" stroke="#cbd5e1" stroke-width="1"/>
<circle cx="866.0" cy="210.0" r="5" fill="#ffffff" stroke="#cbd5e1" stroke-width="1"/>
<circle cx="894.0" cy="210.0" r="5" fill="#ffffff" stroke="#cbd5e1" stroke-width="1"/>
<circle cx="922.0" cy="210.0" r="5" fill="#ffffff" stroke="#cbd5e1" stroke-width="1"/>
<circle cx="950.0" cy="210.0" r="5" fill="#ffffff" stroke="#cbd5e1" stroke-width="1"/>
<circle cx="978.0" cy="210.0" r="5" fill="#ffffff" stroke="#cbd5e1" stroke-width="1"/>
<circle cx="1006.0" cy="210.0" r="5" fill="#ffffff" stroke="#cbd5e1" stroke-width="1"/>
<circle cx="1034.0" cy="210.0" r="5" fill="#2563eb" stroke="#1e3a8a" stroke-width="1"/>
<circle cx="1062.0" cy="210.0" r="5" fill="hsl(157,65%,42%)" stroke="#374151" stroke-width="1"/>
<circle cx="1090.0" cy="210.0" r="5" fill="hsl(157,65%,42%)" stroke="#374151" stroke-width="1"/>
<circle cx="1118.0" cy="210.0" r="5" fill="hsl(157,65%,42%)" stroke="#374151" stroke-width="1"/>
<circle cx="1146.0" cy="210.0" r="5" fill="#2563eb" stroke="#1e3a8a" stroke-width="1"/>
<circle cx="1174.0" cy="210.0" r="5" fill="#ffffff" stroke="#cbd5e1" stroke-width="1"/>
<circle cx="1202.0" cy="210.0" r="5" fill="#ffffff" stroke="#cbd5e1" stroke-width="1"/>
<circle cx="1230.0" cy="210.0" r="5" fill="#ffffff" stroke="#cbd5e1" stroke-width="1"/>
<circle cx="1258.0" cy="210.0" r="5" fill="#ffffff" stroke="#cbd5e1" stroke-width="1"/>
<circle cx="1286.0" cy="210.0" r="5" fill="#ffffff" stroke="#cbd5e1" stroke-width="1"/>
<circle cx="1314.0" cy="210.0" r="5" fill="#ffffff" stroke="#cbd5e1" stroke-width="1"/>
<circle cx="1342.0" cy="210.0" r="5" fill="#ffffff" stroke="#cbd5e1" stroke-width="1"/>
<circle cx="1370.0" cy="210.0" r="5" fill="#ffffff" stroke="#cbd5e1" stroke-width="1"/>
<circle cx="1398.0" cy="210.0" r="5" fill="#ffffff" stroke="#cbd5e1" stroke-width="1"/>
<circle cx="26.0" cy="254.0" r="5" fill="#ffffff" stroke="#cbd5e1" stroke-width="1"/>
<circle cx="54.0" cy="254.0" r="5" fill="#2563eb" stroke="#1e3a8a" stroke-width="1"/>
<circle cx="82.0" cy="254.0" r="5" fill="hsl(298,65%,42%)" stroke="#374151" stroke-width="1"/>
<circle cx="110.0" cy="254.0" r="5" fill="hsl(298,65%,42%)" stroke="#374151" stroke-width="1"/>
<circle cx="138.0" cy="254.0" r="5" fill="hsl(298,65%,42%)" stroke="#374151" stroke-width="1"/>
<circle cx="166.0" cy="254.0" r="5" fill="#2563eb" stroke="#1e3a8a" stroke-width="1"/>
<circle cx="194.0" cy="254.0" r="5" fill="#ffffff" stroke="#cbd5e1" stroke-width="1"/>
<circle cx="222.0" cy="254.0" r="5" fill="#ffffff" stroke="#cbd5e1" stroke-width="1"/>
<circle cx="250.0" cy="254.0" r="5" fill="#ffffff" stroke="#cbd5e1" stroke-width="1"/>
<circle cx="278.0" cy="254.0" r="5" fill="#ffffff" stroke="#cbd5e1" stroke-width="1"/>
<circle cx="306.0" cy="254.0" r="5" fill="#ffffff" stroke="#cbd5e1" stroke-width="1"/>
<circle cx="334.0" cy="254.0" r="5" fill="#ffffff" stroke="#cbd5e1" stroke-width="1"/>
<circle cx="362.0" cy="254.0" r="5" fill="#ffffff" stroke="#cbd5e1" stroke-width="1"/>
<circle cx="390.0" cy="254.0" r="5" fill="#ffffff" stroke="#cbd5e1" stroke-width="1"/>
<circle cx="418.0" cy="254.0" r="5" fill="#2563eb" stroke="#1e3a8a" stroke-width="1"/>
<circle cx="446.0" cy="254.0" r="5" fill="#2563eb" stroke="#1e3a8a" stroke-width="1"/>
<circle cx="474.0" cy="254.0" r="5" fill="#2563eb" stroke="#1e3a8a" stroke-width="1"/>
<circle cx="502.0" cy="254.0" r="5" fill="#ffffff" stroke="#cbd5e1" stroke-width="1"/>
<circle cx="530.0" cy="254.0" r="5" fill="#ffffff" stroke="#cbd5e1" stroke-width="1"/>
<circle cx="558.0" cy="254.0" r="5" fill="#ffffff" stroke="#cbd5e1" stroke-width="1"/>
<circle cx="586.0" cy="254.0" r="5" fill="#ffffff" stroke="#cbd5e1" stroke-width="1"/>
<circle cx="614.0" cy="254.0" r="5" fill="#ffffff" stroke="#cbd5e1" stroke-width="1"/>
<circle cx="642.0" cy="254.0" r="5" fill="#ffffff" stroke="#cbd5e1" stroke-width="1"/>
<circle cx="670.0" cy="254.0" r="5" fill="#2563eb" stroke="#1e3a8a" stroke-width="1"/>
<circle cx="698.0" cy="254.0" r="5" fill="#2563eb" stroke="#1e3a8a" stroke-width="1"/>
<circle cx="726.0" cy="254.0" r="5" fill="#2563eb" stroke="#1e3a8a" stroke-width="1"/>
<circle cx="754.0" cy="254.0" r="5" fill="#ffffff" stroke="#cbd5e1" stroke-width="1"/>
<circle cx="782.0" cy="254.0" r="5" fill="#ffffff" stroke="#cbd5e1" stroke-width="1"/>
<circle cx="810.0" cy="254.0" r="5" fill="#ffffff" stroke="#cbd5e1" stroke-width="1"/>
<circle cx="838.0" cy="254.0" r="5" fill="#ffffff" stroke="#cbd5e1" stroke-width="1"/>
<circle cx="866.0" cy="254.0" r="5" fill="#ffffff" stroke="#cbd5e1" stroke-width="1"/>
<circle cx="894.0" cy="254.0" r="5" fill="#ffffff" stroke="#cbd5e1" stroke-width="1"/>
<circle cx="922.0" cy="254.0" r="5" fill="#ffffff" stroke="#cbd5e1" stroke-width="1"/>
<circle cx="950.0" cy="254.0" r="5" fill="#ffffff" stroke="#cbd5e1" stroke-width="1"/>
<circle cx="978.0" cy="254.0" r="5" fill="#ffffff" stroke="#cbd5e1" stroke-width="1"/>
<circle cx="1006.0" cy="254.0" r="5" fill="#ffffff" stroke="#cbd5e1" stroke-width="1"/>
<circle cx="1034.0" cy="254.0" r="5" fill="#ffffff" stroke="#cbd5e1" stroke-width="1"/>
<circle cx="1062.0" cy="254.0" r="5" fill="#2563eb" stroke="#1e3a8a" stroke-width="1"/>
<circle cx="1090.0" cy="254.0" r="5" fill="hsl(204,65%,42%)" stroke="#374151" stroke-width="1"/>
<circle cx="1118.0" cy="254.0" r="5" fill="hsl(204,65%,42%)" stroke="#374151" stroke-width="1"/>
<circle cx="1146.0" cy="254.0" r="5" fill="hsl(204,65%,42%)" stroke="#374151" stroke-width="1"/>
<circle cx="1174.0" cy="254.0" r="5" fill="#2563eb" stroke="#1e3a8a" stroke-width="1"/>
<circle cx="1202.0" cy="254.0" r="5" fill="#ffffff" stroke="#cbd5e1" stroke-width="1"/>
<circle cx="1230.0" cy="254.0" r="5" fill="#ffffff" stroke="#cbd5e1" stroke-width="1"/>
<circle cx="1258.0" cy="254.0" r="5" fill="#ffffff" stroke="#cbd5e1" stroke-width="1"/>
<circle cx="1286.0" cy="254.0" r="5" fill="#ffffff" stroke="#cbd5e1" stroke-width="1"/>
<circle cx="1314.0" cy="254.0" r="5" fill="#ffffff" stroke="#cbd5e1" stroke-width="1"/>
<circle cx="1342.0" cy="254.0" r="5" fill="#ffffff" stroke="#cbd5e1" stroke-width="1"/>
<circle cx="1370.0" cy="254.0" r="5" fill="#ffffff" stroke="#cbd5e1" stroke-width="1"/>
<circle cx="1398.0" cy="254.0" r="5" fill="#ffffff" stroke="#cbd5e1" stroke-width="1"/>
<circle cx="26.0" cy="298.0" r="5" fill="#ffffff" stroke="#cbd5e1" stroke-width="1"/>
<circle cx="54.0" cy="298.0" r="5" fill="#ffffff" stroke="#cbd5e1" stroke-width="1"/>
<circle cx="82.0" cy="298.0" r="5" fill="#ffffff" stroke="#cbd5e1" stroke-width="1"/>
<circle cx="110.0" cy="298.0" r="5" fill="#ffffff" stroke="#cbd5e1" stroke-width="1"/>
<circle cx="138.0" cy="298.0" r="5" fill="#ffffff" stroke="#cbd5e1" stroke-width="1"/>
<circle cx="166.0" cy="298.0" r="5" fill="#ffffff" stroke="#cbd5e1" stroke-width="1"/>
<circle cx="194.0" cy="298.0" r="5" fill="#ffffff" stroke="#cbd5e1" stroke-width="1"/>
<circle cx="222.0" cy="298.0" r="5" fill="#ffffff" stroke="#cbd5e1" stroke-width="1"/>
<circle cx="250.0" cy="298.0" r="5" fill="#ffffff" stroke="#cbd5e1" stroke-width="1"/>
<circle cx="278.0" cy="298.0" r="5" fill="#ffffff" stroke="#cbd5e1" stroke-width="1"/>
<circle cx="306.0" cy="298.0" r="5" fill="#2563eb" stroke="#1e3a8a" stroke-width="1"/>
<circle cx="334.0" cy="298.0" r="5" fill="hsl(345,65%,42%)" stroke="#374151" stroke-width="1"/>
<circle cx="362.0" cy="298.0" r="5" fill="hsl(345,65%,42%)" stroke="#374151" stroke-width="1"/>
<circle cx="390.0" cy="298.0" r="5" fill="hsl(345,65%,42%)" stroke="#374151" stroke-width="1"/>
<circle cx="418.0" cy="298.0" r="5" fill="#2563eb" stroke="#1e3a8a" stroke-width="1"/>
<circle cx="446.0" cy="298.0" r="5" fill="#ffffff" stroke="#cbd5e1" stroke-width="1"/>
<circle cx="474.0" cy="298.0" r="5" fill="#ffffff" stroke="#cbd5e1" stroke-width="1"/>
<circle cx="502.0" cy="298.0" r="5" fill="#ffffff" stroke="#cbd5e1" stroke-width="1"/>
<circle cx="530.0" cy="298.0" r="5" fill="#2563eb" stroke="#1e3a8a" stroke-width="1"/>
<circle cx="558.0" cy="298.0" r="5" fill="#2563eb" stroke="#1e3a8a" stroke-width="1"/>
<circle cx="586.0" cy="298.0" r="5" fill="#2563eb" stroke="#1e3a8a" stroke-width="1"/>
<circle cx="614.0" cy="298.0" r="5" fill="#ffffff" stroke="#cbd5e1" stroke-width="1"/>
<circle cx="642.0" cy="298.0" r="5" fill="#ffffff" stroke="#cbd5e1" stroke-width="1"/>
<circle cx="670.0" cy="298.0" r="5" fill="#2563eb" stroke="#1e3a8a" stroke-width="1"/>
<circle cx="698.0" cy="298.0" r="5" fill="hsl(47,65%,42%)" stroke="#374151" stroke-width="1"/>
<circle cx="726.0" cy="298.0" r="5" fill="hsl(47,65%,42%)" stroke="#374151" stroke-width="1"/>
<circle cx="754.0" cy="298.0" r="5" fill="hsl(47,65%,42%)" stroke="#374151" stroke-width="1"/>
<circle cx="782.0" cy="298.0" r="5" fill="#2563eb" stroke="#1e3a8a" stroke-width="1"/>
<circle cx="810.0" cy="298.0" r="5" fill="#ffffff" stroke="#cbd5e1" stroke-width="1"/>
<circle cx="838.0" cy="298.0" r="5" fill="#ffffff" stroke="#cbd5e1" stroke-width="1"/>
<circle cx="866.0" cy="298.0" r="5" fill="#ffffff" stroke="#cbd5e1" stroke-width="1"/>
<circle cx="894.0" cy="298.0" r="5" fill="#ffffff" stroke="#cbd5e1" stroke-width="1"/>
<circle cx="922.0" cy="298.0" r="5" fill="#ffffff" stroke="#cbd5e1" stroke-width="1"/>
<circle cx="950.0" cy="298.0" r="5" fill="#ffffff" stroke="#cbd5e1" stroke-width="1"/>
<circle cx="978.0" cy="298.0" r="5" fill="#ffffff" stroke="#cbd5e1" stroke-width="1"/>
<circle cx="1006.0" cy="298.0" r="5" fill="#ffffff" stroke="#cbd5e1" stroke-width="1"/>
<circle cx="1034.0" cy="298.0" r="5" fill="#ffffff" stroke="#cbd5e1" stroke-width="1"/>
<circle cx="1062.0" cy="298.0" r="5" fill="#ffffff" stroke="#cbd5e1" stroke-width="1"/>
<circle cx="1090.0" cy="298.0" r="5" fill="#ffffff" stroke="#cbd5e1" stroke-width="1"/>
<circle cx="1118.0" cy="298.0" r="5" fill="#ffffff" stroke="#cbd5e1" stroke-width="1"/>
<circle cx="1146.0" cy="298.0" r="5" fill="#ffffff" stroke="#cbd5e1" stroke-width="1"/>
<circle cx="1174.0" cy="298.0" r="5" fill="#ffffff" stroke="#cbd5e1" stroke-width="1"/>
<circle cx="1202.0" cy="298.0" r="5" fill="#ffffff" stroke="#cbd5e1" stroke-width="1"/>
<circle cx="1230.0" cy="298.0" r="5" fill="#ffffff" stroke="#cbd5e1" stroke-width="1"/>
<circle cx="1258.0" cy="298.0" r="5" fill="#ffffff" stroke="#cbd5e1" stroke-width="1"/>
<circle cx="1286.0" cy="298.0" r="5" fill="#2563eb" stroke="#1e3a8a" stroke-width="1"/>
<circle cx="1314.0" cy="298.0" r="5" fill="hsl(110,65%,42%)" stroke="#374151" stroke-width="1"/>
<circle cx="1342.0" cy="298.0" r="5" fill="hsl(110,65%,42%)" stroke="#374151" stroke-width="1"/>
<circle cx="1370.0" cy="298.0" r="5" fill="hsl(110,65%,42%)" stroke="#374151" stroke-width="1"/>
<circle cx="1398.0" cy="298.0" r="5" fill="#2563eb" stroke="#1e3a8a" stroke-width="1"/>
<circle cx="26.0" cy="342.0" r="5" fill="#ffffff" stroke="#cbd5e1" stroke-width="1"/>
<circle cx="54.0" cy="342.0" r="5" fill="#ffffff" stroke="#cbd5e1" stroke-width="1"/>
<circle cx="82.0" cy="342.0" r="5" fill="#ffffff" stroke="#cbd5e1" stroke-width="1"/>
<circle cx="110.0" cy="342.0" r="5" fill="#ffffff" stroke="#cbd5e1" stroke-width="1"/>
<circle cx="138.0" cy="342.0" r="5" fill="#ffffff" stroke="#cbd5e1" stroke-width="1"/>
<circle cx="166.0" cy="342.0" r="5" fill="#ffffff" stroke="#cbd5e1" stroke-width="1"/>
<circle cx="194.0" cy="342.0" r="5" fill="#ffffff" stroke="#cbd5e1" stroke-width="1"/>
<circle cx="222.0" cy="342.0" r="5" fill="#ffffff" stroke="#cbd5e1" stroke-width="1"/>
<circle cx="250.0" cy="342.0" r="5" fill="#ffffff" stroke="#cbd5e1" stroke-width="1"/>
<circle cx="278.0" cy="342.0" r="5" fill="#ffffff" stroke="#cbd5e1" stroke-width="1"/>
<circle cx="306.0" cy="342.0" r="5" fill="#ffffff" stroke="#cbd5e1" stroke-width="1"/>
<circle cx="334.0" cy="342.0" r="5" fill="#ffffff" stroke="#cbd5e1" stroke-width="1"/>
<circle cx="362.0" cy="342.0" r="5" fill="#ffffff" stroke="#cbd5e1" stroke-width="1"/>
<circle cx="390.0" cy="342.0" r="5" fill="#ffffff" stroke="#cbd5e1" stroke-width="1"/>
<circle cx="418.0" cy="342.0" r="5" fill="#ffffff" stroke="#cbd5e1" stroke-width="1"/>
<circle cx="446.0" cy="342.0" r="5" fill="#ffffff" stroke="#cbd5e1" stroke-width="1"/>
<circle cx="474.0" cy="342.0" r="5" fill="#ffffff" stroke="#cbd5e1" stroke-width="1"/>
<circle cx="502.0" cy="342.0" r="5" fill="#2563eb" stroke="#1e3a8a" stroke-width="1"/>
<circle cx="530.0" cy="342.0" r="5" fill="hsl(32,65%,42%)" stroke="#374151" stroke-width="1"/>
<circle cx="558.0" cy="342.0" r="5" fill="hsl(32,65%,42%)" stroke="#374151" stroke-width="1"/>
<circle cx="586.0" cy="342.0" r="5" fill="hsl(32,65%,42%)" stroke="#374151" stroke-width="1"/>
<circle cx="614.0" cy="342.0" r="5" fill="#2563eb" stroke="#1e3a8a" stroke-width="1"/>
<circle cx="642.0" cy="342.0" r="5" fill="#ffffff" stroke="#cbd5e1" stroke-width="1"/>
<circle cx="670.0" cy="342.0" r="5" fill="#ffffff" stroke="#cbd5e1" stroke-width="1"/>
<circle cx="698.0" cy="342.0" r="5" fill="#ffffff" stroke="#cbd5e1" stroke-width="1"/>
<circle cx="726.0" cy="342.0" r="5" fill="#ffffff" stroke="#cbd5e1" stroke-width="1"/>
<circle cx="754.0" cy="342.0" r="5" fill="#ffffff" stroke="#cbd5e1" stroke-width="1"/>
<circle cx="782.0" cy="342.0" r="5" fill="#ffffff" stroke="#cbd5e1" stroke-width="1"/>
<circle cx="810.0" cy="342.0" r="5" fill="#2563eb" stroke="#1e3a8a" stroke-width="1"/>
<circle cx="838.0" cy="342.0" r="5" fill="hsl(0,65%,42%)" stroke="#374151" stroke-width="1"/>
<circle cx="866.0" cy="342.0" r="5" fill="hsl(0,65%,42%)" stroke="#374151" stroke-width="1"/>
<circle cx="894.0" cy="342.0" r="5" fill="hsl(0,65%,42%)" stroke="#374151" stroke-width="1"/>
<circle cx="922.0" cy="342.0" r="5" fill="#2563eb" stroke="#1e3a8a" stroke-width="1"/>
<circle cx="950.0" cy="342.0" r="5" fill="#ffffff" stroke="#cbd5e1" stroke-width="1"/>
<circle cx="978.0" cy="342.0" r="5" fill="#ffffff" stroke="#cbd5e1" stroke-width="1"/>
<circle cx="1006.0" cy="342.0" r="5" fill="#ffffff" stroke="#cbd5e1" stroke-width="1"/>
<circle cx="1034.0" cy="342.0" r="5" fill="#ffffff" stroke="#cbd5e1" stroke-width="1"/>
<circle cx="1062.0" cy="342.0" r="5" fill="#ffffff" stroke="#cbd5e1" stroke-width="1"/>
<circle cx="1090.0" cy="342.0" r="5" fill="#ffffff" stroke="#cbd5e1" stroke-width="1"/>
<circle cx="1118.0" cy="342.0" r="5" fill="#ffffff" stroke="#cbd5e1" stroke-width="1"/>
<circle cx="1146.0" cy="342.0" r="5" fill="#ffffff" stroke="#cbd5e1" stroke-width="1"/>
<circle cx="1174.0" cy="342.0" r="5" fill="#ffffff" stroke="#cbd5e1" stroke-width="1"/>
<circle cx="1202.0" cy="342.0" r="5" fill="#2563eb" stroke="#1e3a8a" stroke-width="1"/>
<circle cx="1230.0" cy="342.0" r="5" fill="#2563eb" stroke="#1e3a8a" stroke-width="1"/>
<circle cx="1258.0" cy="342.0" r="5" fill="#2563eb" stroke="#1e3a8a" stroke-width="1"/>
<circle cx="1286.0" cy="342.0" r="5" fill="#ffffff" stroke="#cbd5e1" stroke-width="1"/>
<circle cx="1314.0" cy="342.0" r="5" fill="#ffffff" stroke="#cbd5e1" stroke-width="1"/>
<circle cx="1342.0" cy="342.0" r="5" fill="#ffffff" stroke="#cbd5e1" stroke-width="1"/>
<circle cx="1370.0" cy="342.0" r="5" fill="#ffffff" stroke="#cbd5e1" stroke-width="1"/>
<circle cx="1398.0" cy="342.0" r="5" fill="#ffffff" stroke="#cbd5e1" stroke-width="1"/>
<circle cx="26.0" cy="386.0" r="5" fill="#ffffff" stroke="#cbd5e1" stroke-width="1"/>
<circle cx="54.0" cy="386.0" r="5" fill="#ffffff" stroke="#cbd5e1" stroke-width="1"/>
<circle cx="82.0" cy="386.0" r="5" fill="#ffffff" stroke="#cbd5e1" stroke-width="1"/>
<circle cx="110.0" cy="386.0" r="5" fill="#ffffff" stroke="#cbd5e1" stroke-width="1"/>
<circle cx="138.0" cy="386.0" r="5" fill="#ffffff" stroke="#cbd5e1" stroke-width="1"/>
<circle cx="166.0" cy="386.0" r="5" fill="#ffffff" stroke="#cbd5e1" stroke-width="1"/>
<circle cx="194.0" cy="386.0" r="5" fill="#2563eb" stroke="#1e3a8a" stroke-width="1"/>
<circle cx="222.0" cy="386.0" r="5" fill="#2563eb" stroke="#1e3a8a" stroke-width="1"/>
<circle cx="250.0" cy="386.0" r="5" fill="#2563eb" stroke="#1e3a8a" stroke-width="1"/>
<circle cx="278.0" cy="386.0" r="5" fill="#ffffff" stroke="#cbd5e1" stroke-width="1"/>
<circle cx="306.0" cy="386.0" r="5" fill="#ffffff" stroke="#cbd5e1" stroke-width="1"/>
<circle cx="334.0" cy="386.0" r="5" fill="#ffffff" stroke="#cbd5e1" stroke-width="1"/>
<circle cx="362.0" cy="386.0" r="5" fill="#ffffff" stroke="#cbd5e1" stroke-width="1"/>
<circle cx="390.0" cy="386.0" r="5" fill="#ffffff" stroke="#cbd5e1" stroke-width="1"/>
<circle cx="418.0" cy="386.0" r="5" fill="#2563eb" stroke="#1e3a8a" stroke-width="1"/>
<circle cx="446.0" cy="386.0" r="5" fill="hsl(94,65%,42%)" stroke="#374151" stroke-width="1"/>
<circle cx="474.0" cy="386.0" r="5" fill="hsl(94,65%,42%)" stroke="#374151" stroke-width="1"/>
<circle cx="502.0" cy="386.0" r="5" fill="hsl(94,65%,42%)" stroke="#374151" stroke-width="1"/>
<circle cx="530.0" cy="386.0" r="5" fill="#2563eb" stroke="#1e3a8a" stroke-width="1"/>
<circle cx="558.0" cy="386.0" r="5" fill="#ffffff" stroke="#cbd5e1" stroke-width="1"/>
<circle cx="586.0" cy="386.0" r="5" fill="#ffffff" stroke="#cbd5e1" stroke-width="1"/>
<circle cx="614.0" cy="386.0" r="5" fill="#ffffff" stroke="#cbd5e1" stroke-width="1"/>
<circle cx="642.0" cy="386.0" r="5" fill="#ffffff" stroke="#cbd5e1" stroke-width="1"/>
<circle cx="670.0" cy="386.0" r="5" fill="#ffffff" stroke="#cbd5e1" stroke-width="1"/>
<circle cx="698.0" cy="386.0" r="5" fill="#ffffff" stroke="#cbd5e1" stroke-width="1"/>
<circle cx="726.0" cy="386.0" r="5" fill="#ffffff" stroke="#cbd5e1" stroke-width="1"/>
<circle cx="754.0" cy="386.0" r="5" fill="#ffffff" stroke="#cbd5e1" stroke-width="1"/>
<circle cx="782.0" cy="386.0" r="5" fill="#ffffff" stroke="#cbd5e1" stroke-width="1"/>
<circle cx="810.0" cy="386.0" r="5" fill="#ffffff" stroke="#cbd5e1" stroke-width="1"/>
<circle cx="838.0" cy="386.0" r="5" fill="#ffffff" stroke="#cbd5e1" stroke-width="1"/>
<circle cx="866.0" cy="386.0" r="5" fill="#2563eb" stroke="#1e3a8a" stroke-width="1"/>
<circle cx="894.0" cy="386.0" r="5" fill="#2563eb" stroke="#1e3a8a" stroke-width="1"/>
<circle cx="922.0" cy="386.0" r="5" fill="#2563eb" stroke="#1e3a8a" stroke-width="1"/>
<circle cx="950.0" cy="386.0" r="5" fill="#ffffff" stroke="#cbd5e1" stroke-width="1"/>
<circle cx="978.0" cy="386.0" r="5" fill="#ffffff" stroke="#cbd5e1" stroke-width="1"/>
<circle cx="1006.0" cy="386.0" r="5" fill="#ffffff" stroke="#cbd5e1" stroke-width="1"/>
<circle cx="1034.0" cy="386.0" r="5" fill="#ffffff" stroke="#cbd5e1" stroke-width="1"/>
<circle cx="1062.0" cy="386.0" r="5" fill="#ffffff" stroke="#cbd5e1" stroke-width="1"/>
<circle cx="1090.0" cy="386.0" r="5" fill="#ffffff" stroke="#cbd5e1" stroke-width="1"/>
<circle cx="1118.0" cy="386.0" r="5" fill="#ffffff" stroke="#cbd5e1" stroke-width="1"/>
<circle cx="1146.0" cy="386.0" r="5" fill="#ffffff" stroke="#cbd5e1" stroke-width="1"/>
<circle cx="1174.0" cy="386.0" r="5" fill="#ffffff" stroke="#cbd5e1" stroke-width="1"/>
<circle cx="1202.0" cy="386.0" r="5" fill="#ffffff" stroke="#cbd5e1" stroke-width="1"/>
<circle cx="1230.0" cy="386.0" r="5" fill="#ffffff" stroke="#cbd5e1" stroke-width="1"/>
<circle cx="1258.0" cy="386.0" r="5" fill="#ffffff" stroke="#cbd5e1" stroke-width="1"/>
<circle cx="1286.0" cy="386.0" r="5" fill="#ffffff" stroke="#cbd5e1" stroke-width="1"/>
<circle cx="1314.0" cy="386.0" r="5" fill="#ffffff" stroke="#cbd5e1" stroke-width="1"/>
<circle cx="1342.0" cy="386.0" r="5" fill="#ffffff" stroke="#cbd5e1" stroke-width="1"/>
<circle cx="1370.0" cy="386.0" r="5" fill="#ffffff" stroke="#cbd5e1" stroke-width="1"/>
<circle cx="1398.0" cy="386.0" r="5" fill="#ffffff" stroke="#cbd5e1" stroke-width="1"/>
</svg>
