<svg xmlns="http://www.w3.org/2000/svg" viewBox="0 0 864 904" font-family="sans-serif">
<rect width="100%" height="100%" fill="#fafafa"/>
<rect x="12" y="408.0" width="840" height="308.0" fill="#e2e8f0" stroke="#94a3b8" stroke-width="0.5"/>
<rect x="12" y="100.0" width="840" height="88.0" fill="#e2e8f0" stroke="#94a3b8" stroke-width="0.5"/>
<rect x="12" y="716.0" width="840" height="88.0" fill="#e2e8f0" stroke="#94a3b8" stroke-width="0.5"/>
<rect x="12.0" y="12.0" width="140.0" height="44" fill="#2563eb" fill-opacity="0.10" stroke="#2563eb" stroke-width="0.6" stroke-dasharray="3,2"/>
<rect x="180.0" y="12.0" width="140.0" height="44" fill="#2563eb" fill-opacity="0.10" stroke="#2563eb" stroke-width="0.6" stroke-dasharray="3,2"/>
<rect x="348.0" y="12.0" width="140.0" height="44" fill="#2563eb" fill-opacity="0.10" stroke="#2563eb" stroke-width="0.6" stroke-dasharray="3,2"/>
<rect x="516.0" y="12.0" width="140.0" height="44" fill="#2563eb" fill-opacity="0.10" stroke="#2563eb" stroke-width="0.6" stroke-dasharray="3,2"/>
<rect x="684.0" y="12.0" width="140.0" height="44" fill="#2563eb" fill-opacity="0.10" stroke="#2563eb" stroke-width="0.6" stroke-dasharray="3,2"/>
<text x="9" y="34.0" font-size="11" font-weight="bold" fill="#2563eb" text-anchor="end" dominant-baseline="central">−</text>
<rect x="12.0" y="56.0" width="140.0" height="44" fill="#dc2626" fill-opacity="0.10" stroke="#dc2626" stroke-width="0.6" stroke-dasharray="3,2"/>
<rect x="180.0" y="56.0" width="140.0" height="44" fill="#dc2626" fill-opacity="0.10" stroke="#dc2626" stroke-width="0.6" stroke-dasharray="3,2"/>
<rect x="348.0" y="56.0" width="140.0" height="44" fill="#dc2626" fill-opacity="0.10" stroke="#dc2626" stroke-width="0.6" stroke-dasharray="3,2"/>
<rect x="516.0" y="56.0" width="140.0" height="44" fill="#dc2626" fill-opacity="0.10" stroke="#dc2626" stroke-width="0.6" stroke-dasharray="3,2"/>
<rect x="684.0" y="56.0" width="140.0" height="44" fill="#dc2626" fill-opacity="0.10" stroke="#dc2626" stroke-width="0.6" stroke-dasharray="3,2"/>
<text x="9" y="78.0" font-size="11" font-weight="bold" fill="#dc2626" text-anchor="end" dominant-baseline="central">+</text>
<rect x="12.0" y="804.0" width="140.0" height="44" fill="#2563eb" fill-opacity="0.10" stroke="#2563eb" stroke-width="0.6" stroke-dasharray="3,2"/>
<rect x="180.0" y="804.0" width="140.0" height="44" fill="#2563eb" fill-opacity="0.10" stroke="#2563eb" stroke-width="0.6" stroke-dasharray="3,2"/>
<rect x="348.0" y="804.0" width="140.0" height="44" fill="#2563eb" fill-opacity="0.10" stroke="#2563eb" stroke-width="0.6" stroke-dasharray="3,2"/>
<rect x="516.0" y="804.0" width="140.0" height="44" fill="#2563eb" fill-opacity="0.10" stroke="#2563eb" stroke-width="0.6" stroke-dasharray="3,2"/>
<rect x="684.0" y="804.0" width="140.0" height="44" fill="#2563eb" fill-opacity="0.10" stroke="#2563eb" stroke-width="0.6" stroke-dasharray="3,2"/>
<text x="9" y="826.0" font-size="11" font-weight="bold" fill="#2563eb" text-anchor="end" dominant-baseline="central">−</text>
<rect x="12.0" y="848.0" width="140.0" height="44" fill="#dc2626" fill-opacity="0.10" stroke="#dc2626" stroke-width="0.6" stroke-dasharray="3,2"/>
<rect x="180.0" y="848.0" width="140.0" height="44" fill="#dc2626" fill-opacity="0.10" stroke="#dc2626" stroke-width="0.6" stroke-dasharray="3,2"/>
<rect x="348.0" y="848.0" width="140.0" height="44" fill="#dc2626" fill-opacity="0.10" stroke="#dc2626" stroke-width="0.6" stroke-dasharray="3,2"/>
<rect x="516.0" y="848.0" width="140.0" height="44" fill="#dc2626" fill-opacity="0.10" stroke="#dc2626" stroke-width="0.6" stroke-dasharray="3,2"/>
<rect x="684.0" y="848.0" width="140.0" height="44" fill="#dc2626" fill-opacity="0.10" stroke="#dc2626" stroke-width="0.6" stroke-dasharray="3,2"/>
<text x="9" y="870.0" font-size="11" font-weight="bold" fill="#dc2626" text-anchor="end" dominant-baseline="central">+</text>
<rect x="292.0" y="188.0" width="56.0" height="44.0" rx="4" fill="hsl(0,65%,42%)" fill-opacity="0.18" stroke="hsl(0,65%,42%)" stroke-width="1.5"/>
<text x="320.0" y="210.0" font-size="13" font-weight="bold" fill="hsl(0,65%,42%)" text-anchor="middle" dominant-baseline="central">D1</text>
<rect x="208.0" y="188.0" width="84.0" height="44.0" rx="4" fill="hsl(47,65%,42%)" fill-opacity="0.18" stroke="hsl(47,65%,42%)" stroke-width="1.5"/>
<text x="250.0" y="210.0" font-size="13" font-weight="bold" fill="hsl(47,65%,42%)" text-anchor="middle" dominant-baseline="central">Q1</text>
<rect x="348.0" y="188.0" width="112.0" height="44.0" rx="4" fill="hsl(94,65%,42%)" fill-opacity="0.18" stroke="hsl(94,65%,42%)" stroke-width="1.5"/>
<text x="404.0" y="210.0" font-size="13" font-weight="bold" fill="hsl(94,65%,42%)" text-anchor="middle" dominant-baseline="central">R1</text>
<path d="M 334.0 254.0 L 334.0 269.7 L 362.0 269.7 L 362.0 254.0" fill="none" stroke="hsl(0,65%,48%)" stroke-width="2" stroke-linecap="round" stroke-linejoin="round" opacity="0.9"/>
<text x="348.0" y="269.7" font-size="9" fill="hsl(0,65%,48%)" stroke="#fafafa" stroke-width="3" paint-order="stroke" stroke-linejoin="round" text-anchor="middle" dominant-baseline="central">Net-(D1-A)</text>
<path d="M 278.0 254.0 L 278.0 264.7 L 306.0 264.7 L 306.0 254.0" fill="none" stroke="hsl(73,65%,48%)" stroke-width="2" stroke-linecap="round" stroke-linejoin="round" opacity="0.9"/>
<text x="292.0" y="264.7" font-size="9" fill="hsl(73,65%,48%)" stroke="#fafafa" stroke-width="3" paint-order="stroke" stroke-linejoin="round" text-anchor="middle" dominant-baseline="central">Net-(D1-K)</text>
<circle cx="26.0" cy="34.0" r="5" fill="#f3f4f6" stroke="#9ca3af" stroke-width="1"/>
<circle cx="54.0" cy="34.0" r="5" fill="#f3f4f6" stroke="#9ca3af" stroke-width="1"/>
<circle cx="82.0" cy="34.0" r="5" fill="#f3f4f6" stroke="#9ca3af" stroke-width="1"/>
<circle cx="110.0" cy="34.0" r="5" fill="#f3f4f6" stroke="#9ca3af" stroke-width="1"/>
<circle cx="138.0" cy="34.0" r="5" fill="#f3f4f6" stroke="#9ca3af" stroke-width="1"/>
<circle cx="194.0" cy="34.0" r="5" fill="#f3f4f6" stroke="#9ca3af" stroke-width="1"/>
<circle cx="222.0" cy="34.0" r="5" fill="#f3f4f6" stroke="#9ca3af" stroke-width="1"/>
<circle cx="250.0" cy="34.0" r="5" fill="#f3f4f6" stroke="#9ca3af" stroke-width="1"/>
<circle cx="278.0" cy="34.0" r="5" fill="#f3f4f6" stroke="#9ca3af" stroke-width="1"/>
<circle cx="306.0" cy="34.0" r="5" fill="#f3f4f6" stroke="#9ca3af" stroke-width="1"/>
<circle cx="362.0" cy="34.0" r="5" fill="#f3f4f6" stroke="#9ca3af" stroke-width="1"/>
<circle cx="390.0" cy="34.0" r="5" fill="#f3f4f6" stroke="#9ca3af" stroke-width="1"/>
<circle cx="418.0" cy="34.0" r="5" fill="#f3f4f6" stroke="#9ca3af" stroke-width="1"/>
<circle cx="446.0" cy="34.0" r="5" fill="#f3f4f6" stroke="#9ca3af" stroke-width="1"/>
<circle cx="474.0" cy="34.0" r="5" fill="#f3f4f6" stroke="#9ca3af" stroke-width="1"/>
<circle cx="530.0" cy="34.0" r="5" fill="#f3f4f6" stroke="#9ca3af" stroke-width="1"/>
<circle cx="558.0" cy="34.0" r="5" fill="#f3f4f6" stroke="#9ca3af" stroke-width="1"/>
<circle cx="586.0" cy="34.0" r="5" fill="#f3f4f6" stroke="#9ca3af" stroke-width="1"/>
<circle cx="614.0" cy="34.0" r="5" fill="#f3f4f6" stroke="#9ca3af" stroke-width="1"/>
<circle cx="642.0" cy="34.0" r="5" fill="#f3f4f6" stroke="#9ca3af" stroke-width="1"/>
<circle cx="698.0" cy="34.0" r="5" fill="#f3f4f6" stroke="#9ca3af" stroke-width="1"/>
<circle cx="726.0" cy="34.0" r="5" fill="#f3f4f6" stroke="#9ca3af" stroke-width="1"/>
<circle cx="754.0" cy="34.0" r="5" fill="#f3f4f6" stroke="#9ca3af" stroke-width="1"/>
<circle cx="782.0" cy="34.0" r="5" fill="#f3f4f6" stroke="#9ca3af" stroke-width="1"/>
<circle cx="810.0" cy="34.0" r="5" fill="#f3f4f6" stroke="#9ca3af" stroke-width="1"/>
<circle cx="26.0" cy="826.0" r="5" fill="#f3f4f6" stroke="#9ca3af" stroke-width="1"/>
<circle cx="54.0" cy="826.0" r="5" fill="#f3f4f6" stroke="#9ca3af" stroke-width="1"/>
<circle cx="82.0" cy="826.0" r="5" fill="#f3f4f6" stroke="#9ca3af" stroke-width="1"/>
<circle cx="110.0" cy="826.0" r="5" fill="#f3f4f6" stroke="#9ca3af" stroke-width="1"/>
<circle cx="138.0" cy="826.0" r="5" fill="#f3f4f6" stroke="#9ca3af" stroke-width="1"/>
<circle cx="194.0" cy="826.0" r="5" fill="#f3f4f6" stroke="#9ca3af" stroke-width="1"/>
<circle cx="222.0" cy="826.0" r="5" fill="#f3f4f6" stroke="#9ca3af" stroke-width="1"/>
<circle cx="250.0" cy="826.0" r="5" fill="#f3f4f6" stroke="#9ca3af" stroke-width="1"/>
<circle cx="278.0" cy="826.0" r="5" fill="#f3f4f6" stroke="#9ca3af" stroke-width="1"/>
<circle cx="306.0" cy="826.0" r="5" fill="#f3f4f6" stroke="#9ca3af" stroke-width="1"/>
<circle cx="362.0" cy="826.0" r="5" fill="#f3f4f6" stroke="#9ca3af" stroke-width="1"/>
<circle cx="390.0" cy="826.0" r="5" fill="#f3f4f6" stroke="#9ca3af" stroke-width="1"/>
<circle cx="418.0" cy="826.0" r="5" fill="#f3f4f6" stroke="#9ca3af" stroke-width="1"/>
<circle cx="446.0" cy="826.0" r="5" fill="#f3f4f6" stroke="#9ca3af" stroke-width="1"/>
<circle cx="474.0" cy="826.0" r="5" fill="#f3f4f6" stroke="#9ca3af" stroke-width="1"/>
<circle cx="530.0" cy="826.0" r="5" fill="#f3f4f6" stroke="#9ca3af" stroke-width="1"/>
<circle cx="558.0" cy="826.0" r="5" fill="#f3f4f6" stroke="#9ca3af" stroke-width="1"/>
<circle cx="586.0" cy="826.0" r="5" fill="#f3f4f6" stroke="#9ca3af" stroke-width="1"/>
<circle cx="614.0" cy="826.0" r="5" fill="#f3f4f6" stroke="#9ca3af" stroke-width="1"/>
<circle cx="642.0" cy="826.0" r="5" fill="#f3f4f6" stroke="#9ca3af" stroke-width="1"/>
<circle cx="698.0" cy="826.0" r="5" fill="#f3f4f6" stroke="#9ca3af" stroke-width="1"/>
<circle cx="726.0" cy="826.0" r="5" fill="#f3f4f6" stroke="#9ca3af" stroke-width="1"/>
<circle cx="754.0" cy="826.0" r="5" fill="#f3f4f6" stroke="#9ca3af" stroke-width="1"/>
<circle cx="782.0" cy="826.0" r="5" fill="#f3f4f6" stroke="#9ca3af" stroke-width="1"/>
<circle cx="810.0" cy="826.0" r="5" fill="#f3f4f6" stroke="#9ca3af" stroke-width="1"/>
<circle cx="26.0" cy="78.0" r="5" fill="#f3f4f6" stroke="#9ca3af" stroke-width="1"/>
<circle cx="54.0" cy="78.0" r="5" fill="#f3f4f6" stroke="#9ca3af" stroke-width="1"/>
<circle cx="82.0" cy="78.0" r="5" fill="#f3f4f6" stroke="#9ca3af" stroke-width="1"/>
<circle cx="110.0" cy="78.0" r="5" fill="#f3f4f6" stroke="#9ca3af" stroke-width="1"/>
<circle cx="138.0" cy="78.0" r="5" fill="#f3f4f6" stroke="#9ca3af" stroke-width="1"/>
<circle cx="194.0" cy="78.0" r="5" fill="#f3f4f6" stroke="#9ca3af" stroke-width="1"/>
<circle cx="222.0" cy="78.0" r="5" fill="#f3f4f6" stroke="#9ca3af" stroke-width="1"/>
<circle cx="250.0" cy="78.0" r="5" fill="#f3f4f6" stroke="#9ca3af" stroke-width="1"/>
<circle cx="278.0" cy="78.0" r="5" fill="#f3f4f6" stroke="#9ca3af" stroke-width="1"/>
<circle cx="306.0" cy="78.0" r="5" fill="#f3f4f6" stroke="#9ca3af" stroke-width="1"/>
<circle cx="362.0" cy="78.0" r="5" fill="#f3f4f6" stroke="#9ca3af" stroke-width="1"/>
<circle cx="390.0" cy="78.0" r="5" fill="#f3f4f6" stroke="#9ca3af" stroke-width="1"/>
<circle cx="418.0" cy="78.0" r="5" fill="#f3f4f6" stroke="#9ca3af" stroke-width="1"/>
<circle cx="446.0" cy="78.0" r="5" fill="#f3f4f6" stroke="#9ca3af" stroke-width="1"/>
<circle cx="474.0" cy="78.0" r="5" fill="#f3f4f6" stroke="#9ca3af" stroke-width="1"/>
<circle cx="530.0" cy="78.0" r="5" fill="#f3f4f6" stroke="#9ca3af" stroke-width="1"/>
<circle cx="558.0" cy="78.0" r="5" fill="#f3f4f6" stroke="#9ca3af" stroke-width="1"/>
<circle cx="586.0" cy="78.0" r="5" fill="#f3f4f6" stroke="#9ca3af" stroke-width="1"/>
<circle cx="614.0" cy="78.0" r="5" fill="#f3f4f6" stroke="#9ca3af" stroke-width="1"/>
<circle cx="642.0" cy="78.0" r="5" fill="#f3f4f6" stroke="#9ca3af" stroke-width="1"/>
<circle cx="698.0" cy="78.0" r="5" fill="#f3f4f6" stroke="#9ca3af" stroke-width="1"/>
<circle cx="726.0" cy="78.0" r="5" fill="#f3f4f6" stroke="#9ca3af" stroke-width="1"/>
<circle cx="754.0" cy="78.0" r="5" fill="#f3f4f6" stroke="#9ca3af" stroke-width="1"/>
<circle cx="782.0" cy="78.0" r="5" fill="#f3f4f6" stroke="#9ca3af" stroke-width="1"/>
<circle cx="810.0" cy="78.0" r="5" fill="#f3f4f6" stroke="#9ca3af" stroke-width="1"/>
<circle cx="26.0" cy="870.0" r="5" fill="#f3f4f6" stroke="#9ca3af" stroke-width="1"/>
<circle cx="54.0" cy="870.0" r="5" fill="#f3f4f6" stroke="#9ca3af" stroke-width="1"/>
<circle cx="82.0" cy="870.0" r="5" fill="#f3f4f6" stroke="#9ca3af" stroke-width="1"/>
<circle cx="110.0" cy="870.0" r="5" fill="#f3f4f6" stroke="#9ca3af" stroke-width="1"/>
<circle cx="138.0" cy="870.0" r="5" fill="#f3f4f6" stroke="#9ca3af" stroke-width="1"/>
<circle cx="194.0" cy="870.0" r="5" fill="#f3f4f6" stroke="#9ca3af" stroke-width="1"/>
<circle cx="222.0" cy="870.0" r="5" fill="#f3f4f6" stroke="#9ca3af" stroke-width="1"/>
<circle cx="250.0" cy="870.0" r="5" fill="#f3f4f6" stroke="#9ca3af" stroke-width="1"/>
<circle cx="278.0" cy="870.0" r="5" fill="#f3f4f6" stroke="#9ca3af" stroke-width="1"/>
<circle cx="306.0" cy="870.0" r="5" fill="#f3f4f6" stroke="#9ca3af" stroke-width="1"/>
<circle cx="362.0" cy="870.0" r="5" fill="#f3f4f6" stroke="#9ca3af" stroke-width="1"/>
<circle cx="390.0" cy="870.0" r="5" fill="#f3f4f6" stroke="#9ca3af" stroke-width="1"/>
<circle cx="418.0" cy="870.0" r="5" fill="#f3f4f6" stroke="#9ca3af" stroke-width="1"/>
<circle cx="446.0" cy="870.0" r="5" fill="#f3f4f6" stroke="#9ca3af" stroke-width="1"/>
<circle cx="474.0" cy="870.0" r="5" fill="#f3f4f6" stroke="#9ca3af" stroke-width="1"/>
<circle cx="530.0" cy="870.0" r="5" fill="#f3f4f6" stroke="#9ca3af" stroke-width="1"/>
<circle cx="558.0" cy="870.0" r="5" fill="#f3f4f6" stroke="#9ca3af" stroke-width="1"/>
<circle cx="586.0" cy="870.0" r="5" fill="#f3f4f6" stroke="#9ca3af" stroke-width="1"/>
<circle cx="614.0" cy="870.0" r="5" fill="#f3f4f6" stroke="#9ca3af" stroke-width="1"/>
<circle cx="642.0" cy="870.0" r="5" fill="#f3f4f6" stroke="#9ca3af" stroke-width="1"/>
<circle cx="698.0" cy="870.0" r="5" fill="#f3f4f6" stroke="#9ca3af" stroke-width="1"/>
<circle cx="726.0" cy="870.0" r="5" fill="#f3f4f6" stroke="#9ca3af" stroke-width="1"/>
<circle cx="754.0" cy="870.0" r="5" fill="#f3f4f6" stroke="#9ca3af" stroke-width="1"/>
<circle cx="782.0" cy="870.0" r="5" fill="#f3f4f6" stroke="#9ca3af" stroke-width="1"/>
<circle cx="810.0" cy="870.0" r="5" fill="#f3f4f6" stroke="#9ca3af" stroke-width="1"/>
<circle cx="26.0" cy="210.0" r="5" fill="#ffffff" stroke="#cbd5e1" stroke-width="1"/>
<circle cx="54.0" cy="210.0" r="5" fill="#ffffff" stroke="#cbd5e1" stroke-width="1"/>
<circle cx="82.0" cy="210.0" r="5" fill="#ffffff" stroke="#cbd5e1" stroke-width="1"/>
<circle cx="110.0" cy="210.0" r="5" fill="#ffffff" stroke="#cbd5e1" stroke-width="1"/>
<circle cx="138.0" cy="210.0" r="5" fill="#ffffff" stroke="#cbd5e1" stroke-width="1"/>
<circle cx="166.0" cy="210.0" r="5" fill="#ffffff" stroke="#cbd5e1" stroke-width="1"/>
<circle cx="194.0" cy="210.0" r="5" fill="#ffffff" stroke="#cbd5e1" stroke-width="1"/>
<circle cx="222.0" cy="210.0" r="5" fill="#2563eb" stroke="#1e3a8a" stroke-width="1"/>
<circle cx="250.0" cy="210.0" r="5" fill="#2563eb" stroke="#1e3a8a" stroke-width="1"/>
<circle cx="278.0" cy="210.0" r="5" fill="#2563eb" stroke="#1e3a8a" stroke-width="1"/>
<circle cx="306.0" cy="210.0" r="5" fill="#2563eb" stroke="#1e3a8a" stroke-width="1"/>
<circle cx="334.0" cy="210.0" r="5" fill="#2563eb" stroke="#1e3a8a" stroke-width="1"/>
<circle cx="362.0" cy="210.0" r="5" fill="#2563eb" stroke="#1e3a8a" stroke-width="1"/>
<circle cx="390.0" cy="210.0" r="5" fill="hsl(94,65%,42%)" stroke="#374151" stroke-width="1"/>
<circle cx="418.0" cy="210.0" r="5" fill="hsl(94,65%,42%)" stroke="#374151" stroke-width="1"/>
<circle cx="446.0" cy="210.0" r="5" fill="#2563eb" stroke="#1e3a8a" stroke-width="1"/>
<circle cx="474.0" cy="210.0" r="5" fill="#ffffff" stroke="#cbd5e1" stroke-width="1"/>
<circle cx="502.0" cy="210.0" r="5" fill="#ffffff" stroke="#cbd5e1" stroke-width="1"/>
<circle cx="530.0" cy="210.0" r="5" fill="#ffffff" stroke="#cbd5e1" stroke-width="1"/>
<circle cx="558.0" cy="210.0" r="5" fill="#ffffff" stroke="#cbd5e1" stroke-width="1"/>
<circle cx="586.0" cy="210.0" r="5" fill="#ffffff" stroke="#cbd5e1" stroke-width="1"/>
<circle cx="614.0" cy="210.0" r="5" fill="#ffffff" stroke="#cbd5e1" stroke-width="1"/>
<circle cx="642.0" cy="210.0" r="5" fill="#ffffff" stroke="#cbd5e1" stroke-width="1"/>
<circle cx="670.0" cy="210.0" r="5" fill="#ffffff" stroke="#cbd5e1" stroke-width="1"/>
<circle cx="698.0" cy="210.0" r="5" fill="#ffffff" stroke="#cbd5e1" stroke-width="1"/>
<circle cx="726.0" cy="210.0" r="5" fill="#ffffff" stroke="#cbd5e1" stroke-width="1"/>
<circle cx="754.0" cy="210.0" r="5" fill="#ffffff" stroke="#cbd5e1" stroke-width="1"/>
<circle cx="782.0" cy="210.0" r="5" fill="#ffffff" stroke="#cbd5e1" stroke-width="1"/>
<circle cx="810.0" cy="210.0" r="5" fill="#ffffff" stroke="#cbd5e1" stroke-width="1"/>
<circle cx="838.0" cy="210.0" r="5" fill="#ffffff" stroke="#cbd5e1" stroke-width="1"/>
<circle cx="26.0" cy="254.0" r="5" fill="#ffffff" stroke="#cbd5e1" stroke-width="1"/>
<circle cx="54.0" cy="254.0" r="5" fill="#ffffff" stroke="#cbd5e1" stroke-width="1"/>
<circle cx="82.0" cy="254.0" r="5" fill="#ffffff" stroke="#cbd5e1" stroke-width="1"/>
<circle cx="110.0" cy="254.0" r="5" fill="#ffffff" stroke="#cbd5e1" stroke-width="1"/>
<circle cx="138.0" cy="254.0" r="5" fill="#ffffff" stroke="#cbd5e1" stroke-width="1"/>
<circle cx="166.0" cy="254.0" r="5" fill="#ffffff" stroke="#cbd5e1" stroke-width="1"/>
<circle cx="194.0" cy="254.0" r="5" fill="#ffffff" stroke="#cbd5e1" stroke-width="1"/>
<circle cx="222.0" cy="254.0" r="5" fill="#ffffff" stroke="#cbd5e1" stroke-width="1"/>
<circle cx="250.0" cy="254.0" r="5" fill="#ffffff" stroke="#cbd5e1" stroke-width="1"/>
<circle cx="278.0" cy="254.0" r="5" fill="#16a34a" stroke="#14532d" stroke-width="1"/>
<circle cx="306.0" cy="254.0" r="5" fill="#16a34a" stroke="#14532d" stroke-width="1"/>
<circle cx="334.0" cy="254.0" r="5" fill="#16a34a" stroke="#14532d" stroke-width="1"/>
<circle cx="362.0" cy="254.0" r="5" fill="#16a34a" stroke="#14532d" stroke-width="1"/>
<circle cx="390.0" cy="254.0" r="5" fill="#ffffff" stroke="#cbd5e1" stroke-width="1"/>
<circle cx="418.0" cy="254.0" r="5" fill="#ffffff" stroke="#cbd5e1" stroke-width="1"/>
<circle cx="446.0" cy="254.0" r="5" fill="#ffffff" stroke="#cbd5e1" stroke-width="1"/>
<circle cx="474.0" cy="254.0" r="5" fill="#ffffff" stroke="#cbd5e1" stroke-width="1"/>
<circle cx="502.0" cy="254.0" r="5" fill="#ffffff" stroke="#cbd5e1" stroke-width="1"/>
<circle cx="530.0" cy="254.0" r="5" fill="#ffffff" stroke="#cbd5e1" stroke-width="1"/>
<circle cx="558.0" cy="254.0" r="5" fill="#ffffff" stroke="#cbd5e1" stroke-width="1"/>
<circle cx="586.0" cy="254.0" r="5" fill="#ffffff" stroke="#cbd5e1" stroke-width="1"/>
<circle cx="614.0" cy="254.0" r="5" fill="#ffffff" stroke="#cbd5e1" stroke-width="1"/>
<circle cx="642.0" cy="254.0" r="5" fill="#ffffff" stroke="#cbd5e1" stroke-width="1"/>
<circle cx="670.0" cy="254.0" r="5" fill="#ffffff" stroke="#cbd5e1" stroke-width="1"/>
<circle cx="698.0" cy="254.0" r="5" fill="#ffffff" stroke="#cbd5e1" stroke-width="1"/>
<circle cx="726.0" cy="254.0" r="5" fill="#ffffff" stroke="#cbd5e1" stroke-width="1"/>
<circle cx="754.0" cy="254.0" r="5" fill="#ffffff" stroke="#cbd5e1" stroke-width="1"/>
<circle cx="782.0" cy="254.0" r="5" fill="#ffffff" stroke="#cbd5e1" stroke-width="1"/>
<circle cx="810.0" cy="254.0" r="5" fill="#ffffff" stroke="#cbd5e1" stroke-width="1"/>
<circle cx="838.0" cy="254.0" r="5" fill="#ffffff" stroke="#cbd5e1" stroke-width="1"/>
<circle cx="26.0" cy="298.0" r="5" fill="#ffffff" stroke="#cbd5e1" stroke-width="1"/>
<circle cx="54.0" cy="298.0" r="5" fill="#ffffff" stroke="#cbd5e1" stroke-width="1"/>
<circle cx="82.0" cy="298.0" r="5" fill="#ffffff" stroke="#cbd5e1" stroke-width="1"/>
<circle cx="110.0" cy="298.0" r="5" fill="#ffffff" stroke="#cbd5e1" stroke-width="1"/>
<circle cx="138.0" cy="298.0" r="5" fill="#ffffff" stroke="#cbd5e1" stroke-width="1"/>
<circle cx="166.0" cy="298.0" r="5" fill="#ffffff" stroke="#cbd5e1" stroke-width="1"/>
<circle cx="194.0" cy="298.0" r="5" fill="#ffffff" stroke="#cbd5e1" stroke-width="1"/>
<circle cx="222.0" cy="298.0" r="5" fill="#ffffff" stroke="#cbd5e1" stroke-width="1"/>
<circle cx="250.0" cy="298.0" r="5" fill="#ffffff" stroke="#cbd5e1" stroke-width="1"/>
<circle cx="278.0" cy="298.0" r="5" fill="#ffffff" stroke="#cbd5e1" stroke-width="1"/>
<circle cx="306.0" cy="298.0" r="5" fill="#ffffff" stroke="#cbd5e1" stroke-width="1"/>
<circle cx="334.0" cy="298.0" r="5" fill="#ffffff" stroke="#cbd5e1" stroke-width="1"/>
<circle cx="362.0" cy="298.0" r="5" fill="#ffffff" stroke="#cbd5e1" stroke-width="1"/>
<circle cx="390.0" cy="298.0" r="5" fill="#ffffff" stroke="#cbd5e1" stroke-width="1"/>
<circle cx="418.0" cy="298.0" r="5" fill="#ffffff" stroke="#cbd5e1" stroke-width="1"/>
<circle cx="446.0" cy="298.0" r="5" fill="#ffffff" stroke="#cbd5e1" stroke-width="1"/>
<circle cx="474.0" cy="298.0" r="5" fill="#ffffff" stroke="#cbd5e1" stroke-width="1"/>
<circle cx="502.0" cy="298.0" r="5" fill="#ffffff" stroke="#cbd5e1" stroke-width="1"/>
<circle cx="530.0" cy="298.0" r="5" fill="#ffffff" stroke="#cbd5e1" stroke-width="1"/>
<circle cx="558.0" cy="298.0" r="5" fill="#ffffff" stroke="#cbd5e1" stroke-width="1"/>
<circle cx="586.0" cy="298.0" r="5" fill="#ffffff" stroke="#cbd5e1" stroke-width="1"/>
<circle cx="614.0" cy="298.0" r="5" fill="#ffffff" stroke="#cbd5e1" stroke-width="1"/>
<circle cx="642.0" cy="298.0" r="5" fill="#ffffff" stroke="#cbd5e1" stroke-width="1"/>
<circle cx="670.0" cy="298.0" r="5" fill="#ffffff" stroke="#cbd5e1" stroke-width="1"/>
<circle cx="698.0" cy="298.0" r="5" fill="#ffffff" stroke="#cbd5e1" stroke-width="1"/>
<circle cx="726.0" cy="298.0" r="5" fill="#ffffff" stroke="#cbd5e1" stroke-width="1"/>
<circle cx="754.0" cy="298.0" r="5" fill="#ffffff" stroke="#cbd5e1" stroke-width="1"/>
<circle cx="782.0" cy="298.0" r="5" fill="#ffffff" stroke="#cbd5e1" stroke-width="1"/>
<circle cx="810.0" cy="298.0" r="5" fill="#ffffff" stroke="#cbd5e1" stroke-width="1"/>
<circle cx="838.0" cy="298.0" r="5" fill="#ffffff" stroke="#cbd5e1" stroke-width="1"/>
<circle cx="26.0" cy="342.0" r="5" fill="#ffffff" stroke="#cbd5e1" stroke-width="1"/>
<circle cx="54.0" cy="342.0" r="5" fill="#ffffff" stroke="#cbd5e1" stroke-width="1"/>
<circle cx="82.0" cy="342.0" r="5" fill="#ffffff" stroke="#cbd5e1" stroke-width="1"/>
<circle cx="110.0" cy="342.0" r="5" fill="#ffffff" stroke="#cbd5e1" stroke-width="1"/>
<circle cx="138.0" cy="342.0" r="5" fill="#ffffff" stroke="#cbd5e1" stroke-width="1"/>
<circle cx="166.0" cy="342.0" r="5" fill="#ffffff" stroke="#cbd5e1" stroke-width="1"/>
<circle cx="194.0" cy="342.0" r="5" fill="#ffffff" stroke="#cbd5e1" stroke-width="1"/>
<circle cx="222.0" cy="342.0" r="5" fill="#ffffff" stroke="#cbd5e1" stroke-width="1"/>
<circle cx="250.0" cy="342.0" r="5" fill="#ffffff" stroke="#cbd5e1" stroke-width="1"/>
<circle cx="278.0" cy="342.0" r="5" fill="#ffffff" stroke="#cbd5e1" stroke-width="1"/>
<circle cx="306.0" cy="342.0" r="5" fill="#ffffff" stroke="#cbd5e1" stroke-width="1"/>
<circle cx="334.0" cy="342.0" r="5" fill="#ffffff" stroke="#cbd5e1" stroke-width="1"/>
<circle cx="362.0" cy="342.0" r="5" fill="#ffffff" stroke="#cbd5e1" stroke-width="1"/>
<circle cx="390.0" cy="342.0" r="5" fill="#ffffff" stroke="#cbd5e1" stroke-width="1"/>
<circle cx="418.0" cy="342.0" r="5" fill="#ffffff" stroke="#cbd5e1" stroke-width="1"/>
<circle cx="446.0" cy="342.0" r="5" fill="#ffffff" stroke="#cbd5e1" stroke-width="1"/>
<circle cx="474.0" cy="342.0" r="5" fill="#ffffff" stroke="#cbd5e1" stroke-width="1"/>
<circle cx="502.0" cy="342.0" r="5" fill="#ffffff" stroke="#cbd5e1" stroke-width="1"/>
<circle cx="530.0" cy="342.0" r="5" fill="#ffffff" stroke="#cbd5e1" stroke-width="1"/>
<circle cx="558.0" cy="342.0" r="5" fill="#ffffff" stroke="#cbd5e1" stroke-width="1"/>
<circle cx="586.0" cy="342.0" r="5" fill="#ffffff" stroke="#cbd5e1" stroke-width="1"/>
<circle cx="614.0" cy="342.0" r="5" fill="#ffffff" stroke="#cbd5e1" stroke-width="1"/>
<circle cx="642.0" cy="342.0" r="5" fill="#ffffff" stroke="#cbd5e1" stroke-width="1"/>
<circle cx="670.0" cy="342.0" r="5" fill="#ffffff" stroke="#cbd5e1" stroke-width="1"/>
<circle cx="698.0" cy="342.0" r="5" fill="#ffffff" stroke="#cbd5e1" stroke-width="1"/>
<circle cx="726.0" cy="342.0" r="5" fill="#ffffff" stroke="#cbd5e1" stroke-width="1"/>
<circle cx="754.0" cy="342.0" r="5" fill="#ffffff" stroke="#cbd5e1" stroke-width="1"/>
<circle cx="782.0" cy="342.0" r="5" fill="#ffffff" stroke="#cbd5e1" stroke-width="1"/>
<circle cx="810.0" cy="342.0" r="5" fill="#ffffff" stroke="#cbd5e1" stroke-width="1"/>
<circle cx="838.0" cy="342.0" r="5" fill="#ffffff" stroke="#cbd5e1" stroke-width="1"/>
<circle cx="26.0" cy="386.0" r="5" fill="#ffffff" stroke="#cbd5e1" stroke-width="1"/>
<circle cx="54.0" cy="386.0" r="5" fill="#ffffff" stroke="#cbd5e1" stroke-width="1"/>
<circle cx="82.0" cy="386.0" r="5" fill="#ffffff" stroke="#cbd5e1" stroke-width="1"/>
<circle cx="110.0" cy="386.0" r="5" fill="#ffffff" stroke="#cbd5e1" stroke-width="1"/>
<circle cx="138.0" cy="386.0" r="5" fill="#ffffff" stroke="#cbd5e1" stroke-width="1"/>
<circle cx="166.0" cy="386.0" r="5" fill="#ffffff" stroke="#cbd5e1" stroke-width="1"/>
<circle cx="194.0" cy="386.0" r="5" fill="#ffffff" stroke="#cbd5e1" stroke-width="1"/>
<circle cx="222.0" cy="386.0" r="5" fill="#ffffff" stroke="#cbd5e1" stroke-width="1"/>
<circle cx="250.0" cy="386.0" r="5" fill="#ffffff" stroke="#cbd5e1" stroke-width="1"/>
<circle cx="278.0" cy="386.0" r="5" fill="#ffffff" stroke="#cbd5e1" stroke-width="1"/>
<circle cx="306.0" cy="386.0" r="5" fill="#ffffff" stroke="#cbd5e1" stroke-width="1"/>
<circle cx="334.0" cy="386.0" r="5" fill="#ffffff" stroke="#cbd5e1" stroke-width="1"/>
<circle cx="362.0" cy="386.0" r="5" fill="#ffffff" stroke="#cbd5e1" stroke-width="1"/>
<circle cx="390.0" cy="386.0" r="5" fill="#ffffff" stroke="#cbd5e1" stroke-width="1"/>
<circle cx="418.0" cy="386.0" r="5" fill="#ffffff" stroke="#cbd5e1" stroke-width="1"/>
<circle cx="446.0" cy="386.0" r="5" fill="#ffffff" stroke="#cbd5e1" stroke-width="1"/>
<circle cx="474.0" cy="386.0" r="5" fill="#ffffff" stroke="#cbd5e1" stroke-width="1"/>
<circle cx="502.0" cy="386.0" r="5" fill="#ffffff" stroke="#cbd5e1" stroke-width="1"/>
<circle cx="530.0" cy="386.0" r="5" fill="#ffffff" stroke="#cbd5e1" stroke-width="1"/>
<circle cx="558.0" cy="386.0" r="5" fill="#ffffff" stroke="#cbd5e1" stroke-width="1"/>
<circle cx="586.0" cy="386.0" r="5" fill="#ffffff" stroke="#cbd5e1" stroke-width="1"/>
<circle cx="614.0" cy="386.0" r="5" fill="#ffffff" stroke="#cbd5e1" stroke-width="1"/>
<circle cx="642.0" cy="386.0" r="5" fill="#ffffff" stroke="#cbd5e1" stroke-width="1"/>
<circle cx="670.0" cy="386.0" r="5" fill="#ffffff" stroke="#cbd5e1" stroke-width="1"/>
<circle cx="698.0" cy="386.0" r="5" fill="#ffffff" stroke="#cbd5e1" stroke-width="1"/>
<circle cx="726.0" cy="386.0" r="5" fill="#ffffff" stroke="#cbd5e1" stroke-width="1"/>
<circle cx="754.0" cy="386.0" r="5" fill="#ffffff" stroke="#cbd5e1" stroke-width="1"/>
<circle cx="782.0" cy="386.0" r="5" fill="#ffffff" stroke="#cbd5e1" stroke-width="1"/>
<circle cx="810.0" cy="386.0" r="5" fill="#ffffff" stroke="#cbd5e1" stroke-width="1"/>
<circle cx="838.0" cy="386.0" r="5" fill="#ffffff" stroke="#cbd5e1" stroke-width="1"/>
</svg>
